<svg xmlns="http://www.w3.org/2000/svg" xmlns:xlink="http://www.w3.org/1999/xlink" id="Layer_1" x="0px" y="0px" viewBox="0 0 512 512" style="enable-background:new 0 0 512 512;" xml:space="preserve"><g>	<g>		<defs>			<rect id="SVGID_1_" x="345.296" y="201.411" width="108.747" height="108.747"></rect>		</defs>		<clipPath id="SVGID_2_">			<use xlink:href="#SVGID_1_" style="overflow:visible;"></use>		</clipPath>					<radialGradient id="SVGID_3_" cx="-57.9288" cy="650.7831" r="1.8159" gradientTransform="matrix(86.7522 -76.1512 -76.1512 -86.7522 54879.875 52385.2148)" gradientUnits="userSpaceOnUse">			<stop offset="0" style="stop-color:#86B826"></stop>			<stop offset="0.29" style="stop-color:#86B826"></stop>			<stop offset="0.44" style="stop-color:#60AB30"></stop>			<stop offset="0.685" style="stop-color:#008E39"></stop>			<stop offset="0.705" style="stop-color:#165CA6"></stop>			<stop offset="0.9" style="stop-color:#2EA0DB"></stop>			<stop offset="1" style="stop-color:#36A5DE"></stop>		</radialGradient>		<polygon style="clip-path:url(#SVGID_2_);fill:url(#SVGID_3_);" points="291.381,248.738 406.716,147.497 507.957,262.832    392.622,364.073   "></polygon>	</g>	<g>		<path style="fill:#65686E;" d="M72.536,247.338c1.595,0,2.832-1.298,2.832-2.894c0-1.534-1.298-2.833-2.832-2.833   c-1.596,0-2.894,1.242-2.894,2.833C69.642,246.097,70.883,247.338,72.536,247.338"></path>		<path style="fill:#65686E;" d="M80.798,275.373c-1.652,0-2.894,1.242-2.894,2.833c0,1.595,1.241,2.833,2.894,2.833   c1.534,0,2.832-1.298,2.832-2.833C83.63,276.671,82.332,275.373,80.798,275.373"></path>		<path style="fill:#65686E;" d="M85.046,262.92c0,2.535-0.944,3.422-3.597,3.422H78.38v-6.373c0-6.435-3.305-9.8-9.446-9.8   c-7.553,0-10.976,5.254-10.976,10.447c0,3.781,1.241,6.67,3.484,8.205c2.597,1.714,4.778,2.068,9.735,2.068h10.565   c5.608,0,8.795-2.124,8.795-7.794v-12.926h-5.49V262.92z M73.008,266.342h-3.13c-4.485,0-6.373-1.77-6.373-5.901   c0-3.484,1.949-5.726,5.018-5.726c3.069,0,4.485,1.888,4.485,5.844V266.342z"></path>		<path style="fill:#65686E;" d="M65.925,247.338c1.595,0,2.832-1.298,2.832-2.894c0-1.534-1.298-2.833-2.832-2.833   c-1.596,0-2.833,1.242-2.833,2.833C63.093,246.097,64.273,247.338,65.925,247.338"></path>		<path style="fill:#65686E;" d="M112.079,260.618c0-5.193-3.366-10.447-10.919-10.447h-4.306v4.546h4.721   c3.069,0,5.014,2.242,5.014,5.722v5.906H92.483v4.542h19.596V260.618z"></path>		<path style="fill:#65686E;" d="M87.349,275.373c-1.591,0-2.833,1.242-2.833,2.833c0,1.595,1.241,2.833,2.833,2.833   c1.595,0,2.894-1.298,2.894-2.833C90.243,276.671,88.944,275.373,87.349,275.373"></path>		<rect x="294.804" y="240.079" style="fill:#65686E;" width="5.311" height="30.808"></rect>		<path style="fill:#65686E;" d="M296.574,275.373v5.136c1.713,0.293,2.951,0.411,4.131,0.411c7.379,0,10.981-3.362,10.981-10.329   v-18.411h-5.547v18.473c0,3.479-1.95,5.608-5.018,5.608c-1.949,0-3.366-0.476-3.895-0.651L296.574,275.373z"></path>		<rect x="315.226" y="243.384" style="fill:#65686E;" width="5.311" height="27.504"></rect>		<path style="fill:#65686E;" d="M229.824,268.822c2.597,1.709,4.778,2.067,9.739,2.067h1.827c-0.057,3.541-2.067,5.311-5.84,5.311   c-1.713,0-3.781-0.236-6.023-1.005l-0.354-0.118v5.136c2.715,0.472,4.782,0.708,6.67,0.708c7.261,0,10.976-3.366,11.094-10.032   h31.224c8.616,0,13.162-2.247,13.162-10.272c0-5.193-3.366-10.447-10.919-10.447c-6.137,0-9.442,3.366-9.442,9.8v6.373h-4.843   c0.712-1.359,1.123-3.012,1.123-5.018c0-4.542-2.894-9.796-10.919-9.796h-0.708L266,240.076h-6.43   c-3.895,4.371-9.739,10.744-10.447,11.391v4.603h7.553c2.304,0,5.075,0.887,5.075,5.018c0,3.838-1.709,5.254-6.373,5.254h-8.616   v-6.373c0-6.434-3.305-9.8-9.442-9.8c-7.558,0-10.981,5.254-10.981,10.447C226.34,264.394,227.581,267.287,229.824,268.822    M276.329,260.56c0-3.956,1.416-5.844,4.485-5.844c3.068,0,5.018,2.242,5.018,5.727c0,4.131-1.888,5.901-6.316,5.901h-3.187   V260.56z M236.905,254.716c3.068,0,4.428,1.888,4.428,5.844v5.783h-3.068c-4.489,0-6.378-1.77-6.378-5.901   C231.887,256.958,233.837,254.716,236.905,254.716"></path>		<path style="fill:#65686E;" d="M198.426,270.888c2.299,0,4.66-0.533,5.958-1.298c1.714-1.005,2.479-2.715,2.597-3.602   c0.179-0.708,0.236-1.416,0.236-2.889v-22.962h-5.486v22.783c0,2.54-0.944,3.423-3.602,3.423h-1.298   c-0.887,0-1.77-0.175-2.771-0.529c0.114-0.708,0.175-1.478,0.175-2.422v-11.212h-5.372v10.858c0,2.361-1.062,3.366-3.48,3.366   c-0.887,0-1.77-0.118-2.719-0.415c0.122-0.765,0.179-1.534,0.179-2.653v-11.155h-5.372v10.858c0,2.125-0.529,3.012-2.063,3.305   h-2.776c-0.411,0-1.355,0.061-1.355-0.472v-13.691h-5.372v14.163h-9.088c2.951-3.126,4.721-6.435,4.721-8.97   c0-4.839-5.844-7.322-11.627-7.322c-5.783,0-11.627,2.483-11.627,7.322c0,3.422,3.069,7.142,4.839,8.97h-8.262v-6.373   c0-6.435-3.305-9.796-9.442-9.796c-7.558,0-10.919,5.25-10.919,10.447c0,3.777,1.18,6.666,3.423,8.2   c2.596,1.714,4.782,2.068,9.739,2.068h1.827c-0.057,3.541-2.006,5.311-5.84,5.311c-1.714,0-3.777-0.236-6.019-1.006l-0.358-0.118   v5.136c2.719,0.472,4.782,0.708,6.67,0.708c7.26,0,10.98-3.361,11.098-10.032h36.591c1.062,0.118,2.125,0.175,3.187,0.175   c2.063,0,3.602-0.354,5.075-1.18c1.949,0.769,4.249,1.18,6.491,1.18c2.068,0,3.777-0.411,5.075-1.298   c1.77,0.769,3.956,1.123,6.434,1.123H198.426z M129.488,266.342h-3.125c-4.485,0-6.373-1.77-6.373-5.901   c0-3.484,1.945-5.726,5.014-5.726c3.069,0,4.485,1.888,4.485,5.844V266.342z M149.91,265.988c-0.769,0-6.491-5.429-6.491-8.615   c0-1.77,3.423-2.715,6.666-2.715c3.13,0,6.378,0.944,6.378,2.715C156.463,260.497,150.972,265.988,149.91,265.988"></path>		<rect x="211.41" y="240.079" style="fill:#65686E;" width="5.311" height="30.808"></rect>		<path style="fill:#65686E;" d="M321.834,238.544h-2.951c-1.241-0.061-1.534-0.297-1.534-1.237c0-1.067,0.354-1.303,1.652-1.303   c0.826,0,1.416,0.179,2.299,0.826v-2.596l-0.411-0.175c-0.647-0.297-1.241-0.415-1.95-0.415c-2.714,0-4.249,1.298-4.249,3.72   c0,0.533,0.118,0.883,0.236,1.18h-1.001v2.361h7.908V238.544z"></path>		<path style="fill:#65686E;" d="M313.897,289.561c-5.783,0-10.504,4.721-10.504,10.504c0,5.783,4.721,10.509,10.504,10.509   c5.783,0,10.447-4.726,10.447-10.509C324.344,294.282,319.68,289.561,313.897,289.561 M313.897,305.791   c-3.187,0-5.727-2.596-5.727-5.726c0-3.125,2.54-5.665,5.727-5.665c3.13,0,5.665,2.54,5.665,5.665   C319.562,303.195,317.026,305.791,313.897,305.791"></path>		<path style="fill:#65686E;" d="M275.427,289.324c-2.304,0-4.664,0.472-6.553,1.237c-1.534-0.883-3.012-1.237-5.132-1.237   c-2.658,0-5.372,0.354-8.323,1.36l-0.533,0.175v19.299h5.254v-15.815c1.062-0.354,1.888-0.472,2.951-0.472   c2.596,0,3.366,0.826,3.366,3.541v12.746h5.311v-13.101c0-1.18-0.061-1.949-0.236-2.658c1.062-0.354,1.888-0.529,2.833-0.529   c2.479,0,3.597,1.119,3.597,3.541v12.746h5.254v-13.162c0-2.596-0.411-4.131-1.591-5.429   C280.327,290.151,278.141,289.324,275.427,289.324"></path>		<path style="fill:#65686E;" d="M296.479,305.999c-3.501,0-5.508-2.172-5.508-5.967c0-3.882,2.032-6.115,5.56-6.115   c0.734,0,1.351,0.079,1.941,0.253c0,0,1.084,0.311,2.037,1.058l2.225-3.812c-1.211-1.01-2.636-1.447-3.121-1.569   c-1.36-0.415-3.366-0.477-3.366-0.477c-6.312,0-10.552,4.38-10.552,10.893c0,6.26,4.021,10.303,10.255,10.303   c0,0,4.17,0.184,6.972-2.413l-2.614-3.361C298.891,305.697,297.908,305.999,296.479,305.999"></path>		<path style="fill:#65686E;" d="M228.005,289.503c-7.497,0-10.976,3.305-10.976,10.329v10.329h5.368v-9.918v-0.472   c0-3.541,2.006-5.727,5.136-5.727c1.298,0,2.299,0.241,3.007,0.415l1.241-4.66C229.7,289.503,228.005,289.503,228.005,289.503"></path>		<path style="fill:#65686E;" d="M251.821,299.24v10.919h-7.204c-4.957,0-7.138-0.354-9.735-2.068   c-2.242-1.534-3.484-4.423-3.484-8.205c0-5.193,3.423-10.443,10.976-10.443C248.512,289.444,251.821,292.867,251.821,299.24    M246.567,299.83c0-3.956-1.534-5.901-4.603-5.901c-3.13,0-5.136,2.299-5.136,5.783c0,4.192,2.006,6.019,6.491,6.019h3.248V299.83   z"></path>		<path style="fill:#65686E;" d="M214.105,299.24v10.919h-7.142c-4.957,0-7.138-0.354-9.735-2.068   c-2.242-1.534-3.484-4.423-3.484-8.205c0-5.193,3.422-10.443,10.976-10.443C210.861,289.444,214.105,292.867,214.105,299.24    M208.676,299.83c0-4.013-1.416-5.901-4.546-5.901c-3.125,0-5.132,2.299-5.132,5.783c0,4.192,2.007,6.019,6.491,6.019h3.187   V299.83z"></path>		<path style="fill:#65686E;" d="M101.596,297.663c-3.209-0.957-4.485-1.49-4.481-2.509c0.009-1.102,1.631-1.692,3.624-1.692   c1.985,0,3.886,0.446,5.315,0.914l1.224-4.581c-2.111-0.49-4.699-0.774-6.43-0.774c-5.678,0-8.782,2.575-8.782,6.413   c0,1.915,0.542,4.55,6.5,6.22c3.501,1.019,4.782,1.15,4.782,2.29c0,1.281-2.194,2.203-4.721,2.203   c-2.605,0-5.254-1.137-6.876-1.932v4.992c1.919,0.787,4.336,1.381,6.775,1.381c6.198,0,9.87-2.623,9.87-6.684   C108.397,300.841,106.531,299.149,101.596,297.663"></path>		<path style="fill:#65686E;" d="M146.527,302.486c0,2.54-1.001,3.484-3.72,3.484h-0.293c-2.714,0-3.72-0.944-3.72-3.484v-12.751   h-5.25v13.105c0,6.08,3.423,7.733,8.672,7.733h0.887c5.608,0,8.852-1.595,8.852-7.733v-13.105h-5.429V302.486z"></path>		<path style="fill:#65686E;" d="M180.346,282.301c-1.596,0-2.833,1.242-2.833,2.833c0,1.595,1.237,2.833,2.833,2.833   c1.595,0,2.832-1.237,2.832-2.833C183.178,283.6,181.88,282.301,180.346,282.301"></path>		<rect x="177.747" y="290.326" style="fill:#65686E;" width="5.193" height="19.832"></rect>		<path style="fill:#65686E;" d="M130.594,299.24v10.919h-7.199c-4.961,0-7.143-0.354-9.739-2.068   c-2.242-1.534-3.484-4.423-3.484-8.205c0-5.193,3.423-10.443,10.976-10.443C127.289,289.444,130.594,292.867,130.594,299.24    M125.34,299.83c0-3.956-1.534-5.901-4.603-5.901c-3.13,0-5.136,2.299-5.136,5.783c0,4.192,2.006,6.019,6.491,6.019h3.248V299.83z   "></path>		<path style="fill:#65686E;" d="M174.384,281.889v28.269h-6.552c-4.957,0-7.138-0.354-9.735-2.063   c-2.242-1.534-3.484-4.428-3.484-8.205c0-6.316,4.249-10.386,10.386-10.386h0.533c1.355,0,2.653,0.411,3.777,1.119v-8.734H174.384   z M169.309,299.889c0-4.249-1.18-5.962-4.131-5.962c-3.13,0-5.136,2.304-5.136,5.783c0,4.192,1.95,6.023,6.434,6.023h2.833   V299.889z"></path>	</g>	<path style="fill:#FFFFFF;" d="M405.285,247.039c1.285,0.647,2.137,1.95,1.98,3.021c-0.201,1.08-1.359,1.429-2.697,0.796  c-1.325-0.665-2.181-2.002-1.98-3.086C402.828,246.725,403.987,246.419,405.285,247.039"></path>	<path style="fill:#FFFFFF;" d="M409.115,226.113c1.049,0.56,1.783,1.491,1.705,2.164c-0.118,0.664-1.027,0.76-2.111,0.214  c-1.08-0.568-1.827-1.53-1.709-2.203C407.143,225.637,408.048,225.567,409.115,226.113"></path>	<path style="fill:#FFFFFF;" d="M409.465,224.032c0.879,0.472,1.499,1.237,1.429,1.779c-0.092,0.533-0.848,0.594-1.749,0.131  c-0.905-0.477-1.526-1.263-1.434-1.801C407.826,223.612,408.582,223.577,409.465,224.032"></path>	<path style="fill:#FFFFFF;" d="M409.801,221.962c0.813,0.442,1.39,1.141,1.329,1.626c-0.087,0.481-0.782,0.516-1.617,0.083  c-0.835-0.45-1.412-1.163-1.337-1.644C408.28,221.556,408.979,221.538,409.801,221.962"></path>	<path style="fill:#FFFFFF;" d="M410.113,219.949c0.756,0.411,1.294,1.049,1.241,1.482c-0.074,0.428-0.717,0.45-1.495,0.044  c-0.765-0.415-1.307-1.071-1.241-1.499C408.71,219.552,409.352,219.552,410.113,219.949"></path>	<path style="fill:#FFFFFF;" d="M410.416,218.088c0.704,0.385,1.198,0.971,1.149,1.351c-0.065,0.385-0.656,0.389-1.368,0.009  c-0.717-0.385-1.211-0.983-1.154-1.368C409.122,217.708,409.713,217.712,410.416,218.088"></path>	<path style="fill:#FFFFFF;" d="M410.69,216.408c0.647,0.359,1.101,0.892,1.062,1.233c-0.057,0.345-0.599,0.336-1.259-0.018  c-0.66-0.363-1.119-0.905-1.066-1.25C409.497,216.04,410.039,216.058,410.69,216.408"></path>	<path style="fill:#FFFFFF;" d="M410.948,214.783c0.59,0.332,1.023,0.761,0.983,1.119c-0.061,0.358-0.551,0.284-1.158-0.039  c-0.603-0.336-1.045-0.778-0.988-1.132C409.856,214.381,410.345,214.46,410.948,214.783"></path>	<path style="fill:#FFFFFF;" d="M411.203,213.134c0.511,0.293,0.892,0.66,0.857,0.962c-0.053,0.301-0.477,0.223-1.001-0.061  c-0.525-0.289-0.9-0.665-0.861-0.971C410.259,212.767,410.683,212.845,411.203,213.134"></path>	<path style="fill:#FFFFFF;" d="M411.452,211.586c0.472,0.271,0.813,0.603,0.787,0.874c-0.048,0.271-0.428,0.188-0.905-0.07  c-0.481-0.275-0.826-0.607-0.796-0.883C410.591,211.241,410.976,211.324,411.452,211.586"></path>	<path style="fill:#FFFFFF;" d="M411.684,210.061c0.406,0.236,0.704,0.516,0.682,0.743c-0.039,0.232-0.363,0.153-0.778-0.079  c-0.415-0.236-0.717-0.516-0.686-0.748C410.945,209.751,411.273,209.834,411.684,210.061"></path>	<path style="fill:#FFFFFF;" d="M411.916,208.63c0.363,0.21,0.621,0.45,0.599,0.647c-0.031,0.201-0.319,0.122-0.682-0.083  c-0.363-0.205-0.629-0.45-0.603-0.651C411.264,208.346,411.557,208.424,411.916,208.63"></path>	<path style="fill:#FFFFFF;" d="M403.928,254.362c-1.106-0.555-1.814-1.7-1.644-2.636c0.205-0.914,1.185-1.202,2.277-0.691  c1.071,0.542,1.779,1.657,1.639,2.588C406.018,254.568,405.047,254.883,403.928,254.362"></path>	<path style="fill:#FFFFFF;" d="M403.076,258.823c-1.084-0.538-1.766-1.678-1.587-2.636c0.21-0.94,1.172-1.259,2.238-0.761  c1.058,0.52,1.735,1.639,1.587,2.588C405.126,258.972,404.164,259.326,403.076,258.823"></path>	<path style="fill:#FFFFFF;" d="M402.171,263.474c-1.054-0.516-1.709-1.661-1.521-2.631c0.21-0.957,1.158-1.303,2.194-0.826  c1.027,0.503,1.683,1.622,1.526,2.588C404.177,263.579,403.233,263.959,402.171,263.474"></path>	<path style="fill:#FFFFFF;" d="M401.167,268.576c-1.023-0.485-1.661-1.635-1.464-2.627c0.223-0.979,1.15-1.355,2.155-0.896  c1.001,0.485,1.639,1.595,1.464,2.583C403.12,268.629,402.198,269.04,401.167,268.576"></path>	<path style="fill:#FFFFFF;" d="M400.14,273.685c-0.887-0.419-1.43-1.442-1.255-2.347c0.205-0.892,1.023-1.259,1.901-0.87  c0.87,0.415,1.408,1.412,1.255,2.312C401.853,273.685,401.036,274.074,400.14,273.685"></path>	<path style="fill:#FFFFFF;" d="M398.873,279.866c-0.861-0.398-1.373-1.412-1.189-2.343c0.214-0.905,1.014-1.312,1.871-0.94  c0.835,0.389,1.347,1.381,1.185,2.304C400.542,279.81,399.742,280.238,398.873,279.866"></path>	<path style="fill:#FFFFFF;" d="M397.47,286.551c-0.774-0.345-1.211-1.281-1.032-2.164c0.197-0.861,0.927-1.263,1.687-0.948  c0.756,0.341,1.198,1.25,1.04,2.12C398.974,286.438,398.244,286.866,397.47,286.551"></path>	<path style="fill:#FFFFFF;" d="M396.085,293.236c-0.66-0.28-1.023-1.101-0.852-1.901c0.188-0.787,0.817-1.18,1.469-0.927  c0.638,0.275,1.01,1.08,0.857,1.871C397.374,293.07,396.744,293.489,396.085,293.236"></path>	<path style="fill:#FFFFFF;" d="M409.842,249.559c1.014,0.525,1.709,1.578,1.613,2.444c-0.136,0.874-1.023,1.15-2.072,0.643  c-1.04-0.533-1.735-1.613-1.613-2.487C407.932,249.31,408.819,249.057,409.842,249.559"></path>	<path style="fill:#FFFFFF;" d="M414.356,251.446c1.246,0.656,2.124,1.993,2.041,3.091c-0.127,1.11-1.185,1.469-2.474,0.826  c-1.289-0.673-2.172-2.046-2.059-3.152C412.026,251.136,413.093,250.821,414.356,251.446"></path>	<path style="fill:#FFFFFF;" d="M445.593,249.795c-0.511-0.323-0.857-0.219-0.804,0.241c0.07,0.459,0.52,1.084,1.031,1.42  c0.525,0.328,0.87,0.223,0.809-0.249C446.554,250.739,446.104,250.122,445.593,249.795"></path>	<path style="fill:#FFFFFF;" d="M441.959,247.307c-0.686-0.406-1.158-0.284-1.102,0.297c0.079,0.586,0.664,1.377,1.346,1.81  c0.695,0.415,1.158,0.288,1.093-0.315C443.214,248.505,442.628,247.727,441.959,247.307"></path>	<path style="fill:#FFFFFF;" d="M431.807,281.21c-0.879-0.538-1.547-0.157-1.574,0.883c0.009,1.058,0.686,2.317,1.565,2.894  c0.887,0.546,1.547,0.157,1.556-0.918C433.336,283.007,432.668,281.765,431.807,281.21"></path>	<path style="fill:#FFFFFF;" d="M427.479,272.627c-1.019-0.581-1.818-0.188-1.875,0.914c-0.022,1.119,0.752,2.461,1.779,3.081  c1.036,0.595,1.827,0.179,1.858-0.957C429.24,274.542,428.475,273.226,427.479,272.627"></path>	<path style="fill:#FFFFFF;" d="M422.924,265.205c-1.006-0.542-1.819-0.201-1.897,0.809c-0.044,1.018,0.699,2.251,1.718,2.832  c1.027,0.546,1.832,0.184,1.893-0.852C424.655,266.975,423.917,265.764,422.924,265.205"></path>	<path style="fill:#FFFFFF;" d="M420.117,234.759c-0.914-0.476-1.644-0.376-1.701,0.258c-0.026,0.647,0.651,1.53,1.574,2.037  c0.927,0.481,1.653,0.359,1.692-0.288C421.7,236.119,421.013,235.249,420.117,234.759"></path>	<path style="fill:#FFFFFF;" d="M438.718,248.253c-0.708-0.411-1.206-0.28-1.172,0.328c0.065,0.616,0.656,1.434,1.368,1.871  c0.717,0.428,1.215,0.28,1.167-0.346C440.008,249.486,439.418,248.686,438.718,248.253"></path>	<path style="fill:#FFFFFF;" d="M435.049,246.048c-0.752-0.428-1.303-0.293-1.281,0.328c0.048,0.63,0.669,1.469,1.43,1.923  c0.765,0.433,1.311,0.284,1.272-0.35C436.412,247.316,435.796,246.489,435.049,246.048"></path>	<path style="fill:#FFFFFF;" d="M427.728,244.8c-0.883-0.481-1.561-0.323-1.578,0.385c0.009,0.721,0.699,1.67,1.591,2.177  c0.9,0.49,1.569,0.306,1.569-0.42C429.289,246.221,428.602,245.29,427.728,244.8"></path>	<path style="fill:#FFFFFF;" d="M431.424,243.817c-0.844-0.463-1.469-0.323-1.464,0.345c0.031,0.677,0.704,1.587,1.565,2.085  c0.857,0.472,1.478,0.315,1.456-0.376C432.932,245.19,432.263,244.303,431.424,243.817"></path>	<path style="fill:#FFFFFF;" d="M427.554,241.584c-0.944-0.511-1.674-0.367-1.692,0.363c0.009,0.739,0.756,1.74,1.718,2.277  c0.966,0.525,1.687,0.354,1.683-0.393C429.232,243.084,428.494,242.113,427.554,241.584"></path>	<path style="fill:#FFFFFF;" d="M423.819,242.526c-0.984-0.52-1.762-0.354-1.81,0.411c-0.018,0.778,0.738,1.81,1.735,2.365  c1.005,0.533,1.779,0.341,1.805-0.446C425.541,244.078,424.789,243.069,423.819,242.526"></path>	<path style="fill:#FFFFFF;" d="M418.574,258.097c-1.032-0.525-1.888-0.223-1.993,0.73c-0.074,0.97,0.673,2.159,1.722,2.732  c1.058,0.538,1.91,0.21,1.989-0.774C420.34,259.815,419.597,258.652,418.574,258.097"></path>	<path style="fill:#FFFFFF;" d="M418.881,254.005c-1.115-0.577-2.033-0.28-2.142,0.708c-0.07,1.01,0.739,2.26,1.875,2.876  c1.141,0.586,2.059,0.254,2.138-0.756C420.795,255.828,419.987,254.6,418.881,254.005"></path>	<path style="fill:#FFFFFF;" d="M419.163,250.148c-1.211-0.621-2.199-0.336-2.308,0.682c-0.074,1.045,0.809,2.369,2.037,3.034  c1.237,0.638,2.221,0.315,2.295-0.743C421.23,252.076,420.351,250.795,419.163,250.148"></path>	<path style="fill:#FFFFFF;" d="M419.408,246.54c-1.172-0.599-2.125-0.363-2.225,0.59c-0.066,0.975,0.796,2.225,1.989,2.872  c1.198,0.616,2.146,0.336,2.221-0.647C421.423,248.389,420.566,247.169,419.408,246.54"></path>	<path style="fill:#FFFFFF;" d="M419.577,243.413c-1.027-0.529-1.858-0.345-1.941,0.455c-0.048,0.822,0.713,1.888,1.749,2.457  c1.049,0.546,1.875,0.324,1.941-0.498C421.352,245.008,420.596,243.963,419.577,243.413"></path>	<path style="fill:#FFFFFF;" d="M419.808,240.223c-1.11-0.577-2.007-0.402-2.09,0.428c-0.053,0.852,0.774,1.989,1.906,2.601  c1.137,0.59,2.024,0.384,2.081-0.481C421.722,241.924,420.909,240.822,419.808,240.223"></path>	<path style="fill:#FFFFFF;" d="M419.976,237.328c-1.08-0.564-1.95-0.419-2.028,0.359c-0.044,0.8,0.769,1.875,1.867,2.479  c1.106,0.573,1.971,0.402,2.02-0.407C421.851,238.963,421.047,237.914,419.976,237.328"></path>	<path style="fill:#FFFFFF;" d="M412.971,228.466c-0.765-0.389-1.395-0.332-1.478,0.149c-0.057,0.49,0.481,1.185,1.254,1.595  c0.774,0.393,1.403,0.328,1.469-0.162C414.265,229.559,413.727,228.877,412.971,228.466"></path>	<path style="fill:#FFFFFF;" d="M413.124,226.209c-0.7-0.363-1.277-0.323-1.347,0.096c-0.048,0.437,0.446,1.058,1.15,1.438  c0.704,0.367,1.281,0.311,1.342-0.114C414.309,227.193,413.811,226.581,413.124,226.209"></path>	<path style="fill:#FFFFFF;" d="M413.236,224.072c-0.603-0.319-1.102-0.293-1.163,0.057c-0.035,0.363,0.398,0.896,1.006,1.224  c0.608,0.323,1.101,0.288,1.154-0.07C414.268,224.924,413.831,224.4,413.236,224.072"></path>	<path style="fill:#FFFFFF;" d="M413.323,222.008c-0.546-0.288-0.984-0.315-1.045,0.035c-0.035,0.354,0.363,0.782,0.909,1.084  c0.555,0.288,0.996,0.315,1.04-0.039C414.258,222.729,413.861,222.305,413.323,222.008"></path>	<path style="fill:#FFFFFF;" d="M413.438,220.085c-0.507-0.271-0.914-0.31-0.962,0.009c-0.035,0.324,0.337,0.717,0.844,0.997  c0.511,0.267,0.922,0.31,0.962-0.018C414.308,220.749,413.937,220.365,413.438,220.085"></path>	<path style="fill:#FFFFFF;" d="M413.524,218.148c-0.45-0.24-0.804-0.284-0.852-0.013c-0.026,0.28,0.306,0.621,0.752,0.865  c0.455,0.245,0.817,0.289,0.848,0.005C414.288,218.73,413.965,218.398,413.524,218.148"></path>	<path style="fill:#FFFFFF;" d="M413.604,216.44c-0.415-0.223-0.748-0.28-0.787-0.03c-0.022,0.258,0.284,0.564,0.7,0.796  c0.424,0.227,0.752,0.28,0.783,0.022C414.316,216.974,414.015,216.672,413.604,216.44"></path>	<path style="fill:#FFFFFF;" d="M413.68,214.683c-0.363-0.201-0.656-0.258-0.686-0.039c-0.013,0.219,0.249,0.485,0.621,0.691  c0.363,0.201,0.656,0.249,0.682,0.03C414.314,215.151,414.043,214.884,413.68,214.683"></path>	<path style="fill:#FFFFFF;" d="M408.874,256.271c0.809,0.389,1.499,0.149,1.609-0.551c0.079-0.699-0.446-1.539-1.237-1.941  c-0.796-0.385-1.486-0.162-1.613,0.525C407.537,255.004,408.07,255.86,408.874,256.271"></path>	<path style="fill:#FFFFFF;" d="M408.195,260.748c0.769,0.367,1.434,0.114,1.547-0.581c0.088-0.704-0.419-1.521-1.171-1.91  c-0.765-0.359-1.43-0.127-1.556,0.564C406.918,259.516,407.421,260.355,408.195,260.748"></path>	<path style="fill:#FFFFFF;" d="M407.124,265.345c0.765,0.359,1.42,0.083,1.539-0.638c0.096-0.717-0.394-1.547-1.141-1.923  c-0.747-0.354-1.412-0.092-1.543,0.617C405.874,264.126,406.368,264.969,407.124,265.345"></path>	<path style="fill:#FFFFFF;" d="M406.144,270.35c0.712,0.328,1.333,0.044,1.455-0.66c0.096-0.704-0.363-1.499-1.058-1.849  c-0.704-0.323-1.324-0.053-1.455,0.643C404.981,269.187,405.441,270.004,406.144,270.35"></path>	<path style="fill:#FFFFFF;" d="M404.965,275.35c0.664,0.306,1.259,0.009,1.377-0.686c0.096-0.686-0.323-1.451-0.975-1.77  c-0.66-0.297-1.246-0.018-1.377,0.664C403.885,274.253,404.305,275.031,404.965,275.35"></path>	<path style="fill:#FFFFFF;" d="M403.589,281.299c0.625,0.28,1.18-0.035,1.307-0.708c0.096-0.682-0.297-1.421-0.905-1.709  c-0.616-0.28-1.167,0.018-1.298,0.691C402.583,280.259,402.973,281.006,403.589,281.299"></path>	<path style="fill:#FFFFFF;" d="M423.743,239.566c-0.914-0.494-1.631-0.358-1.674,0.324c-0.013,0.695,0.691,1.622,1.618,2.138  c0.931,0.49,1.639,0.336,1.661-0.363C425.343,240.973,424.648,240.064,423.743,239.566"></path>	<path style="fill:#FFFFFF;" d="M423.545,245.819c-0.817-0.428-1.469-0.28-1.512,0.389c-0.013,0.669,0.603,1.547,1.434,2.011  c0.839,0.442,1.486,0.262,1.512-0.415C424.978,247.126,424.358,246.269,423.545,245.819"></path>	<path style="fill:#FFFFFF;" d="M423.475,249.048c-0.936-0.494-1.679-0.288-1.736,0.498c-0.022,0.8,0.686,1.827,1.635,2.356  c0.953,0.503,1.691,0.275,1.726-0.529C425.1,250.573,424.397,249.564,423.475,249.048"></path>	<path style="fill:#FFFFFF;" d="M423.01,260.656c-0.918-0.485-1.653-0.21-1.718,0.665c-0.039,0.887,0.642,1.976,1.574,2.5  c0.931,0.494,1.661,0.197,1.709-0.7C424.593,262.23,423.915,261.163,423.01,260.656"></path>	<path style="fill:#FFFFFF;" d="M438.414,245.077c-0.774-0.441-1.316-0.319-1.272,0.315c0.066,0.638,0.717,1.495,1.491,1.971  c0.787,0.45,1.32,0.311,1.268-0.336C439.817,246.384,439.174,245.536,438.414,245.077"></path>	<path style="fill:#FFFFFF;" d="M427.157,278.192c-0.848-0.481-1.517-0.127-1.574,0.839c-0.017,0.984,0.625,2.138,1.478,2.658  c0.861,0.494,1.53,0.122,1.56-0.87C428.63,279.836,427.996,278.7,427.157,278.192"></path>	<path style="fill:#FFFFFF;" d="M431.864,286.984c-0.804-0.507-1.43-0.127-1.456,0.887c0,1.023,0.625,2.234,1.438,2.78  c0.817,0.52,1.43,0.127,1.438-0.914C433.276,288.707,432.66,287.513,431.864,286.984"></path>	<path style="fill:#FFFFFF;" d="M422.551,270.043c-0.936-0.503-1.696-0.153-1.77,0.822c-0.053,0.992,0.638,2.168,1.582,2.706  c0.953,0.507,1.709,0.136,1.77-0.861C424.159,271.718,423.477,270.568,422.551,270.043"></path>	<path style="fill:#FFFFFF;" d="M418.199,262.823c-0.923-0.472-1.683-0.17-1.788,0.717c-0.065,0.909,0.595,1.998,1.526,2.505  c0.944,0.481,1.709,0.153,1.788-0.761C419.773,264.388,419.113,263.317,418.199,262.823"></path>	<path style="fill:#FFFFFF;" d="M413.978,255.785c-1.014-0.507-1.867-0.219-2.002,0.686c-0.101,0.918,0.607,2.041,1.63,2.579  c1.036,0.507,1.888,0.197,1.997-0.73C415.678,257.403,414.975,256.31,413.978,255.785"></path>	<path style="fill:#FFFFFF;" d="M423.18,256.712c-0.852-0.45-1.543-0.214-1.591,0.568c-0.035,0.796,0.608,1.779,1.473,2.264  c0.874,0.468,1.547,0.21,1.591-0.59C424.662,258.154,424.032,257.188,423.18,256.712"></path>	<path style="fill:#FFFFFF;" d="M420.245,232.278c-0.804-0.419-1.443-0.341-1.486,0.188c-0.026,0.546,0.577,1.311,1.39,1.749  c0.813,0.433,1.438,0.341,1.478-0.205C421.63,233.463,421.031,232.715,420.245,232.278"></path>	<path style="fill:#FFFFFF;" d="M434.845,243.203c-0.634-0.358-1.093-0.258-1.067,0.245c0.044,0.503,0.559,1.185,1.198,1.561  c0.642,0.363,1.097,0.249,1.067-0.258C435.994,244.243,435.474,243.57,434.845,243.203"></path>	<path style="fill:#FFFFFF;" d="M427.751,251.719c-0.726-0.393-1.277-0.227-1.294,0.402c0.004,0.634,0.559,1.443,1.281,1.862  c0.73,0.394,1.276,0.219,1.285-0.424C429.01,252.925,428.455,252.125,427.751,251.719"></path>	<path style="fill:#FFFFFF;" d="M427.403,267.871c-0.892-0.498-1.587-0.188-1.631,0.734c-0.013,0.94,0.656,2.072,1.56,2.605  c0.905,0.507,1.596,0.184,1.617-0.769C428.946,269.506,428.282,268.391,427.403,267.871"></path>	<path style="fill:#FFFFFF;" d="M423.337,252.947c-0.831-0.446-1.499-0.236-1.552,0.494c-0.022,0.743,0.603,1.678,1.447,2.146  c0.844,0.455,1.499,0.232,1.539-0.52C424.779,254.324,424.159,253.406,423.337,252.947"></path>	<path style="fill:#FFFFFF;" d="M431.894,257.764c-0.809-0.454-1.412-0.236-1.416,0.525c0.018,0.769,0.66,1.744,1.473,2.234  c0.813,0.472,1.416,0.24,1.408-0.542C433.319,259.207,432.69,258.245,431.894,257.764"></path>	<path style="fill:#FFFFFF;" d="M435.373,296.845c-0.656-0.463-1.145-0.122-1.15,0.791c0.013,0.927,0.533,2.028,1.18,2.522  c0.66,0.476,1.137,0.127,1.137-0.809C436.519,298.419,436.007,297.326,435.373,296.845"></path>	<path style="fill:#FFFFFF;" d="M431.553,247.066c-0.748-0.415-1.307-0.271-1.303,0.35c0.026,0.625,0.625,1.456,1.377,1.893  c0.761,0.424,1.311,0.267,1.294-0.371C432.887,248.308,432.292,247.499,431.553,247.066"></path>	<path style="fill:#FFFFFF;" d="M416.483,230.37c-0.73-0.38-1.329-0.319-1.386,0.153c-0.035,0.485,0.498,1.158,1.233,1.56  c0.739,0.385,1.333,0.31,1.381-0.175C417.733,231.428,417.204,230.759,416.483,230.37"></path>	<path style="fill:#FFFFFF;" d="M423.857,231.911c-0.695-0.367-1.233-0.31-1.255,0.149c0,0.468,0.538,1.132,1.237,1.517  c0.708,0.371,1.241,0.31,1.254-0.157C425.08,232.947,424.547,232.295,423.857,231.911"></path>	<path style="fill:#FFFFFF;" d="M431.313,241.23c-0.582-0.319-1.006-0.236-0.997,0.21c0.026,0.442,0.485,1.045,1.067,1.381  c0.586,0.324,1.014,0.232,0.996-0.223C432.353,242.148,431.89,241.557,431.313,241.23"></path>	<path style="fill:#FFFFFF;" d="M427.571,255.42c-0.734-0.402-1.303-0.21-1.329,0.459c0,0.677,0.568,1.534,1.311,1.971  c0.752,0.415,1.316,0.205,1.324-0.485C428.869,256.688,428.305,255.844,427.571,255.42"></path>	<path style="fill:#FFFFFF;" d="M431.664,254.054c-0.643-0.358-1.119-0.205-1.119,0.372c0.022,0.577,0.525,1.324,1.163,1.705  c0.647,0.367,1.119,0.201,1.11-0.385C432.792,255.16,432.289,254.426,431.664,254.054"></path>	<path style="fill:#FFFFFF;" d="M435.838,260.263c-0.708-0.424-1.228-0.223-1.215,0.477c0.03,0.713,0.612,1.609,1.329,2.063  c0.717,0.437,1.233,0.223,1.206-0.503C437.11,261.588,436.538,260.705,435.838,260.263"></path>	<path style="fill:#FFFFFF;" d="M442.223,250.626c-0.538-0.323-0.914-0.214-0.87,0.263c0.061,0.485,0.52,1.128,1.058,1.473  c0.546,0.328,0.914,0.214,0.861-0.275C443.21,251.601,442.751,250.967,442.223,250.626"></path>	<path style="fill:#FFFFFF;" d="M423.869,229.728c-0.612-0.328-1.084-0.293-1.097,0.101c0,0.398,0.472,0.966,1.089,1.312  c0.621,0.332,1.093,0.284,1.097-0.118C424.949,230.624,424.477,230.069,423.869,229.728"></path>	<path style="fill:#FFFFFF;" d="M423.833,234.402c-0.643-0.341-1.141-0.271-1.163,0.17c0,0.446,0.494,1.067,1.137,1.425  c0.651,0.345,1.145,0.271,1.158-0.179C424.952,235.369,424.471,234.757,423.833,234.402"></path>	<path style="fill:#FFFFFF;" d="M436.061,290.848c-0.743-0.503-1.298-0.149-1.303,0.835c0.022,0.992,0.612,2.181,1.355,2.727  c0.748,0.525,1.298,0.166,1.289-0.852C437.368,292.557,436.786,291.381,436.061,290.848"></path>	<path style="fill:#FFFFFF;" d="M420.342,230.087c-0.634-0.332-1.137-0.284-1.171,0.122c-0.013,0.415,0.463,1.006,1.106,1.355  c0.638,0.341,1.145,0.284,1.158-0.136C421.448,231.018,420.972,230.437,420.342,230.087"></path>	<path style="fill:#FFFFFF;" d="M427.564,248.289c-0.63-0.341-1.115-0.21-1.128,0.315c0.005,0.533,0.494,1.228,1.128,1.587  c0.634,0.345,1.119,0.21,1.128-0.332C428.674,249.325,428.189,248.643,427.564,248.289"></path>	<path style="fill:#FFFFFF;" d="M427.523,239.252c-0.52-0.284-0.927-0.21-0.931,0.175c0.009,0.393,0.424,0.927,0.953,1.224  c0.533,0.293,0.931,0.214,0.931-0.188C428.459,240.07,428.048,239.545,427.523,239.252"></path>	<path style="fill:#FFFFFF;" d="M427.473,263.625c-0.63-0.354-1.119-0.153-1.145,0.477c-0.009,0.63,0.477,1.403,1.11,1.779  c0.638,0.358,1.128,0.149,1.141-0.49C428.579,264.757,428.098,263.988,427.473,263.625"></path>	<path style="fill:#FFFFFF;" d="M431.927,275.947c-0.721-0.441-1.281-0.153-1.298,0.673c0.009,0.831,0.573,1.836,1.298,2.304  c0.738,0.45,1.285,0.149,1.285-0.691C433.198,277.394,432.643,276.401,431.927,275.947"></path>	<path style="fill:#FFFFFF;" d="M423.787,237.276c-0.485-0.253-0.857-0.192-0.866,0.149c-0.004,0.354,0.359,0.826,0.839,1.093  c0.485,0.258,0.861,0.188,0.874-0.162C424.626,238.01,424.263,237.538,423.787,237.276"></path>	<path style="fill:#FFFFFF;" d="M431.552,292.891c-0.573-0.367-1.019-0.074-1.045,0.691c0,0.774,0.442,1.665,1.018,2.059  c0.581,0.372,1.027,0.07,1.041-0.704C432.562,294.163,432.125,293.276,431.552,292.891"></path>	<path style="fill:#FFFFFF;" d="M435.271,249.467c-0.603-0.341-1.036-0.223-1.019,0.297c0.039,0.52,0.525,1.202,1.128,1.569  c0.612,0.35,1.045,0.223,1.019-0.31C436.35,250.499,435.865,249.822,435.271,249.467"></path>	<path style="fill:#FFFFFF;" d="M427.479,231.772c-0.551-0.297-0.962-0.258-0.962,0.105c0.013,0.363,0.45,0.887,1.001,1.198  c0.555,0.297,0.966,0.249,0.962-0.122C428.454,232.594,428.026,232.078,427.479,231.772"></path>	<path style="fill:#FFFFFF;" d="M449.16,252.211c-0.437-0.284-0.721-0.197-0.665,0.219c0.07,0.406,0.455,0.957,0.892,1.259  c0.437,0.289,0.721,0.197,0.66-0.227C449.977,253.051,449.588,252.504,449.16,252.211"></path>	<path style="fill:#FFFFFF;" d="M439.857,262.907c-0.63-0.398-1.075-0.21-1.054,0.442c0.048,0.66,0.573,1.495,1.206,1.919  c0.634,0.407,1.08,0.214,1.045-0.455C441.003,264.149,440.482,263.318,439.857,262.907"></path>	<path style="fill:#FFFFFF;" d="M437.918,303.236c-0.529-0.441-0.914-0.131-0.909,0.717c0.026,0.857,0.45,1.88,0.975,2.352  c0.529,0.455,0.914,0.144,0.896-0.726C438.849,304.714,438.434,303.691,437.918,303.236"></path>	<path style="fill:#FFFFFF;" d="M426.967,284.071c-0.638-0.363-1.141-0.074-1.18,0.686c-0.013,0.765,0.455,1.657,1.097,2.046  c0.638,0.372,1.137,0.07,1.167-0.704C428.06,285.335,427.592,284.452,426.967,284.071"></path>	<path style="fill:#FFFFFF;" d="M435.672,256.703c-0.45-0.267-0.787-0.149-0.769,0.276c0.026,0.433,0.389,0.979,0.844,1.263  c0.459,0.275,0.787,0.149,0.774-0.284C436.485,257.525,436.118,256.974,435.672,256.703"></path>	<path style="fill:#FFFFFF;" d="M427.274,229.538c-0.468-0.249-0.813-0.262-0.813,0.07c0.018,0.332,0.38,0.73,0.852,0.996  c0.468,0.253,0.822,0.258,0.817-0.079C428.109,230.198,427.737,229.801,427.274,229.538"></path>	<path style="fill:#FFFFFF;" d="M430.607,231.537c-0.385-0.21-0.665-0.21-0.656,0.066c0.026,0.28,0.332,0.612,0.717,0.831  c0.38,0.21,0.664,0.21,0.651-0.066C431.289,232.084,430.987,231.752,430.607,231.537"></path>	<path style="fill:#FFFFFF;" d="M422.307,276.019c-0.568-0.306-1.036-0.07-1.084,0.555c-0.026,0.625,0.385,1.355,0.953,1.683  c0.577,0.306,1.036,0.061,1.075-0.573C423.277,277.059,422.866,276.338,422.307,276.019"></path>	<path style="fill:#FFFFFF;" d="M417.633,268.212c-0.56-0.284-1.027-0.074-1.089,0.494c-0.044,0.568,0.354,1.241,0.914,1.547  c0.573,0.284,1.036,0.074,1.089-0.498C418.582,269.178,418.184,268.514,417.633,268.212"></path>	<path style="fill:#FFFFFF;" d="M413.308,260.973c-0.555-0.275-1.027-0.096-1.106,0.42c-0.048,0.525,0.332,1.15,0.887,1.443  c0.559,0.275,1.032,0.083,1.097-0.437C414.23,261.874,413.854,261.257,413.308,260.973"></path>	<path style="fill:#FFFFFF;" d="M430.402,229.423c-0.411-0.223-0.708-0.24-0.695,0.053c0.026,0.288,0.359,0.638,0.765,0.865  c0.411,0.227,0.712,0.236,0.695-0.057C431.136,229.996,430.808,229.65,430.402,229.423"></path>	<path style="fill:#FFFFFF;" d="M433.015,229.485c-0.354-0.192-0.612-0.201-0.599,0.048c0.026,0.249,0.301,0.551,0.66,0.752  c0.354,0.192,0.616,0.205,0.599-0.048C433.653,229.988,433.374,229.687,433.015,229.485"></path>	<path style="fill:#FFFFFF;" d="M443.819,265.94c-0.398-0.267-0.678-0.144-0.652,0.293c0.044,0.442,0.376,1.006,0.778,1.29  c0.402,0.267,0.677,0.144,0.647-0.306C444.554,266.775,444.217,266.22,443.819,265.94"></path>	<path style="fill:#FFFFFF;" d="M440.159,266.945c-0.503-0.323-0.866-0.162-0.848,0.389c0.044,0.559,0.455,1.254,0.966,1.6  c0.507,0.337,0.865,0.166,0.839-0.398C441.068,267.977,440.662,267.29,440.159,266.945"></path>	<path style="fill:#FFFFFF;" d="M436.053,264.389c-0.468-0.288-0.813-0.144-0.804,0.346c0.022,0.494,0.402,1.11,0.87,1.412  c0.477,0.293,0.817,0.14,0.804-0.359C436.896,265.294,436.516,264.687,436.053,264.389"></path>	<path style="fill:#FFFFFF;" d="M431.855,261.909c-0.442-0.253-0.765-0.122-0.769,0.311c0.004,0.437,0.35,0.979,0.787,1.246  c0.442,0.258,0.765,0.118,0.769-0.319C432.628,262.709,432.283,262.172,431.855,261.909"></path>	<path style="fill:#FFFFFF;" d="M427.557,259.42c-0.45-0.245-0.791-0.113-0.804,0.311c0,0.424,0.341,0.953,0.787,1.215  c0.45,0.249,0.791,0.113,0.8-0.315C428.339,260.202,427.998,259.682,427.557,259.42"></path>	<path style="fill:#FFFFFF;" d="M444.038,269.78c-0.407-0.28-0.686-0.149-0.66,0.324c0.039,0.468,0.384,1.062,0.782,1.351  c0.402,0.284,0.686,0.149,0.656-0.328C444.777,270.654,444.441,270.068,444.038,269.78"></path>	<path style="fill:#FFFFFF;" d="M448.099,272.845c-0.354-0.267-0.599-0.144-0.568,0.293c0.043,0.446,0.35,1.006,0.704,1.285  c0.363,0.275,0.603,0.149,0.568-0.301C448.755,273.676,448.449,273.121,448.099,272.845"></path>	<path style="fill:#FFFFFF;" d="M427.418,234.148c-0.446-0.245-0.787-0.227-0.791,0.105c0.018,0.341,0.372,0.747,0.822,0.996  c0.45,0.249,0.796,0.227,0.787-0.114C428.218,234.799,427.868,234.397,427.418,234.148"></path>	<path style="fill:#FFFFFF;" d="M400.532,244.921c-1.054-0.494-2.024-0.253-2.247,0.568c-0.197,0.857,0.477,1.91,1.556,2.435  c1.08,0.503,2.046,0.232,2.247-0.612C402.245,246.464,401.581,245.441,400.532,244.921"></path>	<path style="fill:#FFFFFF;" d="M395.951,242.338c-1.338-0.612-2.601-0.323-2.924,0.691c-0.289,1.049,0.533,2.361,1.906,3.016  c1.381,0.625,2.636,0.288,2.924-0.756C398.102,244.244,397.276,242.98,395.951,242.338"></path>	<path style="fill:#FFFFFF;" d="M365.257,209.922c0.717,0.249,1.071,0.695,0.822,1.041c-0.267,0.336-1.036,0.411-1.77,0.179  c-0.734-0.249-1.097-0.686-0.831-1.041C363.758,209.769,364.532,209.69,365.257,209.922"></path>	<path style="fill:#FFFFFF;" d="M370.315,211.493c0.857,0.328,1.298,0.901,1.018,1.333c-0.302,0.419-1.202,0.49-2.085,0.179  c-0.879-0.336-1.325-0.9-1.023-1.337C368.54,211.257,369.449,211.183,370.315,211.493"></path>	<path style="fill:#FFFFFF;" d="M368.398,251.571c0.809,0.328,1.202,1.062,0.914,1.727c-0.315,0.66-1.189,0.944-2.028,0.634  c-0.826-0.328-1.215-1.089-0.905-1.753C366.71,251.531,367.581,251.273,368.398,251.571"></path>	<path style="fill:#FFFFFF;" d="M375.65,247.934c1.093,0.459,1.665,1.469,1.329,2.365c-0.38,0.887-1.526,1.233-2.666,0.791  c-1.128-0.472-1.692-1.517-1.324-2.409C373.39,247.817,374.544,247.497,375.65,247.934"></path>	<path style="fill:#FFFFFF;" d="M382.93,245.829c1.154,0.511,1.783,1.591,1.477,2.514c-0.345,0.922-1.504,1.255-2.697,0.765  c-1.18-0.525-1.818-1.63-1.482-2.557C380.6,245.65,381.767,245.349,382.93,245.829"></path>	<path style="fill:#FFFFFF;" d="M396.539,222.596c0.97,0.485,1.595,1.307,1.434,1.897c-0.188,0.594-1.097,0.682-2.102,0.201  c-1.006-0.503-1.626-1.329-1.438-1.928C394.642,222.194,395.551,222.124,396.539,222.596"></path>	<path style="fill:#FFFFFF;" d="M373.496,215.618c0.914,0.354,1.399,0.988,1.128,1.473c-0.302,0.481-1.241,0.59-2.177,0.253  c-0.935-0.363-1.42-0.992-1.132-1.491C371.639,215.387,372.578,215.282,373.496,215.618"></path>	<path style="fill:#FFFFFF;" d="M378.184,217.411c0.931,0.385,1.442,1.067,1.189,1.587c-0.284,0.507-1.22,0.616-2.186,0.236  c-0.953-0.398-1.469-1.08-1.189-1.6C376.296,217.131,377.248,217.04,378.184,217.411"></path>	<path style="fill:#FFFFFF;" d="M385.975,223.711c1.014,0.468,1.609,1.285,1.372,1.91c-0.271,0.616-1.268,0.743-2.317,0.297  c-1.049-0.476-1.639-1.303-1.377-1.936C383.942,223.384,384.952,223.265,385.975,223.711"></path>	<path style="fill:#FFFFFF;" d="M382.718,219.176c0.996,0.442,1.565,1.206,1.32,1.784c-0.28,0.564-1.268,0.673-2.304,0.245  c-1.027-0.45-1.604-1.228-1.324-1.805C380.707,218.849,381.708,218.748,382.718,219.176"></path>	<path style="fill:#FFFFFF;" d="M387.235,221.118c1.049,0.49,1.665,1.329,1.438,1.954c-0.267,0.621-1.289,0.734-2.387,0.258  c-1.08-0.503-1.709-1.351-1.438-1.985C385.142,220.742,386.169,220.651,387.235,221.118"></path>	<path style="fill:#FFFFFF;" d="M390.45,225.634c1.097,0.52,1.757,1.438,1.534,2.133c-0.267,0.691-1.32,0.839-2.457,0.328  c-1.128-0.529-1.792-1.464-1.534-2.164C388.277,225.259,389.339,225.132,390.45,225.634"></path>	<path style="fill:#FFFFFF;" d="M389.673,243.996c1.132,0.529,1.796,1.596,1.547,2.492c-0.297,0.905-1.403,1.206-2.579,0.695  c-1.163-0.538-1.827-1.635-1.543-2.535C387.418,243.773,388.528,243.493,389.673,243.996"></path>	<path style="fill:#FFFFFF;" d="M390.84,240.226c1.224,0.573,1.945,1.705,1.687,2.632c-0.297,0.927-1.486,1.22-2.745,0.664  c-1.259-0.586-1.985-1.744-1.692-2.679C388.423,239.943,389.612,239.68,390.84,240.226"></path>	<path style="fill:#FFFFFF;" d="M391.887,236.681c1.311,0.63,2.098,1.814,1.836,2.776c-0.306,0.962-1.569,1.241-2.933,0.638  c-1.355-0.638-2.146-1.862-1.84-2.828C389.299,236.336,390.563,236.087,391.887,236.681"></path>	<path style="fill:#FFFFFF;" d="M392.949,233.376c1.268,0.612,2.041,1.74,1.801,2.632c-0.289,0.9-1.499,1.132-2.82,0.542  c-1.311-0.621-2.09-1.783-1.805-2.684C390.449,232.996,391.664,232.795,392.949,233.376"></path>	<path style="fill:#FFFFFF;" d="M393.856,230.499c1.114,0.538,1.796,1.512,1.591,2.264c-0.245,0.752-1.298,0.931-2.443,0.402  c-1.145-0.546-1.827-1.539-1.591-2.299C391.683,230.137,392.737,229.984,393.856,230.499"></path>	<path style="fill:#FFFFFF;" d="M394.895,227.594c1.198,0.59,1.941,1.618,1.731,2.404c-0.254,0.778-1.382,0.94-2.614,0.367  c-1.233-0.599-1.989-1.652-1.736-2.439C392.56,227.17,393.688,227.034,394.895,227.594"></path>	<path style="fill:#FFFFFF;" d="M395.787,224.946c1.163,0.577,1.893,1.565,1.696,2.299c-0.236,0.726-1.32,0.857-2.522,0.293  c-1.202-0.581-1.936-1.591-1.705-2.33C393.523,224.501,394.615,224.396,395.787,224.946"></path>	<path style="fill:#FFFFFF;" d="M405.066,224.345c0.769,0.407,1.294,1.075,1.211,1.552c-0.114,0.477-0.791,0.538-1.587,0.136  c-0.791-0.411-1.311-1.093-1.211-1.565C403.602,224,404.288,223.952,405.066,224.345"></path>	<path style="fill:#FFFFFF;" d="M405.684,222.216c0.704,0.376,1.189,0.975,1.114,1.399c-0.096,0.415-0.717,0.459-1.438,0.088  c-0.721-0.376-1.206-0.992-1.119-1.412C404.355,221.88,404.971,221.854,405.684,222.216"></path>	<path style="fill:#FFFFFF;" d="M406.294,220.228c0.612,0.332,1.023,0.844,0.966,1.198c-0.083,0.345-0.612,0.367-1.237,0.048  c-0.621-0.332-1.041-0.852-0.971-1.206C405.145,219.93,405.673,219.913,406.294,220.228"></path>	<path style="fill:#FFFFFF;" d="M406.848,218.316c0.551,0.297,0.935,0.717,0.879,1.062c-0.083,0.345-0.551,0.315-1.115,0.022  c-0.559-0.302-0.953-0.73-0.883-1.075C405.821,217.984,406.289,218.027,406.848,218.316"></path>	<path style="fill:#FFFFFF;" d="M407.367,216.583c0.511,0.276,0.874,0.66,0.822,0.975c-0.07,0.31-0.507,0.267-1.027-0.009  c-0.52-0.275-0.883-0.664-0.822-0.979C406.422,216.264,406.851,216.313,407.367,216.583"></path>	<path style="fill:#FFFFFF;" d="M407.847,214.935c0.454,0.249,0.773,0.582,0.73,0.852c-0.066,0.267-0.442,0.223-0.905-0.022  c-0.455-0.253-0.783-0.586-0.726-0.857C407.016,214.647,407.392,214.695,407.847,214.935"></path>	<path style="fill:#FFFFFF;" d="M408.27,213.543c0.415,0.232,0.717,0.533,0.673,0.783c-0.057,0.245-0.407,0.188-0.831-0.039  c-0.428-0.236-0.726-0.542-0.678-0.787C407.492,213.259,407.846,213.312,408.27,213.543"></path>	<path style="fill:#FFFFFF;" d="M408.702,212.131c0.371,0.206,0.634,0.468,0.599,0.682c-0.048,0.205-0.354,0.153-0.726-0.052  c-0.376-0.21-0.638-0.468-0.603-0.682C408.025,211.873,408.326,211.93,408.702,212.131"></path>	<path style="fill:#FFFFFF;" d="M398.987,251.422c-0.826-0.406-1.338-1.233-1.185-1.919c0.179-0.664,0.936-0.879,1.753-0.503  c0.809,0.402,1.325,1.215,1.189,1.893C400.578,251.58,399.826,251.803,398.987,251.422"></path>	<path style="fill:#FFFFFF;" d="M398.098,255.789c-0.796-0.38-1.277-1.193-1.123-1.88c0.179-0.669,0.905-0.9,1.691-0.542  c0.778,0.376,1.263,1.176,1.119,1.862C399.619,255.908,398.898,256.152,398.098,255.789"></path>	<path style="fill:#FFFFFF;" d="M397.255,260.422c-0.783-0.371-1.255-1.198-1.093-1.906c0.184-0.695,0.909-0.944,1.687-0.599  c0.769,0.367,1.237,1.176,1.093,1.88C398.772,260.501,398.046,260.776,397.255,260.422"></path>	<path style="fill:#FFFFFF;" d="M396.482,265.441c-0.734-0.341-1.167-1.136-1.01-1.831c0.188-0.682,0.87-0.949,1.604-0.625  c0.717,0.336,1.145,1.115,1.001,1.805C397.911,265.481,397.225,265.769,396.482,265.441"></path>	<path style="fill:#FFFFFF;" d="M395.475,270.893c-0.686-0.315-1.08-1.079-0.923-1.766c0.184-0.669,0.831-0.948,1.508-0.656  c0.677,0.315,1.075,1.062,0.931,1.744C396.817,270.884,396.17,271.181,395.475,270.893"></path>	<path style="fill:#FFFFFF;" d="M394.414,277.095c-0.647-0.284-1.001-1.027-0.844-1.705c0.175-0.665,0.8-0.957,1.438-0.686  c0.634,0.284,0.996,1.01,0.844,1.679C395.677,277.056,395.06,277.366,394.414,277.095"></path>	<path style="fill:#FFFFFF;" d="M391.563,223.143c1.014,0.485,1.63,1.325,1.429,1.941c-0.227,0.612-1.198,0.726-2.238,0.249  c-1.044-0.494-1.661-1.346-1.438-1.967C389.579,222.767,390.545,222.675,391.563,223.143"></path>	<path style="fill:#FFFFFF;" d="M389.275,228.601c0.918,0.433,1.464,1.206,1.268,1.81c-0.227,0.599-1.11,0.739-2.055,0.324  c-0.94-0.437-1.491-1.233-1.272-1.836C387.465,228.317,388.348,228.186,389.275,228.601"></path>	<path style="fill:#FFFFFF;" d="M388.223,231.481c1.049,0.494,1.665,1.399,1.434,2.116c-0.267,0.713-1.289,0.896-2.373,0.424  c-1.084-0.494-1.7-1.421-1.438-2.142C386.137,231.188,387.16,231.022,388.223,231.481"></path>	<path style="fill:#FFFFFF;" d="M384.352,241.832c1.036,0.468,1.626,1.416,1.364,2.221c-0.301,0.795-1.342,1.058-2.417,0.612  c-1.067-0.476-1.652-1.451-1.368-2.255C382.254,241.631,383.298,241.386,384.352,241.832"></path>	<path style="fill:#FFFFFF;" d="M375.014,213.133c0.975,0.407,1.486,1.089,1.198,1.591c-0.319,0.494-1.325,0.573-2.33,0.179  c-1.001-0.407-1.521-1.097-1.202-1.604C373.021,212.819,374.035,212.74,375.014,213.133"></path>	<path style="fill:#FFFFFF;" d="M373.726,252.821c1.023,0.433,1.543,1.408,1.211,2.282c-0.372,0.874-1.46,1.237-2.514,0.826  c-1.049-0.437-1.565-1.438-1.202-2.321C371.615,252.756,372.69,252.419,373.726,252.821"></path>	<path style="fill:#FFFFFF;" d="M366.461,255.725c1.036,0.411,1.521,1.386,1.132,2.291c-0.424,0.892-1.56,1.285-2.631,0.892  c-1.062-0.411-1.543-1.421-1.123-2.321C364.28,255.712,365.412,255.345,366.461,255.725"></path>	<path style="fill:#FFFFFF;" d="M381.266,250.355c1.071,0.472,1.652,1.504,1.355,2.409c-0.341,0.896-1.43,1.246-2.54,0.796  c-1.101-0.485-1.683-1.543-1.351-2.452C379.094,250.229,380.182,249.91,381.266,250.355"></path>	<path style="fill:#FFFFFF;" d="M388.266,248.354c1.014,0.463,1.604,1.447,1.359,2.291c-0.275,0.839-1.281,1.145-2.321,0.695  c-1.04-0.472-1.63-1.482-1.364-2.33C386.237,248.188,387.238,247.913,388.266,248.354"></path>	<path style="fill:#FFFFFF;" d="M394.733,246.389c1.066,0.511,1.718,1.552,1.512,2.422c-0.249,0.874-1.268,1.171-2.369,0.678  c-1.102-0.525-1.748-1.587-1.508-2.465C392.634,246.17,393.648,245.904,394.733,246.389"></path>	<path style="fill:#FFFFFF;" d="M385.669,238.189c0.97,0.442,1.53,1.307,1.294,2.024c-0.271,0.713-1.233,0.927-2.229,0.507  c-0.992-0.45-1.547-1.333-1.289-2.046C383.737,237.975,384.694,237.774,385.669,238.189"></path>	<path style="fill:#FFFFFF;" d="M397.264,220.33c0.852,0.433,1.399,1.141,1.268,1.639c-0.166,0.498-0.953,0.555-1.832,0.131  c-0.879-0.442-1.425-1.158-1.272-1.661C395.608,219.959,396.399,219.906,397.264,220.33"></path>	<path style="fill:#FFFFFF;" d="M379.572,215.241c0.769,0.341,1.185,0.909,0.975,1.32c-0.236,0.402-1.014,0.459-1.805,0.122  c-0.787-0.341-1.206-0.914-0.979-1.329C378.016,214.961,378.794,214.908,379.572,215.241"></path>	<path style="fill:#FFFFFF;" d="M383.432,229.665c0.835,0.376,1.311,1.067,1.097,1.618c-0.236,0.542-1.067,0.69-1.923,0.328  c-0.857-0.376-1.338-1.079-1.11-1.635C381.754,229.446,382.588,229.306,383.432,229.665"></path>	<path style="fill:#FFFFFF;" d="M377.403,243.622c1.058,0.455,1.622,1.412,1.307,2.229c-0.341,0.817-1.434,1.119-2.527,0.686  c-1.088-0.463-1.657-1.438-1.311-2.264C375.239,243.478,376.337,243.194,377.403,243.622"></path>	<path style="fill:#FFFFFF;" d="M386.895,234.951c0.935,0.433,1.486,1.255,1.263,1.923c-0.249,0.656-1.171,0.852-2.133,0.433  c-0.966-0.437-1.508-1.276-1.272-1.949C385.028,234.715,385.941,234.54,386.895,234.951"></path>	<path style="fill:#FFFFFF;" d="M377.051,230.676c0.983,0.411,1.517,1.206,1.237,1.858c-0.319,0.642-1.324,0.835-2.339,0.441  c-1.006-0.419-1.539-1.228-1.233-1.875C375.049,230.466,376.059,230.287,377.051,230.676"></path>	<path style="fill:#FFFFFF;" d="M360.141,258.845c0.734,0.271,1.049,0.958,0.734,1.6c-0.345,0.647-1.176,0.948-1.928,0.691  c-0.748-0.271-1.058-0.975-0.726-1.626C358.581,258.88,359.407,258.596,360.141,258.845"></path>	<path style="fill:#FFFFFF;" d="M381.32,221.839c0.892,0.394,1.39,1.084,1.163,1.618c-0.258,0.52-1.145,0.634-2.068,0.258  c-0.914-0.393-1.416-1.093-1.167-1.626C379.523,221.577,380.419,221.472,381.32,221.839"></path>	<path style="fill:#FFFFFF;" d="M401.235,222.417c0.756,0.398,1.259,1.041,1.158,1.495c-0.127,0.45-0.813,0.507-1.591,0.122  c-0.769-0.398-1.272-1.049-1.154-1.508C399.788,222.085,400.47,222.041,401.235,222.417"></path>	<path style="fill:#FFFFFF;" d="M390.089,214.838c0.577,0.227,0.962,0.638,0.892,0.953c-0.092,0.306-0.608,0.38-1.198,0.157  c-0.59-0.232-0.975-0.647-0.892-0.962C388.988,214.681,389.503,214.615,390.089,214.838"></path>	<path style="fill:#FFFFFF;" d="M383.818,217.014c0.677,0.306,1.066,0.822,0.905,1.202c-0.188,0.363-0.857,0.424-1.556,0.131  c-0.695-0.315-1.084-0.835-0.909-1.211C382.454,216.774,383.127,216.717,383.818,217.014"></path>	<path style="fill:#FFFFFF;" d="M381.969,232.962c0.861,0.376,1.342,1.106,1.114,1.701c-0.245,0.586-1.11,0.756-2.002,0.393  c-0.883-0.389-1.373-1.132-1.124-1.726C380.224,232.756,381.09,232.595,381.969,232.962"></path>	<path style="fill:#FFFFFF;" d="M378.577,227.772c0.769,0.328,1.193,0.944,0.975,1.43c-0.236,0.485-1.014,0.616-1.805,0.306  c-0.787-0.332-1.211-0.957-0.979-1.443C377.016,227.589,377.798,227.462,378.577,227.772"></path>	<path style="fill:#FFFFFF;" d="M371.883,228.881c0.914,0.354,1.381,1.058,1.097,1.635c-0.315,0.568-1.259,0.748-2.194,0.407  c-0.927-0.354-1.408-1.062-1.102-1.648C370.012,228.719,370.965,228.544,371.883,228.881"></path>	<path style="fill:#FFFFFF;" d="M368.747,214.14c0.721,0.258,1.093,0.734,0.861,1.106c-0.253,0.367-1.01,0.459-1.748,0.219  c-0.739-0.267-1.119-0.734-0.87-1.115C367.257,213.991,368.017,213.899,368.747,214.14"></path>	<path style="fill:#FFFFFF;" d="M391.077,212.844c0.621,0.249,1.04,0.691,0.966,1.014c-0.092,0.323-0.651,0.389-1.289,0.144  c-0.638-0.253-1.058-0.695-0.97-1.023C389.884,212.661,390.439,212.604,391.077,212.844"></path>	<path style="fill:#FFFFFF;" d="M393.292,218.499c0.769,0.38,1.246,0.997,1.106,1.434c-0.171,0.433-0.892,0.476-1.679,0.114  c-0.787-0.384-1.263-1.01-1.102-1.447C391.797,218.172,392.518,218.132,393.292,218.499"></path>	<path style="fill:#FFFFFF;" d="M394.196,216.355c0.677,0.35,1.11,0.901,1.01,1.281c-0.127,0.38-0.743,0.407-1.438,0.066  c-0.686-0.346-1.123-0.905-1.005-1.29C392.897,216.045,393.518,216.023,394.196,216.355"></path>	<path style="fill:#FFFFFF;" d="M384.603,226.887c0.73,0.328,1.149,0.927,0.975,1.39c-0.205,0.463-0.918,0.568-1.67,0.249  c-0.738-0.336-1.163-0.935-0.97-1.403C383.143,226.673,383.864,226.568,384.603,226.887"></path>	<path style="fill:#FFFFFF;" d="M388.193,219.077c0.608,0.284,0.957,0.756,0.83,1.097c-0.149,0.336-0.73,0.385-1.342,0.109  c-0.612-0.284-0.971-0.76-0.831-1.101C387.008,218.85,387.59,218.802,388.193,219.077"></path>	<path style="fill:#FFFFFF;" d="M378.979,240.003c0.747,0.319,1.149,0.984,0.94,1.534c-0.24,0.546-1.001,0.73-1.766,0.424  c-0.761-0.328-1.167-0.997-0.94-1.547C377.462,239.872,378.223,239.698,378.979,240.003"></path>	<path style="fill:#FFFFFF;" d="M392.276,221.069c0.529,0.263,0.857,0.691,0.756,1.001c-0.118,0.306-0.621,0.354-1.163,0.105  c-0.542-0.262-0.87-0.704-0.756-1.014C391.24,220.859,391.738,220.82,392.276,221.069"></path>	<path style="fill:#FFFFFF;" d="M397.852,218.318c0.603,0.315,0.992,0.813,0.914,1.163c-0.092,0.341-0.63,0.367-1.246,0.065  c-0.607-0.315-1.005-0.822-0.918-1.172C396.711,218.038,397.24,218.012,397.852,218.318"></path>	<path style="fill:#FFFFFF;" d="M376.545,220.086c0.752,0.306,1.154,0.861,0.944,1.285c-0.24,0.42-0.996,0.516-1.761,0.223  c-0.765-0.306-1.172-0.861-0.944-1.294C375.028,219.889,375.789,219.793,376.545,220.086"></path>	<path style="fill:#FFFFFF;" d="M360.241,208.28c0.607,0.192,0.887,0.546,0.66,0.822c-0.245,0.267-0.905,0.336-1.526,0.157  c-0.616-0.192-0.909-0.542-0.66-0.822C358.964,208.171,359.633,208.096,360.241,208.28"></path>	<path style="fill:#FFFFFF;" d="M366.589,227.05c0.852,0.306,1.268,0.923,0.992,1.438c-0.315,0.511-1.215,0.682-2.09,0.393  c-0.861-0.301-1.298-0.922-0.992-1.442C364.822,226.932,365.732,226.766,366.589,227.05"></path>	<path style="fill:#FFFFFF;" d="M358.336,263.592c0.682,0.258,0.948,0.914,0.625,1.547c-0.336,0.621-1.123,0.922-1.814,0.682  c-0.686-0.258-0.953-0.935-0.621-1.569C356.871,263.641,357.658,263.356,358.336,263.592"></path>	<path style="fill:#FFFFFF;" d="M353.006,266.357c0.603,0.21,0.83,0.769,0.538,1.316c-0.315,0.533-1.014,0.804-1.63,0.607  c-0.612-0.21-0.844-0.782-0.538-1.329C351.694,266.423,352.403,266.165,353.006,266.357"></path>	<path style="fill:#FFFFFF;" d="M371.84,257.532c0.769,0.324,1.149,1.08,0.879,1.775c-0.297,0.691-1.123,0.988-1.915,0.682  c-0.787-0.323-1.163-1.101-0.874-1.797C370.231,257.515,371.061,257.231,371.84,257.532"></path>	<path style="fill:#FFFFFF;" d="M364.562,260.643c0.769,0.324,1.149,1.084,0.879,1.779c-0.297,0.686-1.119,0.988-1.915,0.682  c-0.787-0.324-1.158-1.102-0.874-1.801C362.953,260.626,363.789,260.346,364.562,260.643"></path>	<path style="fill:#FFFFFF;" d="M373.516,226.015c0.573,0.227,0.879,0.665,0.699,1.01c-0.192,0.35-0.783,0.45-1.368,0.232  c-0.581-0.232-0.892-0.669-0.704-1.019C372.336,225.893,372.935,225.797,373.516,226.015"></path>	<path style="fill:#FFFFFF;" d="M388.483,209.879c0.49,0.201,0.813,0.507,0.734,0.783c-0.101,0.258-0.538,0.267-1.027,0.07  c-0.503-0.205-0.822-0.52-0.734-0.782C387.56,209.691,387.993,209.686,388.483,209.879"></path>	<path style="fill:#FFFFFF;" d="M379.523,255.134c0.656,0.284,1.001,0.931,0.804,1.512c-0.223,0.573-0.892,0.804-1.565,0.538  c-0.665-0.289-1.01-0.949-0.8-1.534C378.185,255.086,378.863,254.867,379.523,255.134"></path>	<path style="fill:#FFFFFF;" d="M386.699,252.702c0.621,0.284,0.966,0.901,0.809,1.434c-0.184,0.525-0.796,0.734-1.429,0.463  c-0.625-0.28-0.975-0.905-0.809-1.447C385.462,252.628,386.069,252.436,386.699,252.702"></path>	<path style="fill:#FFFFFF;" d="M393.343,251.219c0.586,0.276,0.935,0.861,0.813,1.364c-0.144,0.49-0.708,0.673-1.307,0.407  c-0.594-0.275-0.944-0.874-0.809-1.373C392.189,251.127,392.753,250.957,393.343,251.219"></path>	<path style="fill:#FFFFFF;" d="M360.872,225.571c0.568,0.179,0.848,0.564,0.638,0.901c-0.227,0.323-0.839,0.441-1.425,0.275  c-0.577-0.184-0.857-0.568-0.638-0.905C359.678,225.519,360.29,225.401,360.872,225.571"></path>	<path style="fill:#FFFFFF;" d="M364.641,229.722c0.69,0.241,1.027,0.752,0.787,1.185c-0.262,0.433-1.001,0.581-1.709,0.354  c-0.699-0.24-1.04-0.752-0.787-1.189C363.198,229.647,363.941,229.495,364.641,229.722"></path>	<path style="fill:#FFFFFF;" d="M370.058,232.132c0.603,0.232,0.914,0.708,0.717,1.115c-0.214,0.389-0.852,0.52-1.477,0.297  c-0.621-0.236-0.931-0.713-0.721-1.115C368.799,232.04,369.437,231.913,370.058,232.132"></path>	<path style="fill:#FFFFFF;" d="M375.386,234.261c0.542,0.223,0.822,0.669,0.66,1.036c-0.175,0.363-0.73,0.476-1.276,0.267  c-0.551-0.227-0.835-0.669-0.664-1.04C374.293,234.165,374.848,234.056,375.386,234.261"></path>	<path style="fill:#FFFFFF;" d="M380.476,236.414c0.525,0.232,0.809,0.678,0.664,1.054c-0.157,0.372-0.686,0.481-1.22,0.267  c-0.529-0.232-0.822-0.69-0.673-1.066C379.414,236.305,379.947,236.196,380.476,236.414"></path>	<path style="fill:#FFFFFF;" d="M391.973,211.219c0.472,0.192,0.8,0.494,0.734,0.756c-0.079,0.262-0.485,0.275-0.966,0.088  c-0.481-0.197-0.804-0.494-0.739-0.761C391.085,211.044,391.496,211.035,391.973,211.219"></path>	<path style="fill:#FFFFFF;" d="M389.461,208.311c0.424,0.175,0.708,0.455,0.647,0.691c-0.074,0.236-0.441,0.236-0.87,0.061  c-0.428-0.184-0.717-0.455-0.651-0.7C388.665,208.137,389.032,208.132,389.461,208.311"></path>	<path style="fill:#FFFFFF;" d="M386.818,205.779c0.384,0.157,0.647,0.402,0.594,0.612c-0.061,0.214-0.394,0.227-0.778,0.07  c-0.389-0.153-0.656-0.398-0.603-0.612C386.101,205.635,386.428,205.631,386.818,205.779"></path>	<path style="fill:#FFFFFF;" d="M394.872,214.624c0.503,0.263,0.83,0.634,0.752,0.94c-0.105,0.293-0.546,0.28-1.058,0.026  c-0.507-0.258-0.839-0.642-0.756-0.944C393.923,214.354,394.365,214.375,394.872,214.624"></path>	<path style="fill:#FFFFFF;" d="M359.007,228.1c0.59,0.184,0.866,0.586,0.647,0.944c-0.236,0.341-0.87,0.481-1.464,0.306  c-0.603-0.184-0.879-0.59-0.652-0.944C357.778,228.065,358.417,227.93,359.007,228.1"></path>	<path style="fill:#FFFFFF;" d="M353.747,226.664c0.559,0.149,0.809,0.498,0.59,0.817c-0.236,0.311-0.848,0.446-1.412,0.315  c-0.568-0.153-0.817-0.498-0.594-0.822C352.571,226.664,353.183,226.529,353.747,226.664"></path>	<path style="fill:#FFFFFF;" d="M398.385,224.726c-0.157,0.599,0.371,1.416,1.272,2.011c-1.067-0.354-1.958-0.179-2.177,0.507  c-0.162,0.608,0.245,1.377,1.014,2.028c-0.909-0.17-1.622,0.066-1.818,0.7c-0.201,0.747,0.38,1.709,1.403,2.408  c-1.128-0.345-2.068-0.096-2.317,0.682c-0.184,0.66,0.188,1.464,0.922,2.142c-0.905-0.1-1.609,0.206-1.823,0.896  c-0.214,0.765,0.249,1.692,1.119,2.426c-1.036-0.175-1.871,0.162-2.129,0.962c-0.289,1.08,0.594,2.448,2.059,3.16  c1.198,0.542,2.295,0.428,2.837-0.201c0.144,0.957,0.957,1.98,2.124,2.553c1.01,0.481,1.923,0.45,2.496,0.026  c0.306,0.848,1.045,1.683,2.032,2.177c0.997,0.481,1.88,0.454,2.422,0.013c0.323,0.865,1.067,1.705,2.041,2.203  c1.01,0.494,1.893,0.45,2.391-0.035c0.324,0.9,1.084,1.784,2.076,2.304c1.381,0.69,2.505,0.341,2.631-0.8  c0.061-0.861-0.477-1.871-1.333-2.631c0.914,0.162,1.561-0.197,1.648-1.01c0.057-0.747-0.398-1.613-1.132-2.325  c0.796,0.092,1.342-0.236,1.408-0.94c0.057-0.844-0.603-1.884-1.595-2.601c1.027,0.341,1.788,0.07,1.866-0.726  c0.039-0.686-0.441-1.517-1.206-2.186c0.809,0.157,1.368-0.101,1.43-0.752c0.044-0.743-0.612-1.709-1.574-2.369  c0.896,0.31,1.543,0.131,1.609-0.511c0.035-0.734-0.739-1.722-1.788-2.295c-0.927-0.477-1.692-0.455-1.963,0.017  c-0.14-0.682-0.831-1.478-1.749-1.967c-0.887-0.455-1.648-0.459-1.976-0.061c-0.162-0.726-0.896-1.561-1.897-2.09  c-1.014-0.511-1.901-0.507-2.269-0.039c-0.14-0.647-0.791-1.395-1.705-1.867c-1.106-0.551-2.072-0.511-2.255,0.175h-0.005  c0.153-0.695-0.625-1.63-1.735-2.194C399.618,223.97,398.604,224.048,398.385,224.726 M412.706,245.659  c0.533,0.284,0.909,0.831,0.87,1.263c-0.061,0.433-0.516,0.551-1.066,0.28c-0.538-0.284-0.914-0.835-0.866-1.268  C411.709,245.507,412.168,245.393,412.706,245.659 M408.439,243.588c0.481,0.249,0.809,0.726,0.761,1.106  c-0.066,0.38-0.494,0.49-0.979,0.249c-0.49-0.249-0.822-0.739-0.765-1.119C407.526,243.448,407.95,243.351,408.439,243.588   M404.121,241.441c0.494,0.249,0.813,0.726,0.747,1.097c-0.083,0.371-0.52,0.477-1.018,0.236c-0.494-0.249-0.817-0.726-0.752-1.102  C403.189,241.301,403.626,241.205,404.121,241.441 M400.243,240.283c-0.109,0.415-0.621,0.525-1.189,0.262  c-0.573-0.284-0.931-0.813-0.831-1.237c0.118-0.402,0.629-0.511,1.193-0.249C399.981,239.334,400.331,239.863,400.243,240.283   M413.247,242.635c0.468,0.245,0.8,0.717,0.765,1.084c-0.053,0.363-0.45,0.459-0.927,0.219c-0.468-0.249-0.8-0.721-0.765-1.089  C412.378,242.486,412.771,242.394,413.247,242.635 M400.156,236.082c0.49,0.249,0.804,0.699,0.73,1.045  c-0.087,0.354-0.542,0.437-1.036,0.205c-0.498-0.253-0.813-0.708-0.73-1.053C399.22,235.929,399.662,235.85,400.156,236.082   M413.623,239.479c0.455,0.24,0.778,0.686,0.748,1.027c-0.044,0.341-0.428,0.424-0.892,0.192c-0.463-0.245-0.787-0.699-0.752-1.04  C412.78,239.321,413.164,239.242,413.623,239.479 M400.903,233.057c0.477,0.245,0.787,0.673,0.717,1.001  c-0.088,0.328-0.52,0.398-1.005,0.17c-0.485-0.245-0.787-0.678-0.713-1.014C399.99,232.896,400.422,232.83,400.903,233.057   M413.969,236.524c0.442,0.236,0.761,0.643,0.734,0.979c-0.048,0.341-0.415,0.389-0.865,0.157  c-0.455-0.236-0.769-0.647-0.739-0.988C413.151,236.336,413.518,236.296,413.969,236.524 M401.603,230.229  c0.459,0.236,0.765,0.634,0.695,0.958c-0.083,0.323-0.494,0.363-0.962,0.135c-0.468-0.24-0.778-0.634-0.704-0.966  C400.724,230.041,401.135,230.006,401.603,230.229 M414.161,233.468c0.477,0.262,0.817,0.708,0.791,1.04  c-0.039,0.332-0.442,0.394-0.927,0.144c-0.485-0.258-0.835-0.717-0.8-1.049C413.274,233.28,413.676,233.224,414.161,233.468   M410.349,231.554c0.428,0.227,0.734,0.607,0.695,0.918c-0.057,0.311-0.42,0.341-0.857,0.118c-0.437-0.232-0.743-0.612-0.7-0.922  C409.541,231.361,409.908,231.331,410.349,231.554 M406.49,229.573c0.442,0.232,0.734,0.599,0.686,0.909  c-0.066,0.301-0.446,0.328-0.883,0.114c-0.446-0.232-0.747-0.608-0.69-0.914C405.672,229.377,406.052,229.355,406.49,229.573   M402.298,227.383c0.494,0.254,0.83,0.691,0.76,1.01c-0.079,0.319-0.529,0.372-1.04,0.122c-0.503-0.262-0.831-0.699-0.756-1.023  C401.349,227.182,401.795,227.134,402.298,227.383"></path></g></svg>