<svg xmlns="http://www.w3.org/2000/svg" xmlns:xlink="http://www.w3.org/1999/xlink" width="1920" zoomAndPan="magnify" viewBox="0 0 1440 809.999993" height="1080" preserveAspectRatio="xMidYMid meet" version="1.0"><defs><clipPath id="db0df92161"><path d="M 318 62 L 805 62 L 805 547 L 318 547 Z M 318 62 " clip-rule="nonzero"/></clipPath><clipPath id="c842dc1471"><path d="M 124.613281 315.757812 L 522.503906 -162.980469 L 1350.199219 524.941406 L 952.308594 1003.679688 Z M 124.613281 315.757812 " clip-rule="nonzero"/></clipPath><clipPath id="7f4924da78"><path d="M 124.613281 315.757812 L 522.503906 -162.980469 L 1350.199219 524.941406 L 952.308594 1003.679688 Z M 124.613281 315.757812 " clip-rule="nonzero"/></clipPath><clipPath id="7a5cc45240"><path d="M 318 67 L 1159 67 L 1159 777 L 318 777 Z M 318 67 " clip-rule="nonzero"/></clipPath><clipPath id="0fe772498d"><path d="M 124.613281 315.757812 L 522.503906 -162.980469 L 1350.199219 524.941406 L 952.308594 1003.679688 Z M 124.613281 315.757812 " clip-rule="nonzero"/></clipPath><clipPath id="f6f8a66514"><path d="M 124.613281 315.757812 L 522.503906 -162.980469 L 1350.199219 524.941406 L 952.308594 1003.679688 Z M 124.613281 315.757812 " clip-rule="nonzero"/></clipPath></defs><rect x="-144" width="1728" fill="#ffffff" y="-80.999999" height="971.999992" fill-opacity="1"/><rect x="-144" width="1728" fill="#ffffff" y="-80.999999" height="971.999992" fill-opacity="1"/><g clip-path="url(#db0df92161)"><g clip-path="url(#c842dc1471)"><g clip-path="url(#7f4924da78)"><path fill="#ffffff" d="M 796.71875 118.734375 C 790.625 126.066406 781.78125 131.113281 771.554688 130.363281 L 391.863281 134.0625 L 457.667969 508.027344 C 461.050781 526.335938 448.253906 543.597656 430.707031 546.0625 C 412.398438 549.441406 395.136719 536.644531 391.753906 518.335938 L 319.03125 106.078125 C 315.496094 86.089844 331.496094 66.839844 351.792969 66.660156 L 770.398438 62.757812 C 789.015625 62.734375 804.753906 77.363281 804.777344 95.984375 C 804.792969 105.292969 801.292969 113.234375 796.71875 118.734375 Z M 796.71875 118.734375 " fill-opacity="1" fill-rule="nonzero"/></g></g></g><g clip-path="url(#7a5cc45240)"><g clip-path="url(#0fe772498d)"><g clip-path="url(#f6f8a66514)"><path fill="#ffffff" d="M 1150.855469 764.882812 C 1139.425781 778.632812 1117.605469 780.644531 1103.855469 769.214844 L 330.199219 126.207031 C 316.449219 114.78125 314.4375 92.960938 325.867188 79.210938 C 337.292969 65.460938 359.113281 63.449219 372.863281 74.875 L 1146.519531 717.882812 C 1160.269531 729.3125 1162.285156 751.132812 1150.855469 764.882812 Z M 1150.855469 764.882812 " fill-opacity="1" fill-rule="nonzero"/></g></g></g></svg>