<svg xmlns="http://www.w3.org/2000/svg" xmlns:xlink="http://www.w3.org/1999/xlink" id="Layer_1" x="0px" y="0px" viewBox="0 0 512 512" style="enable-background:new 0 0 512 512;" xml:space="preserve"><g>	<path style="fill:#F79045;" d="M208.579,308.769c-1.932,0-3.395,0.42-4.387,1.291l1.018,2.03c0.693-0.566,1.784-0.844,3.295-0.844  c2.357,0,3.795,1.464,4.293,4.391h-10.91v0.027h-1.342c-1.044,0-2.084-1.171-2.136-2.781c-0.027-0.746-0.121-9.074-0.121-10.911  h-2.602l0.095,11.954c0,1.04-1.039,1.737-2.057,1.737h-5.828c-0.645-4.44-2.902-6.649-6.748-6.649l3.421-3.348l-1.858-1.81  l-6.669,6.722l0.965,2.03c1.191-0.766,2.429-1.165,3.695-1.165c1.164,0,2.183,0.347,3.001,1.045  c0.892,0.766,1.438,1.81,1.658,3.175h-9.597c-2.131,0.072-3.448-0.992-3.941-3.228c-0.226-1.038-0.698-1.884-1.464-2.55  c-0.871-0.771-1.911-1.143-3.149-1.143c-2.209,0-3.621,0.944-4.24,2.854h-2.335c-2.178,0-3.268,1.086-3.248,3.248l0.126,8.605  h2.603l-0.1-7.22c-0.022-0.693,0.052-1.191,0.173-1.464c0.226-0.393,0.645-0.593,1.265-0.593h1.292  c0.173,1.092,0.644,2.01,1.437,2.729c0.845,0.766,1.911,1.164,3.222,1.164c1.863,0,3.175-0.718,3.945-2.156  c0.911,1.451,2.233,2.167,3.922,2.154v0.002h19.445c1.365,0,2.629-0.818,3.101-2.01c0.374,1.14,1.412,2.01,2.503,2.01h15.153  c0-2.555-0.472-4.638-1.437-6.275C212.82,309.786,210.988,308.769,208.579,308.769 M167.431,315.937c-0.52,0-0.992-0.2-1.364-0.625  c-0.42-0.467-0.646-1.112-0.646-1.883c0-0.793,0.199-1.413,0.572-1.885c0.346-0.42,0.792-0.62,1.317-0.62  c0.546,0,1.013,0.2,1.386,0.62c0.424,0.472,0.644,1.118,0.644,1.885C169.34,315.019,168.522,315.937,167.431,315.937   M207.813,321.835h2.383v-2.503h-2.383V321.835z M220.439,298.627c0-0.373,0.147-0.571,0.446-0.571  c0.247,0,0.467,0.099,0.666,0.324l0.598-0.918c-0.372-0.472-0.798-0.697-1.317-0.697c-0.918,0-1.636,0.772-1.636,1.763  c0,0.3,0.072,0.546,0.226,0.766h-1.066l-0.572,1.218h4.413v-1.218h-0.819C220.76,299.294,220.439,299.074,220.439,298.627   M218.702,302.022l0.12,16.048h2.608l-0.125-16.048H218.702z M236.236,306.539h-2.404v2.503h2.404V306.539z M252.579,308.74  c-2.849,0-4.513,1.79-4.513,4.665c0,0.793,0.173,1.538,0.52,2.257h-2.997v0.002h-1.767c-0.472,0-0.891-0.199-1.29-0.625  c-0.473-0.467-0.766-1.086-0.845-1.832l-0.021-1.836h-2.655l0.126,5.085c0.021,1.164-0.372,2.182-1.165,3.022  c-0.772,0.871-1.716,1.291-2.828,1.291c-1.118,0-2.057-0.42-2.829-1.264c-0.766-0.819-1.164-1.837-1.164-3.001  c0-0.101,0-0.894-0.027-2.378v-2.729h-2.65c0,0.272,0.026,1.165,0.048,2.702c0.026,1.339,0.052,2.131,0.052,2.357  c0,1.931,0.645,3.595,1.93,4.959c1.291,1.364,2.829,2.056,4.64,2.056c1.784,0,3.322-0.666,4.586-2.01  c1.291-1.338,1.957-2.948,1.983-4.859c0.572,0.966,1.312,1.464,2.257,1.464h2.084v-0.002h6.825c2.776,0,4.412-1.784,4.412-4.66  c0-1.212-0.398-2.281-1.191-3.175C255.183,309.238,254.017,308.74,252.579,308.74 M252.805,315.935  c-0.525,0-0.992-0.199-1.365-0.62c-0.424-0.472-0.644-1.117-0.644-1.884c0-0.792,0.172-1.416,0.546-1.884  c0.346-0.424,0.792-0.625,1.364-0.625c0.518,0,0.992,0.201,1.364,0.625c0.42,0.468,0.646,1.113,0.646,1.884  C254.715,315.016,253.897,315.935,252.805,315.935 M274.877,311.369l0.125,5.085c0,1.192-0.398,2.21-1.191,3.054  c-0.771,0.84-1.711,1.265-2.803,1.265c-1.118,0-2.062-0.424-2.828-1.265c-0.766-0.818-1.165-1.836-1.165-3.002  c-0.026-1.49-0.026-3.2-0.026-5.11h-2.649l0.094,5.057c0,1.963,0.646,3.601,1.936,4.959c1.291,1.365,2.829,2.063,4.639,2.063  c1.811,0,3.369-0.698,4.634-2.063c1.29-1.358,1.936-2.996,1.936-4.931l-0.048-5.112H274.877z M272.1,306.536h-2.403v2.503h2.403  V306.536z M295.015,302.818h-2.383v2.503h2.383V302.818z M291.42,302.818h-2.383v2.503h2.383V302.818z M305.483,304.506h-2.382  v2.503h2.382V304.506z M301.889,304.506h-2.382v2.503h2.382V304.506z M303.007,309.019c0.021,0.614,0.021,1.46,0.047,2.477  c0.026,0.672,0.026,1.49,0.026,2.456c0,1.112-0.718,1.711-1.689,1.711h-2.922v0.001h-0.923c-1.066,0-1.932-0.079-2.603-0.199  c1.164-1.165,1.736-2.457,1.736-3.921c0-1.364-0.472-2.429-1.411-3.222c-0.845-0.719-1.911-1.091-3.175-1.091  c-1.265,0-2.329,0.372-3.175,1.091c-0.918,0.792-1.39,1.858-1.39,3.222c0,1.464,0.598,2.776,1.762,3.921  c-0.618,0.12-1.49,0.199-2.555,0.199h-2.057c-0.697,0-1.143-0.673-1.143-1.565l-0.1-12.074h-2.629l0.074,13.113  c0,0.944,0.299,1.69,0.845,2.209c0.472,0.472,1.065,0.718,1.764,0.718h4.587c1.318,0,2.681-0.272,4.045-0.844  c1.36,0.571,2.724,0.844,4.088,0.844h2.729v-0.001h3.426c2.157,0,3.322-1.238,3.322-3.221c0,0.026-0.026-1.91-0.052-5.825H303.007z   M293.23,313.655c-0.446,0.545-0.819,0.818-1.112,0.818c-0.299,0-0.672-0.273-1.118-0.818c-0.571-0.699-0.844-1.439-0.844-2.21  c0-1.212,0.745-2.23,1.962-2.23c0.594,0,1.066,0.226,1.438,0.693c0.32,0.425,0.492,0.919,0.492,1.537  C294.048,312.216,293.776,312.956,293.23,313.655 M310.641,321.366c0-0.373,0.153-0.572,0.451-0.572  c0.247,0,0.468,0.126,0.666,0.326l0.599-0.918c-0.373-0.472-0.798-0.698-1.318-0.698c-0.919,0-1.637,0.771-1.637,1.763  c0,0.299,0.074,0.547,0.226,0.771h-1.071l-0.566,1.212h4.413v-1.212h-0.818C310.966,322.037,310.641,321.813,310.641,321.366   M316.595,321.839h2.383v-2.503h-2.383V321.839z M318.706,309.019c0.021,0.614,0.021,1.46,0.047,2.477  c0.026,0.672,0.026,1.49,0.026,2.456c0,1.112-0.718,1.711-1.69,1.711h-2.455v-0.001h-1.858c-0.692,0-1.143-0.667-1.143-1.565  l-0.095-12.074h-2.629l0.073,13.119c0,0.939,0.3,1.684,0.844,2.204c0.468,0.472,1.065,0.718,1.759,0.718h2.58v0.001h3.894  c2.156,0,3.322-1.238,3.322-3.221c0,0.026-0.026-1.91-0.052-5.825H318.706z M381.331,304.527h-2.403v2.503h2.403V304.527z   M381.526,309.019h-2.624c0.022,0.614,0.022,1.46,0.048,2.477c0.026,0.672,0.026,1.49,0.026,2.456c0,1.112-0.719,1.711-1.689,1.711  h-2.923v0.001h-3.454c-0.666,0-1.139-0.079-1.464-0.253c1.738-1.438,3.128-3.148,4.147-5.105c-1.712-1.684-4.314-2.703-7.069-2.703  c-2.309,0-4.366,0.668-6.203,2.01v2.031c1.815,0.1,3.621,1.239,5.431,3.396c-0.966,0.425-1.904,0.625-2.824,0.625h-5.904  c0-1.243-0.425-2.309-1.242-3.202c-0.866-0.964-2.032-1.463-3.495-1.463c-2.803,0-4.54,1.784-4.54,4.666h-1.741v-0.001h-2.23  c-1.065,0-2.084-1.066-2.131-2.282l-0.073-11.629h-2.656l0.173,14.703c0,2.304-1.784,4.314-3.993,4.314  c-1.117,0-2.03-0.421-2.828-1.265c-1.339-1.438-1.113-1.81-1.186-5.378l-0.052-2.729h-2.603c0,0,0.099,4.912,0.099,5.058  c0,3.82,2.977,7.017,6.57,7.017c3.574,0,6.524-3.123,6.576-6.869c0.567,0.971,1.338,1.464,2.257,1.464h1.613h2.85  c0.866,1.512,2.231,2.257,4.093,2.257c1.958,0,3.296-0.746,4.015-2.257h6.45c1.364,0,2.802-0.398,4.266-1.19  c0.672,0.792,1.516,1.19,2.53,1.19h5.083v-0.001h3.428c2.157,0,3.322-1.238,3.322-3.221  C381.579,314.87,381.553,312.934,381.526,309.019 M352.512,318.166c-0.526,0-0.997-0.198-1.37-0.619  c-0.42-0.472-0.64-1.091-0.64-1.883c0-0.798,0.194-1.417,0.567-1.863c0.352-0.42,0.797-0.619,1.344-0.619  c0.52,0,0.99,0.199,1.358,0.619c0.425,0.472,0.646,1.092,0.646,1.863C354.416,317.275,353.598,318.166,352.512,318.166   M367.787,313.702c-1.239-1.685-2.555-2.729-3.941-3.097c0.818-0.372,1.732-0.57,2.723-0.57c1.562,0,2.78,0.32,3.673,0.991  C369.623,312.043,368.804,312.935,367.787,313.702"></path>	<path style="fill:#14539B;" d="M78.24,193.82c10.389,1.269,24.222,7.444,32.78,16.973c-11.2-13.834-26.364-23.186-40.957-23.709  c-23.675-0.862-36.896,21.823-29.522,50.649c1.035,4.007,2.396,7.942,4.065,11.735c2.339,5.827,5.597,11.722,9.819,17.404  c2.766,3.762,5.831,7.295,9.082,10.585c-2.29-2.437-4.438-4.997-6.429-7.685c-19.327-26.125-16.899-55.012,6.463-63.383  c10.187-3.653,23.373-2.058,35.623,2.025c-11.57-8.084-25.591-13.13-41.16-7.851c-5.754,1.964-10.098,5.527-13.088,10.209  C49.785,198.515,60.591,191.676,78.24,193.82"></path>	<path style="fill:#F79045;" d="M129.253,247.849h-0.181c13.83,22.845,16.88,46.22,7.777,58.735  c-12.345,16.983-44.558,7.636-71.953-20.923c-26.734-27.897-38.977-63.775-27.983-81.251c-0.256,0.317-0.511,0.638-0.749,0.972  c-13.217,18.144-0.182,57.616,29.087,88.146c29.273,30.504,63.713,40.517,76.909,22.358  C152.597,301.538,146.64,273.883,129.253,247.849"></path>	<path style="fill:#F79045;" d="M122.797,236.579c3.469,4.218,4.548,9.077,2.4,10.864c-2.154,1.794-6.739-0.17-10.221-4.383  c-3.474-4.195-4.558-9.056-2.401-10.849C114.721,230.432,119.307,232.374,122.797,236.579"></path>	<path style="fill:#14539B;" d="M419.152,232.816c-1.667-1.333-3.331-2.654-4.958-3.96c3.999-1.231,7.004-2.144,8.994-2.741  c0.494-1.696,0.913-3.233,1.216-4.645l-13.332,3.934c-0.236,0.931-0.468,1.853-0.674,2.75c-0.329,1.153-0.475,2.08-0.475,2.749  c0,0.248,0.502,0.906,1.525,1.953c1.023,1.069,1.672,1.596,1.957,1.596c0.319,0,0.559-0.171,0.711-0.501l4.713,3.667h-10.535  c-1.093,0-1.739-0.341-1.984-0.987c-0.389-1.187-0.823-3.179-1.305-5.959c-0.523-3.244-0.939-5.385-1.162-6.358l-0.22-0.128  l-2.535,4.338c0.058,0.408,0.222,0.839,0.419,1.291c-1.542,0.873-3.072,1.726-4.624,2.609c-1.058,0.671-1.855,1.491-2.35,2.413  c-0.511,0.932-1.065,2.621-1.697,5.118l7.658,1.35c0.355,0.079,0.848-0.382,1.432-1.389c0.642-1.191,1.068-1.859,1.265-2.017  c0.277,0.934,0.553,1.82,0.846,2.716c0.481,1.078,1.172,1.606,2.081,1.606h15.334c0.894-2.887,1.358-4.542,1.358-4.972  C422.81,236.412,421.592,234.936,419.152,232.816 M398.455,235.236c0.648-0.5,1.163-0.895,1.628-1.075  c0.888-0.858,1.525-1.55,1.881-2.09l0.767,3.734L398.455,235.236z M294.336,228.722l-2.406,4.133  c1.207,1.645,2.067,3.235,2.606,4.762h-10.839c-1.117,0-1.763-0.344-1.982-0.989c-0.42-1.186-0.857-3.18-1.323-5.958  c-0.524-3.242-0.937-5.384-1.19-6.357l-0.217-0.128l-2.527,4.338c0.092,0.407,0.235,0.837,0.43,1.291  c-1.552,0.871-3.09,1.727-4.602,2.609c-1.064,0.668-1.85,1.492-2.379,2.412c-0.49,0.933-1.057,2.621-1.679,5.118l7.647,1.35  c0.372,0.081,0.826-0.381,1.434-1.388c0.656-1.192,1.057-1.859,1.267-2.019c0.285,0.938,0.562,1.822,0.849,2.717  c0.472,1.081,1.157,1.608,2.078,1.608h15.163c0.614-3.234,0.93-5.428,0.93-6.571C297.596,233.639,296.519,231.32,294.336,228.722   M273.858,235.236c0.6-0.501,1.147-0.895,1.591-1.074c0.893-0.858,1.543-1.552,1.893-2.092l0.779,3.734L273.858,235.236z   M291.233,246.066c-0.503,0.571-0.866,0.844-1.065,0.844c-0.309,0-1.322-0.584-2.987-1.775c-0.841,0.953-1.596,1.91-2.271,2.87  c0.675,0.608,1.741,1.308,3.211,2.072c0.852-0.876,1.487-1.505,1.889-1.887l3.198,1.887c0.738-0.601,1.544-1.548,2.405-2.914  l-3.328-2.063C292.121,245.181,291.773,245.498,291.233,246.066 M253.192,223.365c-0.142-0.361-0.203-0.833-0.247-1.401  l-0.267-0.211c-0.895,0.99-1.883,2.643-2.982,4.958c0.428,0.554,0.879,1,1.285,1.296c0.256,0.635,0.563,2.108,0.937,4.467  c0.356,2.337,0.552,3.909,0.552,4.707c0,0.141-0.048,0.274-0.13,0.436h-3.161c-0.666,0-1.06-0.031-1.13-0.046  c-0.4-0.064-0.62-0.299-0.676-0.679c-0.146-1.026-0.328-3.555-0.583-7.596c-0.196-3.183-0.56-5.696-1.029-7.555l-0.148-0.129  l-3.277,4.592l1.711,11.413h-4.396v0.004h-0.803c-1.209,0-2.904-1.194-5.038-3.572c-1.497-1.72-2.99-3.435-4.488-5.143l9.588-1.939  c0.507-1.58,0.912-3.103,1.222-4.535c-0.34-0.049-4.54,0.791-12.626,2.547c-0.78,2.055-1.365,4.16-1.728,6.289l6.594,6.354h-6.554  v-0.004h-3.975c0.49-1.114,0.944-2.236,1.393-3.333c0.601-1.488,0.885-2.612,0.885-3.36V228.5c-1.28,0-2.747,0.748-4.385,2.214  c-1.409,1.233-2.506,2.517-3.308,3.923c-0.584,1.306-1.006,2.285-1.247,2.981h-2.216c-1.766,0-3.092-0.626-4.05-1.847  c-0.86-1.271-1.688-2.54-2.533-3.825c-0.231,0.298-0.684,0.999-1.37,2.126c-0.703,1.123-1.033,1.777-1.033,1.942  c0,0.065,0.419,0.613,1.222,1.695c0.82,1.049,1.222,1.806,1.222,2.295c0,0.995-1.194,2.268-3.523,3.832  c-2.32,1.568-4.079,2.353-5.296,2.353c-0.786,0-1.682-0.282-2.713-0.875c-0.997-0.563-1.459-0.854-1.376-0.854  c-0.154,0-0.213,0.023-0.213,0.098v0.54c0.757,0.864,2.139,1.749,4.101,2.76c2.007,0.983,3.513,1.464,4.542,1.464  c1.562,0,2.953-0.902,4.233-2.741c0.918-1.561,1.764-3.09,2.628-4.625l0.217-0.244c0.703,0.354,1.253,0.507,1.652,0.507h3.109  c0.114,0,0.455,0.521,0.961,1.558c0.678,1.292,1.297,2.262,1.825,2.9c0.839,1.051,1.736,1.559,2.6,1.559  c2.316,0,4.079-2.003,5.332-6.002h8.019l1.743-2.869l3.052,2.869h3.49v-0.015h1.813l1.497-2.791  c0.028,0.543,0.054,1.074,0.09,1.613c0.117,0.795,0.335,1.177,0.675,1.177h8.645c0.381-0.196,0.599-0.339,0.663-0.427  c0.193-0.25,0.431-1.084,0.747-2.516c0.31-1.45,0.446-2.328,0.385-2.684l-0.473-5.719l3.285-4.259  c-0.755-0.344-1.663-0.842-2.705-1.479C254.083,224.333,253.341,223.731,253.192,223.365 M221.581,243.696h-0.969  c-0.719,0-1.442-0.247-2.1-0.727c-0.67-0.477-1.177-1.06-1.467-1.752c0.806,0,1.662,0.193,2.566,0.572  c1,0.433,1.668,0.992,1.969,1.611V243.696z M220.275,235.587c-0.871,0.356-1.802,0.697-2.691,1.07h-0.294  c1.747-2.259,3.152-3.734,4.171-4.408c0.1,0.271,0.12,0.581,0.12,0.971C221.581,234.341,221.149,235.14,220.275,235.587   M453.863,242.221h5.652c0.365-0.527,0.665-0.919,0.853-1.178c0.254,0.534,0.429,0.916,0.549,1.178h7.611  c0.381-0.196,0.625-0.339,0.666-0.427c0.187-0.25,0.449-1.084,0.757-2.516c0.334-1.45,0.435-2.329,0.396-2.684l-0.511-5.719  l3.33-4.259c-0.774-0.344-1.668-0.843-2.713-1.479c-1.352-0.804-2.093-1.406-2.24-1.774c-0.166-0.359-0.24-0.832-0.253-1.399  l-0.244-0.211c-0.908,0.99-1.918,2.643-2.996,4.958c0.429,0.553,0.856,1,1.29,1.296c0.255,0.635,0.56,2.107,0.907,4.467  c0.378,2.337,0.573,3.909,0.573,4.706c0,0.142-0.06,0.276-0.161,0.436h-4.024c-1.308,0-1.945-0.896-1.945-2.641  c0.02-0.116,0.046-0.328,0.046-0.6c0-0.291-0.026-0.483-0.046-0.636c0-0.731-0.058-1.319-0.171-1.794  c-0.334,0.219-0.877,0.782-1.63,1.731c-0.764,0.953-1.136,1.609-1.136,1.93c0,0.164,0.032,0.408,0.12,0.738  c0.087,0.329,0.132,0.575,0.132,0.752c0,0.176-0.063,0.342-0.219,0.52c-1.94-0.097-3.027-0.097-3.187,0  c0.477-1.968,0.714-3.8,0.714-5.546c0-0.124-0.06-0.284-0.131-0.454c-0.442,0.395-1.047,1.112-1.821,2.124  c-0.838,1.166-1.248,1.946-1.248,2.34c0,0.768-0.142,1.278-0.373,1.536h-3.738c0.867-2.452,1.277-4.058,1.277-4.82l-0.117-1.063  c-0.4,0.167-1.016,0.726-1.841,1.65c-0.812,0.954-1.212,1.61-1.212,1.997c0,0.795-0.174,1.538-0.56,2.235h-4.136  c-1.742,0-3.085-0.625-4.05-1.846c-0.83-1.271-1.681-2.541-2.52-3.825c-0.221,0.297-0.692,0.999-1.378,2.128  c-0.664,1.122-1.011,1.775-1.011,1.941c0,0.065,0.407,0.613,1.201,1.695c0.825,1.049,1.242,1.806,1.242,2.295  c0,0.994-1.186,2.267-3.529,3.832c-2.323,1.568-4.095,2.354-5.311,2.354c-0.787,0-1.674-0.283-2.698-0.876  c-1.024-0.563-1.486-0.854-1.402-0.854c-0.138,0-0.198,0.023-0.198,0.098v0.54c0.759,0.863,2.119,1.749,4.11,2.76  c1.98,0.982,3.476,1.464,4.521,1.464c1.564,0,2.987-0.903,4.275-2.741c0.877-1.561,1.758-3.09,2.619-4.625l0.208-0.243  c0.717,0.351,1.249,0.506,1.643,0.506h5.351c0.253,0,0.515-0.172,0.846-0.522c0.303-0.346,0.526-0.568,0.656-0.656  c0.243,0.427,0.37,0.83,0.396,1.178h4.986c0.103,0,0.245-0.119,0.496-0.37c0.241-0.257,0.403-0.394,0.476-0.394  C453.214,241.458,453.487,241.716,453.863,242.221 M191.163,247.602c0-0.207-0.491-0.763-1.529-1.69  c-1.042-0.925-1.633-1.409-1.811-1.409c-0.164,0-0.751,0.484-1.721,1.409c-0.976,0.926-1.449,1.47-1.449,1.65  c0,0.168,0.463,0.627,1.423,1.394c0.924,0.76,1.525,1.175,1.782,1.192C190.084,248.905,191.163,248.049,191.163,247.602   M159.377,241.247c0.829,0.21,1.657,0.424,2.466,0.661c-0.849,0.446-1.619,1.02-2.327,1.724c-0.876,0.896-1.298,1.696-1.272,2.408  v0.288c2.903-2.605,6.304-3.975,10.183-4.093c0.93-1.29,1.769-2.519,2.49-3.67c-5.534,0-8.76-0.509-9.75-1.59  c0.943-0.697,1.656-1.05,2.198-1.05c0.462,0,1.016,0.174,1.6,0.517c0.467,0.342,0.954,0.671,1.43,0.966  c1.211-1.821,1.825-2.785,1.825-2.952c0-0.609-0.277-1.161-0.852-1.629c-0.574-0.483-1.175-0.725-1.802-0.725  c-1.858,0-3.613,0.773-5.252,2.347c-1.63,1.565-2.443,3.265-2.443,5.123C157.872,240.377,158.395,240.939,159.377,241.247   M369.055,241.795c0.179-0.25,0.445-1.085,0.734-2.517c0.31-1.45,0.449-2.328,0.387-2.684l-0.482-5.718l3.3-4.26  c-0.769-0.342-1.657-0.841-2.697-1.478c-1.352-0.805-2.12-1.406-2.247-1.774c-0.155-0.359-0.224-0.832-0.239-1.401l-0.277-0.209  c-0.903,0.99-1.895,2.644-2.982,4.957c0.444,0.554,0.881,1.002,1.306,1.296c0.252,0.635,0.549,2.109,0.905,4.468  c0.385,2.337,0.541,3.909,0.541,4.706c0,0.142-0.036,0.276-0.102,0.436h-4.057c-1.3,0-1.95-0.896-1.95-2.64  c0.018-0.119,0.052-0.33,0.052-0.601c0-0.292-0.033-0.483-0.052-0.637c0-0.729-0.057-1.316-0.169-1.792  c-0.334,0.219-0.878,0.781-1.64,1.73c-0.769,0.953-1.132,1.609-1.132,1.933c0,0.161,0.055,0.408,0.127,0.736  c0.077,0.328,0.136,0.577,0.136,0.751c0,0.177-0.098,0.343-0.208,0.521c-1.974-0.097-3.04-0.097-3.205,0  c0.471-1.994,0.689-3.831,0.689-5.556c0-0.138-0.028-0.31-0.112-0.466c-0.449,0.389-1.059,1.107-1.822,2.125  c-0.837,1.155-1.243,1.945-1.243,2.344c0,0.765-0.133,1.295-0.38,1.553h-3.728c0.826-2.452,1.286-4.059,1.286-4.821l-0.099-1.062  c-0.428,0.168-1.044,0.726-1.859,1.65c-0.822,0.954-1.229,1.61-1.229,1.998c0,0.794-0.173,1.539-0.539,2.234h-6.181  c0.319-0.503,0.614-0.999,0.879-1.48c0.4-0.612,0.561-1.12,0.561-1.508c0-1.144-0.625-2.169-1.845-3.034  c-1.166-0.785-2.323-1.172-3.51-1.172c-1.963,0-3.429,0.48-4.344,1.467c-0.535,0.569-1.251,1.896-2.213,4.052  c0.92-0.105,1.432-0.174,1.518-0.174c1.326,0,2.427,0.616,3.302,1.849h-7.844c-0.753-4.86-2.079-7.273-4.009-7.273  c-1.234,0-2.459,1.187-3.703,3.54c-1.101,2.104-1.64,3.826-1.64,5.139c0,1.228,0.718,2.08,2.139,2.56  c0.194,0.083,1.407,0.324,3.667,0.718c-1.02,0.976-2.272,1.883-3.722,2.657c-1.674,0.876-3.11,1.298-4.357,1.298  c-0.373,0-0.985-0.113-1.798-0.33c-0.836-0.22-1.439-0.324-1.866-0.324c-0.122,0-0.258,0.048-0.376,0.154v0.387  c0.716,0.844,1.878,1.55,3.498,2.164c1.538,0.598,2.905,0.893,4.083,0.893c1.445,0,2.948-0.846,4.502-2.501  c1.194-1.328,2.152-2.828,2.898-4.478h8.99c0.613-0.928,1.083-1.632,1.348-2.129c0.572,0.942,0.97,1.654,1.229,2.129h7.722  c0.237,0,0.531-0.17,0.849-0.522c0.312-0.346,0.521-0.568,0.65-0.656c0.232,0.427,0.367,0.83,0.404,1.178h4.981  c0.057,0,0.23-0.119,0.472-0.37c0.256-0.258,0.404-0.395,0.501-0.395c0.18,0,0.443,0.258,0.816,0.765h5.688  c0.367-0.527,0.643-0.919,0.842-1.178c0.226,0.535,0.425,0.915,0.54,1.178h7.634C368.776,242.025,368.976,241.882,369.055,241.795   M322.183,237.617c-1.219,0-2.046-0.436-2.537-1.272c0.034-0.063,0.034-0.114,0-0.168c-0.027-0.224,0.138-0.49,0.525-0.861  c0.367-0.378,0.67-0.567,0.865-0.567c0.408,0,0.841,0.343,1.233,1.021c0.05,0.08,0.308,0.608,0.768,1.61  C322.738,237.532,322.479,237.617,322.183,237.617 M453.194,227.863l3.588,1.796c1.383-0.976,2.259-1.906,2.569-2.769l-3.625-2.032  c-0.366,0.362-0.747,0.714-1.134,1.055c-0.676,0.575-1.018,0.84-1.119,0.84c-0.466,0-1.537-0.603-3.198-1.806  c-1.329,1.202-2.23,2.146-2.708,2.785c2.148,1.233,3.347,1.866,3.626,1.866C451.161,229.597,451.804,229.024,453.194,227.863   M193.345,242.22c0.847,0,1.27-2.128,1.27-6.372c0-1.348-0.291-2.724-0.877-4.15c-0.589-1.418-1.401-2.524-2.372-3.334  l-2.474,4.365c0.517,0.43,1.051,1.185,1.66,2.247c0.613,1.082,0.92,1.916,0.92,2.49c0,0.106-0.031,0.152-0.046,0.152h-9.408  c-0.835,0-1.276-0.236-1.365-0.677c-0.361-1.517-0.678-3.974-0.937-7.429c-0.156-2.547-0.335-5.11-0.496-7.673  c-0.301,0.252-0.82,0.886-1.62,1.894c-0.855,1.095-1.262,1.731-1.262,1.939l1.46,16.549H193.345z M481,235.403  c0-2.481-0.4-6.463-1.228-11.961c-1.561,2.148-2.601,3.996-3.136,5.546l1.904,13.601C480.168,240.673,481,238.277,481,235.403   M396.854,224.267c1.919,1.172,3.11,1.787,3.473,1.787c0.17,0,0.6-0.423,1.316-1.228c0.616-0.742,1.023-1.276,1.206-1.602  l-3.539-1.904c-1.522,1.17-2.269,1.762-2.24,1.762c-0.478,0-1.532-0.592-3.175-1.762c-1.399,1.548-2.243,2.483-2.486,2.817  c1.499,0.962,2.666,1.575,3.509,1.813C395.921,225.032,396.568,224.469,396.854,224.267 M451.789,224.546  c0.767,0.635,1.218,0.951,1.354,0.951c0.252,0,0.72-0.304,1.399-0.899c0.579-0.521,0.977-0.931,1.157-1.209  c-1.473-1.492-2.33-2.246-2.556-2.274c-1.675,1.241-2.486,2.031-2.486,2.317C450.657,223.543,451.034,223.906,451.789,224.546   M272.234,224.267c1.942,1.172,3.101,1.787,3.474,1.787c0.165,0,0.596-0.423,1.291-1.228c0.632-0.742,1.046-1.276,1.236-1.602  l-3.541-1.904c-1.534,1.17-2.26,1.762-2.227,1.762c-0.496,0-1.55-0.592-3.186-1.762c-1.4,1.548-2.243,2.483-2.496,2.817  c1.48,0.962,2.668,1.575,3.502,1.813C271.301,225.032,271.948,224.469,272.234,224.267 M311.436,237.362  c0-4.517-2.139-7.743-6.408-9.651l-1.455,4.853c0.818,0.11,1.841,0.773,3.123,1.945c1.237,1.188,1.868,2.164,1.868,2.929  c0,0.049-0.008,0.103-0.037,0.178h-8.259l-0.418,4.604h10.179C310.973,242.221,311.436,240.608,311.436,237.362 M380.838,235.403  c0-2.482-0.409-6.463-1.222-11.961c-1.555,2.147-2.603,3.995-3.13,5.546l1.913,13.599  C380.022,240.673,380.838,238.275,380.838,235.403 M221.694,285.449h3.536v-13.365h-3.536V285.449z M214.688,273.666  c-1.088-1.233-2.379-1.846-3.852-1.846c-1.632,0-2.968,0.596-4.004,1.756c-1.088,1.193-1.61,2.921-1.61,5.18  c0,2.214,0.526,3.946,1.643,5.182c1.09,1.247,2.39,1.873,3.916,1.873c0.763,0,1.512-0.212,2.248-0.608  c0.75-0.375,1.368-0.966,1.924-1.719v1.964h3.265v-18.463h-3.53V273.666z M213.879,281.985c-0.582,0.688-1.271,1.037-2.07,1.037  c-1.029,0-1.813-0.471-2.386-1.386c-0.388-0.643-0.609-1.681-0.609-3.119c0-1.33,0.301-2.356,0.869-3.008  c0.566-0.679,1.27-1.01,2.105-1.01c0.849,0,1.551,0.346,2.11,1.021c0.552,0.691,0.835,1.804,0.835,3.333  C214.732,280.256,214.442,281.29,213.879,281.985 M186.767,281.066l0.042-4.116c0-1.538-0.16-2.598-0.459-3.147  c-0.325-0.563-0.856-1.057-1.636-1.446c-0.784-0.356-1.939-0.538-3.515-0.538c-1.742,0-3.045,0.307-3.937,0.926  c-0.867,0.618-1.481,1.593-1.846,2.883l3.159,0.57c0.232-0.638,0.515-1.077,0.879-1.332c0.335-0.244,0.844-0.368,1.47-0.368  c0.922,0,1.551,0.155,1.908,0.444c0.328,0.299,0.492,0.779,0.492,1.492v0.338c-0.626,0.28-1.77,0.552-3.44,0.884  c-1.2,0.22-2.141,0.504-2.775,0.803c-0.642,0.314-1.132,0.776-1.51,1.36c-0.365,0.594-0.536,1.278-0.536,2.039  c0,1.113,0.386,2.067,1.163,2.83c0.789,0.731,1.879,1.123,3.251,1.123c0.77,0,1.489-0.156,2.183-0.462  c0.67-0.309,1.32-0.753,1.916-1.335c0.022,0.065,0.064,0.2,0.127,0.403c0.138,0.45,0.261,0.786,0.346,1.032h3.505  c-0.304-0.65-0.505-1.249-0.626-1.802C186.814,283.086,186.767,282.239,186.767,281.066 M183.323,279.757  c0,0.851-0.043,1.422-0.138,1.74c-0.14,0.452-0.411,0.85-0.831,1.164c-0.572,0.417-1.196,0.626-1.823,0.626  c-0.553,0-1.045-0.17-1.398-0.543c-0.369-0.369-0.56-0.779-0.56-1.272c0-0.523,0.257-0.938,0.704-1.252  c0.299-0.212,0.935-0.41,1.92-0.625c0.959-0.213,1.677-0.398,2.125-0.55V279.757z M221.821,270.269h3.544v-3.281h-3.544V270.269z   M170.063,275.297c-0.877-0.451-2.21-0.905-3.995-1.31c-1.819-0.436-2.95-0.848-3.422-1.24c-0.356-0.312-0.552-0.692-0.552-1.136  c0-0.46,0.202-0.854,0.591-1.141c0.605-0.44,1.472-0.655,2.526-0.655c1.032,0,1.832,0.21,2.335,0.629  c0.511,0.417,0.872,1.073,1.029,2.041l3.723-0.134c-0.062-1.709-0.703-3.074-1.846-4.095c-1.175-1.028-2.923-1.553-5.221-1.553  c-1.406,0-2.614,0.223-3.627,0.659c-0.992,0.436-1.748,1.058-2.264,1.867c-0.558,0.806-0.83,1.699-0.83,2.633  c0,1.45,0.575,2.693,1.718,3.709c0.781,0.728,2.209,1.314,4.182,1.818c1.557,0.37,2.535,0.646,2.962,0.796  c0.634,0.233,1.098,0.492,1.356,0.794c0.253,0.31,0.377,0.696,0.377,1.106c0,0.692-0.292,1.267-0.915,1.783  c-0.599,0.505-1.488,0.763-2.704,0.763c-1.121,0-2.014-0.285-2.696-0.846c-0.652-0.588-1.098-1.488-1.32-2.69l-3.609,0.356  c0.222,2.079,0.968,3.634,2.229,4.735c1.241,1.086,3.044,1.624,5.363,1.624c1.59,0,2.94-0.237,3.986-0.686  c1.073-0.436,1.91-1.136,2.522-2.057c0.557-0.918,0.864-1.915,0.864-2.964c0-1.159-0.239-2.138-0.748-2.923  C171.583,276.378,170.929,275.769,170.063,275.297 M474.245,281.578l-3.213-9.494h-3.699l5.042,13.414  c-0.211,0.725-0.506,1.365-0.903,1.858c-0.387,0.485-0.993,0.73-1.817,0.73c-0.43,0-0.91-0.06-1.472-0.165l0.307,2.77  c0.634,0.127,1.313,0.195,1.99,0.195c0.673,0,1.248-0.068,1.787-0.195c0.545-0.159,0.994-0.352,1.361-0.596  c0.335-0.264,0.667-0.611,0.941-1.029c0.277-0.398,0.563-0.98,0.872-1.773l0.865-2.369l4.69-12.84h-3.659L474.245,281.578z   M198.849,277.76c0,1.917-0.082,3.12-0.276,3.609c-0.179,0.502-0.506,0.923-0.986,1.259c-0.475,0.333-1.022,0.492-1.612,0.492  c-0.526,0-0.978-0.114-1.318-0.386c-0.343-0.239-0.57-0.569-0.718-0.98c-0.129-0.451-0.182-1.603-0.182-3.498v-6.171h-3.529v8.49  c0,1.255,0.145,2.239,0.476,2.95c0.311,0.715,0.825,1.283,1.538,1.676c0.716,0.398,1.535,0.61,2.426,0.61  c0.881,0,1.727-0.218,2.522-0.653c0.786-0.433,1.444-1.001,1.906-1.713v2.004h3.263v-13.364h-3.512V277.76z M307.779,270.269h3.534  v-3.281h-3.534V270.269z M329.287,270.269h3.53v-3.281h-3.53V270.269z M349.865,281.578l-3.203-9.493h-3.687l5.033,13.414  c-0.198,0.725-0.507,1.365-0.917,1.857c-0.357,0.485-0.982,0.732-1.783,0.732c-0.45,0-0.937-0.062-1.493-0.169l0.314,2.774  c0.64,0.127,1.304,0.192,1.98,0.192c0.674,0,1.258-0.065,1.787-0.192c0.547-0.16,0.984-0.352,1.347-0.598  c0.354-0.263,0.682-0.611,0.944-1.028c0.285-0.401,0.598-0.979,0.889-1.773l0.882-2.369l4.668-12.84h-3.643L349.865,281.578z   M340.849,282.856c-0.25,0-0.454-0.067-0.603-0.188c-0.182-0.117-0.281-0.268-0.332-0.44c-0.03-0.195-0.064-0.823-0.064-1.928  v-5.421h2.414v-2.794h-2.414v-4.698l-3.538,2.06v2.638H334.7v2.794h1.613v5.875c0,1.259,0.049,2.092,0.109,2.507  c0.106,0.585,0.26,1.03,0.484,1.38c0.246,0.349,0.629,0.633,1.139,0.828c0.51,0.221,1.09,0.344,1.697,0.344  c1.046,0,1.971-0.203,2.784-0.536l-0.262-2.756C341.647,282.735,341.169,282.856,340.849,282.856 M328.947,285.449h3.522v-13.365  h-3.522V285.449z M322.061,282.354c-0.421,0.381-0.979,0.586-1.643,0.586c-0.893,0-1.611-0.334-2.129-0.99  c-0.534-0.66-0.792-1.783-0.792-3.381c0-1.432,0.258-2.45,0.792-3.072c0.499-0.617,1.217-0.912,2.086-0.912  c0.647,0,1.199,0.163,1.596,0.514c0.428,0.349,0.679,0.842,0.789,1.527l3.491-0.604c-0.415-1.425-1.099-2.472-2.059-3.165  c-0.956-0.694-2.239-1.038-3.878-1.038c-1.973,0-3.541,0.615-4.685,1.841c-1.161,1.22-1.759,2.955-1.759,5.16  c0,2.181,0.598,3.891,1.727,5.138c1.174,1.226,2.719,1.854,4.679,1.854c1.696,0,3.065-0.414,4.091-1.252  c1.029-0.806,1.702-2.027,2.077-3.63l-3.506-0.585C322.778,281.305,322.479,281.967,322.061,282.354 M430.667,271.821  c-0.903,0-1.7,0.203-2.437,0.615c-0.713,0.396-1.307,0.93-1.731,1.6v-1.951h-3.302v18.448h3.516v-6.68  c0.674,0.707,1.317,1.187,1.904,1.497c0.608,0.304,1.272,0.462,2.025,0.462c1.56,0,2.868-0.628,3.963-1.876  c1.083-1.234,1.638-2.978,1.638-5.196c0-2.18-0.555-3.88-1.629-5.096C433.548,272.436,432.224,271.821,430.667,271.821   M431.809,281.996c-0.546,0.663-1.225,0.976-2.065,0.976c-0.864,0-1.578-0.341-2.186-1.06c-0.584-0.732-0.871-1.848-0.871-3.344  c0-1.29,0.275-2.32,0.842-2.979c0.579-0.68,1.277-1.005,2.18-1.005c0.816,0,1.51,0.337,2.07,1.046  c0.561,0.671,0.84,1.693,0.84,3.125C432.618,280.258,432.353,281.345,431.809,281.996 M417.92,272.415  c-0.683-0.396-1.526-0.595-2.499-0.595c-0.766,0-1.497,0.182-2.173,0.531c-0.696,0.343-1.323,0.89-1.908,1.569  c-0.396-0.679-0.912-1.226-1.544-1.569c-0.626-0.348-1.375-0.531-2.232-0.531c-1.607,0-2.999,0.683-4.163,2.083v-1.819h-3.251  v13.365h3.519v-6.493c0-1.283,0.086-2.189,0.276-2.745c0.202-0.559,0.514-0.969,0.935-1.267c0.454-0.288,0.944-0.444,1.487-0.444  c0.458,0,0.824,0.086,1.086,0.269c0.265,0.184,0.46,0.473,0.586,0.861c0.136,0.363,0.176,1.19,0.176,2.512v7.308h3.55v-6.431  c0-1.257,0.092-2.175,0.29-2.77c0.183-0.553,0.496-0.99,0.933-1.304c0.435-0.28,0.9-0.444,1.406-0.444  c0.666,0,1.179,0.24,1.534,0.758c0.206,0.382,0.328,1.239,0.328,2.56v7.631h3.548v-8.522c0-1.275-0.123-2.199-0.373-2.757  C419.095,273.413,418.602,272.807,417.92,272.415 M390.73,271.821c-1.306,0-2.478,0.275-3.549,0.865  c-1.077,0.575-1.9,1.421-2.472,2.501c-0.576,1.113-0.87,2.267-0.87,3.421c0,1.545,0.294,2.836,0.87,3.925  c0.572,1.071,1.427,1.885,2.533,2.433c1.123,0.56,2.296,0.846,3.516,0.846c1.992,0,3.625-0.684,4.944-2.007  c1.3-1.34,1.954-2.995,1.954-5.033c0-2.006-0.638-3.672-1.948-4.983C394.415,272.47,392.756,271.821,390.73,271.821   M393.076,281.872c-0.606,0.703-1.396,1.068-2.329,1.068c-0.917,0-1.707-0.365-2.32-1.068c-0.652-0.702-0.953-1.719-0.953-3.062  c0-1.33,0.301-2.366,0.953-3.071c0.613-0.706,1.403-1.051,2.32-1.051c0.933,0,1.723,0.345,2.329,1.051  c0.643,0.704,0.954,1.731,0.954,3.035C394.03,280.121,393.719,281.171,393.076,281.872 M376.419,281.637  c-0.702,0.63-1.569,0.938-2.541,0.938c-1.346,0-2.439-0.475-3.282-1.475c-0.828-0.98-1.263-2.649-1.263-4.971  c0-2.2,0.442-3.778,1.275-4.773c0.876-0.976,1.977-1.46,3.335-1.46c1.004,0,1.843,0.273,2.549,0.823  c0.699,0.544,1.157,1.305,1.374,2.266l3.652-0.9c-0.401-1.462-1.044-2.588-1.879-3.353c-1.426-1.351-3.242-2.026-5.505-2.026  c-2.581,0-4.672,0.88-6.247,2.557c-1.582,1.683-2.398,4.086-2.398,7.139c0,2.91,0.794,5.184,2.378,6.858  c1.572,1.666,3.579,2.493,6.034,2.493c2.001,0,3.633-0.479,4.915-1.462c1.278-1.002,2.22-2.502,2.762-4.534l-3.629-1.112  C377.648,280.01,377.136,281,376.419,281.637 M270.074,273.789c-1.124-1.32-2.702-1.969-4.684-1.969  c-1.779,0-3.238,0.649-4.4,1.896c-1.136,1.237-1.725,2.966-1.725,5.2c0,1.864,0.453,3.399,1.313,4.598  c1.116,1.523,2.845,2.297,5.165,2.297c1.47,0,2.676-0.354,3.668-1.033c0.98-0.675,1.698-1.659,2.139-2.962l-3.535-0.576  c-0.192,0.68-0.467,1.164-0.838,1.466c-0.371,0.317-0.857,0.453-1.408,0.453c-0.8,0-1.476-0.279-2.036-0.867  c-0.545-0.591-0.837-1.431-0.854-2.473h8.837C271.777,277.106,271.235,275.085,270.074,273.789 M262.953,277.66  c-0.015-0.979,0.225-1.744,0.735-2.304c0.499-0.585,1.152-0.857,1.922-0.857c0.727,0,1.345,0.269,1.842,0.804  c0.507,0.541,0.774,1.325,0.801,2.357H262.953z M307.482,285.449h3.527v-13.365h-3.527V285.449z M464.532,273.299  c-0.329-0.42-0.817-0.768-1.455-1.063c-0.65-0.265-1.347-0.416-2.123-0.416c-1.752,0-3.22,0.741-4.366,2.214v-1.951h-3.266v13.365  h3.522v-6.056c0-1.493,0.079-2.508,0.272-3.057c0.159-0.539,0.504-1.006,0.975-1.342c0.468-0.322,1.021-0.493,1.654-0.493  c0.453,0,0.86,0.111,1.196,0.349c0.322,0.235,0.573,0.561,0.73,0.988c0.129,0.41,0.23,1.349,0.23,2.796v6.814h3.519v-8.284  c0-1.017-0.088-1.823-0.194-2.375C465.096,274.225,464.854,273.735,464.532,273.299 M449.808,281.066l0.038-4.116  c0-1.538-0.14-2.598-0.451-3.147c-0.336-0.563-0.863-1.057-1.631-1.446c-0.784-0.356-1.949-0.538-3.531-0.538  c-1.714,0-3.034,0.307-3.924,0.926c-0.878,0.618-1.485,1.593-1.851,2.883l3.182,0.57c0.218-0.638,0.503-1.077,0.843-1.332  c0.358-0.244,0.852-0.368,1.476-0.368c0.929,0,1.57,0.155,1.9,0.444c0.367,0.299,0.519,0.779,0.519,1.492v0.338  c-0.64,0.28-1.786,0.552-3.424,0.884c-1.22,0.22-2.138,0.504-2.796,0.803c-0.64,0.314-1.147,0.776-1.506,1.36  c-0.355,0.594-0.536,1.278-0.536,2.039c0,1.113,0.386,2.067,1.164,2.83c0.8,0.731,1.88,1.123,3.24,1.123  c0.78,0,1.491-0.156,2.182-0.462c0.702-0.309,1.316-0.753,1.927-1.335c0.034,0.065,0.066,0.2,0.119,0.403  c0.124,0.45,0.247,0.786,0.35,1.032h3.529c-0.335-0.65-0.527-1.249-0.64-1.802C449.848,283.086,449.808,282.239,449.808,281.066   M446.377,279.757c0,0.851-0.051,1.422-0.146,1.74c-0.128,0.452-0.41,0.85-0.825,1.164c-0.59,0.417-1.188,0.626-1.82,0.626  c-0.576,0-1.03-0.17-1.394-0.543c-0.386-0.369-0.553-0.779-0.553-1.272c0-0.523,0.218-0.938,0.673-1.252  c0.297-0.212,0.946-0.41,1.92-0.625c0.975-0.213,1.691-0.398,2.144-0.55V279.757z M253.143,285.45h3.526v-18.463h-3.526V285.45z   M239.724,277.324h9.269v-3.138h-9.269v-4.068h9.913v-3.131h-13.604v18.463h13.982v-3.128h-10.292V277.324z M282.008,282.354  c-0.422,0.381-0.967,0.586-1.634,0.586c-0.893,0-1.605-0.334-2.121-0.99c-0.525-0.66-0.791-1.783-0.791-3.381  c0-1.432,0.266-2.45,0.777-3.072c0.529-0.617,1.213-0.912,2.101-0.912c0.656,0,1.175,0.163,1.601,0.514  c0.41,0.349,0.672,0.842,0.79,1.527l3.485-0.604c-0.427-1.425-1.094-2.472-2.056-3.165c-0.959-0.694-2.243-1.038-3.872-1.038  c-1.971,0-3.555,0.615-4.697,1.841c-1.169,1.22-1.73,2.955-1.73,5.16c0,2.181,0.559,3.891,1.73,5.138  c1.142,1.226,2.701,1.854,4.64,1.854c1.71,0,3.079-0.414,4.097-1.252c1.021-0.806,1.715-2.027,2.072-3.63l-3.486-0.585  C282.73,281.305,282.428,281.967,282.008,282.354 M302.103,272.232c-0.436,0.272-0.932,0.856-1.495,1.757v-1.903h-3.266v13.364  h3.521v-4.104c0-2.283,0.12-3.757,0.308-4.479c0.189-0.703,0.468-1.201,0.788-1.474c0.351-0.269,0.775-0.399,1.267-0.399  c0.506,0,1.051,0.194,1.643,0.57l1.104-3.078c-0.759-0.458-1.504-0.663-2.336-0.663  C303.079,271.821,302.566,271.97,302.103,272.232 M293.659,282.856c-0.243,0-0.436-0.067-0.607-0.188  c-0.166-0.117-0.264-0.268-0.301-0.44c-0.052-0.195-0.086-0.823-0.086-1.928v-5.421h2.407v-2.794h-2.407v-4.698l-3.536,2.06v2.638  h-1.598v2.794h1.598v5.875c0,1.259,0.044,2.092,0.114,2.507c0.097,0.585,0.268,1.03,0.507,1.38  c0.226,0.349,0.601,0.633,1.091,0.828c0.529,0.221,1.104,0.344,1.724,0.344c1.045,0,1.962-0.203,2.76-0.536l-0.236-2.756  C294.459,282.735,293.989,282.856,293.659,282.856"></path></g></svg>