<svg xmlns="http://www.w3.org/2000/svg" xmlns:xlink="http://www.w3.org/1999/xlink" id="Layer_1" x="0px" y="0px" viewBox="0 0 1000 1000" style="enable-background:new 0 0 1000 1000;" xml:space="preserve"><style type="text/css">	.st0{fill-rule:evenodd;clip-rule:evenodd;fill:#D1D3D4;}	.st1{fill-rule:evenodd;clip-rule:evenodd;fill:#00AEEF;}	.st2{fill-rule:evenodd;clip-rule:evenodd;fill:#FBFBFB;}	.st3{fill-rule:evenodd;clip-rule:evenodd;fill:#ED1C24;}</style><g>	<path class="st0" d="M359.3,825.4c2.8,3.3,4.8,7.3,5.5,11.8c0.4,2.4,0.3,1,0.3,3.5c0,2.5,0.1,1.1-0.3,3.5  c-1.6,9.8-9.2,16.9-17.7,21.2c-9.4,4.8-20.5,6.8-31,6.8c-11.9,0-26.2-2.8-36.5-10.1c-9.7,5.3-21.6,7.4-32.1,7.4  c-10.5,0-21.6-2-31-6.8c-8.5-4.3-16.1-11.4-17.7-21.2c-0.4-2.4-0.3-1-0.3-3.5c0-2.5-0.1-1.1,0.3-3.5c1.3-8.4,7.2-14.8,14.2-19.2  l-55.1-3.8l-0.3-8.8c-1.7-58.1-68.2-133.7-33.3-188l3-4.7l91,3.4l-4.2,12.3c-6,17.9-9.6,36.4-7.7,55.3c1.4,14.6,5.9,27.6,11,41.2  c4.8,13,9.4,25.3,12,38.7l62.8,6.7c-0.6-4.1-1.6-8.2-3.1-12.2c-5.3-14.6-15.7-28.1-24.5-40.9c-17.3-24.9-29.8-48.7-23.8-80.3  l1.4-7.3l7.4-0.6c92-7.2,148.9,31.1,180.3,102.3c-2.5-9.4-4.8-18.9-6.7-28.3c-4.1-20.4-6.2-41.7-0.3-62l2.1-7.3l7.6,0.3  c12.6,0.5,27,1.5,42,3.2c-4.5-4-7.8-9.1-8.8-15.2c-0.4-2.4-0.3-1-0.3-3.5c0-2.5-0.1-1.1,0.3-3.5c0.7-4.7,2.9-8.7,5.8-12.1  c-55.8,1.2-114.8,2.4-170.1-4.2c-38-4.6-93.6-15-112.5-53.1c-3.9-7.9-6-16.3-6.3-25.1l-0.5-13.1l-7.7-2.2l-4.8-126.2  c41.3,12.2,76.7,21.5,120.5,24.6c3-12.2,7-24,11.9-35.3c-41.2-2.4-78.5-10.6-118.3-19.7c39.2-77.2,79.8-137.5,157.3-182  c54.6-31.2,116.3-45.4,179-42.3c112.3,5.6,228.9,69,275.4,174.9c13.2,30.2,20,62.5,19.6,95.4l-1.2,108.4  c-21.7,58.5-66.5,71.3-124.8,82.8c-43.1,8.5-89,12.5-134.2,14.6c4.1,3.9,7.2,8.7,8.1,14.6c0.4,2.4,0.3,1,0.3,3.5  c0,2.5,0.1,1.1-0.3,3.5c-1.6,9.8-9.2,16.9-17.7,21.2c-4.4,2.2-9.1,3.9-14,5c28.7,8.3,54.9,21.3,70.8,41.9l11.9,15.3l-28,0.5  c4.8,13.4,8.8,26.7,11.9,40.2l1.4,0c26.2-0.4,47.9,7.6,66.6,21.6c-6.2-14.8-12.6-29.4-17.6-44.7c-6.8-20.7-11.4-43.2-7.6-65  l1.6-9.3l9.3,1.3c27.8,3.9,61.5,10.6,91,23.8l89.4-16.7l3,1.7c33.6,18.3,63.6,48.2,63.4,88.9c-0.1,25.3-12.3,48.2-29.6,66.1  c-21.2,21.9-49.8,36.7-78.6,45.5l-1.8,0.6l-90.8-8.4c-3.6,16.9-11.7,31.8-24.2,44.5l-3.1,3.2l-86.5-6l12.6-14.7  c28.5-33.3,25.9-65.7,7.3-98.5c1.9,18.2,1.8,36.8-0.6,56l-1.2,9.1l-236-17.6l-0.2-8.8c-0.1-2.4-0.1-4.8-0.2-7.2  c-0.5,2.8-1.1,5.6-1.8,8.5l-1.9,8L359.3,825.4L359.3,825.4z M117.2,812.3v-21.1h9.4c1.9,0,3.3,0.2,4.3,0.6c1,0.4,1.8,1,2.4,2  c0.6,1,0.9,2,0.9,3.2c0,1.5-0.5,2.8-1.5,3.8c-1,1-2.5,1.7-4.5,2c0.7,0.4,1.3,0.7,1.7,1.1c0.8,0.7,1.6,1.7,2.3,2.8l3.7,5.8h-3.5  l-2.8-4.4c-0.8-1.3-1.5-2.2-2-2.9c-0.5-0.7-1-1.1-1.4-1.4c-0.4-0.3-0.8-0.5-1.3-0.6c-0.3-0.1-0.8-0.1-1.6-0.1H120v9.4H117.2  L117.2,812.3z M126.5,783.9c4.6,0,8.8,2,11.8,5.3c3,3.2,4.9,7.7,4.9,12.6c0,4.9-1.9,9.4-4.9,12.6c-3,3.2-7.2,5.3-11.8,5.3  s-8.8-2-11.8-5.3c-3-3.2-4.9-7.7-4.9-12.6c0-4.9,1.9-9.4,4.9-12.6C117.7,785.9,121.9,783.9,126.5,783.9L126.5,783.9z M136.5,790.8  c-2.6-2.8-6.1-4.5-10-4.5c-3.9,0-7.5,1.7-10,4.5c-2.6,2.8-4.2,6.6-4.2,10.9c0,4.3,1.6,8.1,4.2,10.9c2.6,2.8,6.1,4.5,10,4.5  c3.9,0,7.5-1.7,10-4.5c2.6-2.8,4.2-6.6,4.2-10.9C140.7,797.5,139.1,793.6,136.5,790.8L136.5,790.8z M120,800.5h6  c1.3,0,2.3-0.1,3-0.4c0.7-0.3,1.3-0.7,1.6-1.3c0.4-0.6,0.6-1.2,0.6-1.9c0-1-0.4-1.8-1.1-2.5c-0.7-0.6-1.9-1-3.4-1H120V800.5  L120,800.5z"></path>	<path class="st1" d="M350.7,813.3c2.8,3.3,4.8,7.3,5.5,11.8c0.4,2.4,0.3,1,0.3,3.5c0,2.5,0.1,1.1-0.3,3.5  c-1.6,9.8-9.2,16.9-17.7,21.2c-9.4,4.8-20.5,6.8-31,6.8c-11.9,0-26.2-2.8-36.5-10.1c-9.7,5.3-21.6,7.4-32.1,7.4  c-10.5,0-21.6-2-31-6.8c-8.5-4.3-16.1-11.4-17.7-21.2c-0.4-2.4-0.3-1-0.3-3.5c0-2.5-0.1-1.1,0.3-3.5c1.3-8.4,7.2-14.8,14.2-19.2  l-55.1-3.8l-0.3-8.8c-1.7-58.1-68.2-133.7-33.3-188l3-4.7l91,3.4l-4.2,12.3c-6,17.9-9.6,36.4-7.7,55.3c1.4,14.6,5.9,27.6,11,41.2  c4.8,13,9.4,25.3,12,38.7l62.8,6.7c-0.6-4.1-1.6-8.2-3.1-12.2c-5.3-14.6-15.7-28.1-24.5-40.9c-17.3-24.9-29.8-48.7-23.8-80.3  l1.4-7.3l7.4-0.6c92-7.2,148.9,31.1,180.3,102.3c-2.5-9.4-4.8-18.9-6.7-28.3c-4.1-20.4-6.2-41.7-0.3-62l2.1-7.3l7.6,0.3  c12.6,0.5,27,1.5,42,3.2c-4.5-4-7.8-9.1-8.8-15.2c-0.4-2.4-0.3-1-0.3-3.5c0-2.5-0.1-1.1,0.3-3.5c1.6-9.8,9.2-16.9,17.7-21.2  c9.4-4.8,20.5-6.8,31-6.8c10.5,0,21.6,2,31,6.8c8.5,4.3,16.1,11.4,17.7,21.2c0.4,2.4,0.3,1,0.3,3.5c0,2.5,0.1,1.1-0.3,3.5  c-1.6,9.8-9.2,16.9-17.7,21.2c-4.4,2.2-9.1,3.9-14,5c28.7,8.3,54.9,21.3,70.8,41.9l11.9,15.3l-28,0.5c4.8,13.4,8.8,26.7,11.9,40.2  l1.4,0c26.2-0.4,47.9,7.6,66.6,21.6c-6.2-14.8-12.6-29.4-17.6-44.7c-6.8-20.7-11.4-43.2-7.6-65l1.6-9.3l9.3,1.3  c27.8,3.9,61.5,10.6,91,23.8l89.4-16.7l3,1.7c33.6,18.3,63.6,48.2,63.4,88.9c-0.1,25.3-12.3,48.2-29.6,66.1  c-21.2,21.9-49.8,36.7-78.6,45.5l-1.8,0.6l-90.8-8.4c-3.6,16.9-11.7,31.8-24.2,44.5l-3.1,3.2l-86.5-6l12.6-14.7  c28.5-33.3,25.9-65.7,7.3-98.5c1.9,18.2,1.8,36.8-0.6,56l-1.2,9.1l-236-17.6l-0.2-8.8c-0.1-2.4-0.1-4.8-0.2-7.2  c-0.5,2.8-1.1,5.6-1.8,8.5l-1.9,8L350.7,813.3L350.7,813.3z M438.5,768.6l77,4.6l-4.2-25c-20.5,14.6-43.7,21.2-70,19l-3.3-0.3  C438.3,767.5,438.4,768,438.5,768.6L438.5,768.6z M795.3,736.8c5.2,6.9,9.8,14.2,13.7,21.9c0.5-5.6,0.4-11.2-0.5-16.9  c-2.1-13.5-7.9-25.5-16.1-36c3.3,5.3,6.1,11,8.2,17l5.8,16.2L795.3,736.8L795.3,736.8z M482.5,682.8c-0.1,7.2,1.3,13.1,3.5,21.3  c0.5,1.8,0.9,3.7,1.3,5.5c1.6-0.2,3.1-0.5,4.7-0.9c3.4-0.8,6.7-1.8,10-2.7c0.3-0.1,0.6-0.1,0.9-0.2l-2.9-20.9  C494.2,683.7,488.3,683,482.5,682.8L482.5,682.8z M704.8,709.6c5.5,16.3,13.1,32.3,20.3,47.5c4.1,8.8,8.3,17.6,12.1,26.6l16.1,1.3  c-1.8-9.2-5.3-18.4-8.6-26.7c-5.2-12.9-11.7-26.7-15.4-40.4C721.6,715,713.2,711.6,704.8,709.6L704.8,709.6z"></path>	<path class="st2" d="M124,607.8l72.4,2.7c-24.5,72.8,9.5,98.5,16.1,147.3l81.4,8.7c2.8-54-63.6-81.9-52.1-142.4  c91.5-7.1,161.3,30.2,188.9,153.7l96.5,5.8l-8.9-53.6c-23.8,22.5-49.4,29.7-76,27.5c-13.2-53.2-28.7-93.4-18.5-128.3  c78,3.3,137,19.6,162.4,52.3l-22.3,0.4c16.8,43.1,27.8,88,21.3,138.3l-218-16.3c-3-117.3-54.8-137.8-75.9-152.2  c18.2,50.5,73.5,72.1,54.7,151.5l-187-13C157,729.4,92.6,656.6,124,607.8L124,607.8z M757.1,664.9l64.9-12.1  c97.6,53,65.6,149.2-43,182.7l-97.9-9c-2,18.2-9.4,34.4-23,48.2l-62.7-4.3c36.9-43,27.1-86-4.3-129.1c33.9-0.5,62,14.1,88.1,47  c-3-31.6-46.3-91.5-37.4-143.2c74.8,10.5,132.8,34.3,149.5,81.1l-22.9-4.6c19.8,18.8,34.9,40.7,41.6,68.2  C833.1,742.1,810,692.8,757.1,664.9L757.1,664.9z M691.4,698.2c15.4-0.2,30.9,6.7,46.3,12.5c5.1,25,26,56.6,26.7,84.9l-33.8-2.7  C717.5,761.4,699,729.2,691.4,698.2L691.4,698.2z M506,582.2c21.7,0,39.2,9.8,39.2,21.8c0,12-17.6,21.8-39.2,21.8  c-21.7,0-39.2-9.7-39.2-21.8C466.8,591.9,484.3,582.2,506,582.2L506,582.2z M238.9,804.1c15.8,0,29.5,5.2,35.6,12.7  c7-6,19.1-10,33-10c21.7,0,39.2,9.7,39.2,21.8c0,12-17.6,21.8-39.2,21.8c-15.8,0-29.5-5.2-35.6-12.7c-7,6-19.1,10-33,10  c-21.7,0-39.2-9.8-39.2-21.8C199.7,813.8,217.3,804.1,238.9,804.1L238.9,804.1z M473.6,673.1c11.9-0.5,24.1,0.9,35.1,3.8l5.2,37  c-11.6,0.5-16.2,5.3-34.8,6.3C478,704.5,470.2,695.6,473.6,673.1L473.6,673.1z"></path>	<path class="st1" d="M108.5,800.2v-21.1h9.4c1.9,0,3.3,0.2,4.3,0.6c1,0.4,1.8,1,2.4,2c0.6,1,0.9,2,0.9,3.2c0,1.5-0.5,2.8-1.5,3.8  c-1,1-2.5,1.7-4.5,2c0.7,0.4,1.3,0.7,1.7,1.1c0.8,0.7,1.6,1.7,2.3,2.8l3.7,5.8h-3.5l-2.8-4.4c-0.8-1.3-1.5-2.2-2-2.9  c-0.5-0.7-1-1.1-1.4-1.4c-0.4-0.3-0.8-0.5-1.3-0.6c-0.3-0.1-0.8-0.1-1.6-0.1h-3.2v9.4H108.5L108.5,800.2z M117.8,771.8  c4.6,0,8.8,2,11.8,5.3c3,3.2,4.9,7.7,4.9,12.6c0,4.9-1.9,9.4-4.9,12.6c-3,3.2-7.2,5.3-11.8,5.3c-4.6,0-8.8-2-11.8-5.3  c-3-3.2-4.9-7.7-4.9-12.6c0-4.9,1.9-9.4,4.9-12.6C109,773.8,113.2,771.8,117.8,771.8L117.8,771.8z M127.9,778.7  c-2.6-2.8-6.1-4.5-10-4.5c-3.9,0-7.5,1.7-10,4.5c-2.6,2.8-4.2,6.6-4.2,10.9c0,4.3,1.6,8.1,4.2,10.9c2.6,2.8,6.1,4.5,10,4.5  c3.9,0,7.5-1.7,10-4.5c2.6-2.8,4.2-6.6,4.2-10.9C132.1,785.4,130.4,781.5,127.9,778.7L127.9,778.7z M111.3,788.4h6  c1.3,0,2.3-0.1,3-0.4c0.7-0.3,1.3-0.7,1.6-1.3c0.4-0.6,0.6-1.2,0.6-1.9c0-1-0.4-1.8-1.1-2.5c-0.7-0.6-1.9-1-3.4-1h-6.7V788.4  L111.3,788.4z"></path>	<path class="st1" d="M173.8,492.8l-7.7-2.2l-4.8-126.2l26,7.6c31,9.1,62.4,14.7,94.5,16.9c3-12.2,7-24,11.9-35.3  c-31.7-1.9-63.1-7-94-14.1l-24.2-5.6l11.3-22.2c33.5-65.9,81.5-122.8,146.1-159.8c54.6-31.2,116.3-45.4,179-42.3  c112.3,5.6,228.9,69,275.4,174.9c13.2,30.2,20,62.5,19.6,95.4l-1.2,108.4l2.3,0.9l-2.4,4.7l-0.1,5.4l-2.4-0.6l-4.9,9.6  c-20,39.3-77.6,54.9-117.3,62.8c-61.2,12.1-128,15-190.3,16.4c-8,0.2-16,0.4-23.9,0.5c-56.8,1.2-117,2.6-173.4-4.1  c-38-4.6-93.6-15-112.5-53.1c-3.9-7.9-6-16.3-6.3-25.1L173.8,492.8L173.8,492.8z M424.8,381.2c35.5-4.9,70.8-11,106.2-16.1  C497.6,342.7,451.7,350.8,424.8,381.2L424.8,381.2z"></path>	<path class="st2" d="M789.4,504.1c-18.3,35.9-74.4,50.5-110.6,57.7c-29.1,5.7-58.9,9.1-88.4,11.5c-33.3,2.7-66.8,4-100.2,4.8  c-8,0.2-15.9,0.4-23.9,0.5c-30.1,0.6-60.2,1.1-90.3,0.7c-27.2-0.4-54.7-1.5-81.8-4.7c-34-4.1-87.9-13.5-104.9-47.8  c-3.3-6.6-5-13.8-5.3-21.2l-0.5-11.9l11.7,1.9c55.2,8.8,110.4,11,166.2,8.3c49.3-2.4,97.9-8.6,146.8-15.5  c43.2-6.1,86.9-12.9,130.5-15.6c39.4-2.4,79.2-1.4,117.6,8.7c9.5,2.5,18.9,5.6,28,9.2l10,3.9L789.4,504.1L789.4,504.1z   M677.2,362.8c0.7,0,1.4,0,2.2,0c-25.7-63.8-80.4-111-148.4-125.9c-40.3-8.8-82.4-5.2-120.4,10.8c-43.9,18.5-78.2,51.5-102.8,91.9  l-3,4.9l-5.8-0.3c-32.7-1.6-65.2-6.8-97.1-14.2l-12.1-2.8l5.6-11.1c32.6-64.2,79.3-119.7,142.2-155.7  c52.9-30.3,112.8-44.1,173.7-41c56.7,2.8,112.9,20.2,161,50.4c45.6,28.6,84.2,69.1,106,118.7c12.7,28.9,19.1,59.9,18.8,91.4  l-1.2,107.1l-12-3c-77.2-19.5-153.4-16.6-231.7-7.3c-76.1,9.1-151.9,23.7-228.7,25c-47.8,0.8-94.8-3.7-141-16.7l-6.8-1.9  l-4.1-105.5l13,3.8c34.4,10.1,69.2,16,104.9,17.8c19.2-94.4,102-164.4,199.4-164.4C572.2,234.9,646.8,285.9,677.2,362.8  L677.2,362.8z M404.5,393.7c24-3,48-6.8,71.9-10.5c25.6-4,51.2-8,77-11.4C511,323.8,433.7,337.7,404.5,393.7L404.5,393.7z"></path>	<path class="st3" d="M780.7,499.7c-26.4,51.7-153.4,65.6-290.7,68.6c-142.3,3.2-293.5,6.6-296.2-63.2  C448,545.5,632.5,441,780.7,499.7L780.7,499.7z M181.7,390.8c40.4,11.9,78.6,17.3,115.7,18.6c15.2-94.8,96.6-164.7,191.4-164.7  c83.8,0,155,53.4,181.6,128c7.5-0.1,15.1-0.1,22.9,0c-55.8-168.7-286.9-213.9-393.9-38.1c-31.8-1.5-63.6-6.6-95.4-13.9  c167.1-329,554.8-185.4,583.2,59.2l-1.1,94.7C576,421.6,384.3,532,185,475.7L181.7,390.8L181.7,390.8z M389.1,405.3  c58.7-6.4,117.5-18.3,182-25.9C524.9,305.2,415.8,324.1,389.1,405.3L389.1,405.3z"></path></g></svg>