<svg xmlns="http://www.w3.org/2000/svg" xmlns:xlink="http://www.w3.org/1999/xlink" id="Layer_1" x="0px" y="0px" viewBox="0 0 512 512" style="enable-background:new 0 0 512 512;" xml:space="preserve"><g>	<g>		<path style="fill-rule:evenodd;clip-rule:evenodd;fill:#FFFFFF;" d="M171.22,452.268l0.484-206.374   c0-10.537,5.939-8.503,14.878-8.418l0.08-35.19c-8.805-0.226-14.822,1.875-14.822-6.076c4.595-22.819,52.971-64.117,83.016-69.677   c31.323,8.867,58.398,27.096,80.393,57.863c4.318,9.681,9.583,19.185-10.573,17.595v34.95c13.323,0.201,14.763-2.109,14.403,9.148   l1.096,205.683L171.22,452.268z"></path>		<path style="fill-rule:evenodd;clip-rule:evenodd;fill:#329866;" d="M346.597,470.413l-0.516-225.337   c0.212-11.816-3.123-16.301-12.307-16.548l-2.617-0.07l-0.072-19.148l2.47-0.219c5.454-0.483,9.124-2.642,10.909-6.418   c2.873-6.076,0.72-16.411-5.233-25.142c-19.445-27.19-51.02-49.138-84.585-58.826c-16.453,4.793-37.478,16.403-55.086,30.443   c-19.785,15.774-32.453,32.45-34.77,45.759c-0.497,4.1,0.637,8.168,3.041,10.891c2.11,2.391,5.128,3.654,8.728,3.654l0.264-0.002   l2.742-0.045l0.008,19.155l-2.682,0.018c-4.139,0.027-6.789,0.865-8.591,2.717c-2.156,2.215-3.192,6.13-3.079,11.638l0.76,226.17   l-10.26,9.602l-0.086-238.671c0-8.365,3.314-13.43,6.094-16.207c2.576-2.572,5.423-3.982,7.822-4.593v-0.909   c-10.342-3.374-15.002-13.665-15.002-22.86c0-14.246,13.028-33.179,35.744-51.946c20.933-17.294,45.552-30.613,64.25-34.762   l0.641-0.142l0.635,0.168c34.158,9.045,71.524,34.595,90.931,62.163c6.603,7.38,11.302,21.726,7.78,33.129   c-2.04,6.604-6.541,11.178-13.08,13.335l-0.016,2.336c2.649,0.624,5.791,2.165,8.542,5.067c3.229,3.405,6.953,9.799,6.379,20.928   l-0.027,234.068L346.597,470.413z"></path>		<path style="fill-rule:evenodd;clip-rule:evenodd;fill:#CFDA82;" d="M428.521,209.067l-1.467,270.504l-60.617-0.213l0.025-231.536   c0.633-13.681-3.956-22.323-8.326-27.381c2.671-3.14,4.716-6.883,6.031-11.144c4.71-15.245-1.321-33.144-9.537-42.724   c-20.71-29.103-60.093-55.985-96.073-65.515l-3.153-0.834l-3.177,0.706c-20.138,4.467-46.339,18.551-68.37,36.754   c-11.028,9.111-20.351,18.757-26.961,27.886c-8.265,11.424-12.458,22.196-12.458,32.007c0,8.879,2.995,16.98,8.07,23.096   c-4.132,5.124-6.993,12.166-6.993,21.216l0.086,237.11l-60.909,0.043l-0.664-260.164l-0.006-0.08   c-1.211-32-1.941-51.317,15.714-79.842c15.27-24.66,41.488-49.838,73.835-70.889c12.799-8.332,25.932-15.61,39.036-21.636   l0.268-0.128c0.305-0.133,0.603-0.274,0.901-0.408l0.086-0.037c0.128-0.061,0.256-0.122,0.383-0.171l0.104-0.048   c15.556-6.968,29.968-11.521,42.845-13.529c0.944,0.237,2.136,0.548,3.555,0.937l3.396,0.962l0.402,0.11l0.316,0.091   c13.846,3.907,28.75,9.439,43.107,15.994c9.677,4.425,19.013,9.251,27.752,14.357c24.021,14.041,43.667,30.01,58.37,47.459   c5.235,6.202,9.902,12.665,13.876,19.214C425.794,160.574,428.496,174.931,428.521,209.067"></path>		<path style="fill:#221F1F;" d="M428.137,480.665l-62.79-0.221l0.025-232.622c0.629-13.612-4.036-22.011-8.061-26.669l-0.611-0.707   l0.605-0.712c2.604-3.061,4.562-6.68,5.82-10.758c4.596-14.877-1.211-32.235-9.323-41.693l-0.06-0.078   c-20.554-28.882-59.81-55.65-95.464-65.094l-2.896-0.766l-2.918,0.648c-19.985,4.433-46.006,18.43-67.912,36.53   c-10.953,9.049-20.211,18.622-26.772,27.685c-8.129,11.236-12.251,21.789-12.251,31.367c0,8.369,2.777,16.325,7.819,22.401   l0.569,0.686l-0.56,0.694c-4.417,5.477-6.751,12.577-6.751,20.532l0.085,238.199l-63.085,0.044l-0.669-261.249   c-1.222-32.25-1.957-51.691,15.874-80.499c15.357-24.801,41.697-50.098,74.168-71.229c12.84-8.359,26.021-15.664,39.174-21.712   l0.254-0.122c0.205-0.091,0.378-0.17,0.549-0.248l0.475-0.213c0.115-0.055,0.249-0.118,0.385-0.172l0.069-0.032   c15.667-7.018,30.175-11.598,43.143-13.62L257.245,31l0.215,0.054c1.125,0.283,2.328,0.6,3.577,0.943l4.127,1.166   c13.878,3.917,28.839,9.467,43.258,16.05c9.737,4.452,19.106,9.299,27.849,14.407c24.138,14.109,43.873,30.157,58.654,47.697   c5.271,6.245,9.973,12.755,13.975,19.351c17.965,29.569,20.685,44.028,20.71,78.398v0.007L428.137,480.665z M367.527,478.272   l58.443,0.205l1.46-269.416c-0.024-33.892-2.704-48.147-20.393-77.262c-3.945-6.5-8.579-12.918-13.778-19.077   c-14.621-17.35-34.165-33.237-58.088-47.22c-8.681-5.072-17.986-9.885-27.656-14.307c-14.319-6.537-29.17-12.048-42.949-15.936   l-4.115-1.163c-1.146-0.314-2.261-0.609-3.308-0.875c-12.721,2.009-26.967,6.522-42.349,13.412l-0.161,0.072   c-0.098,0.038-0.195,0.085-0.293,0.131l-0.478,0.216c-0.181,0.082-0.363,0.166-0.548,0.247l-0.237,0.114   c-13.072,6.011-26.159,13.264-38.911,21.565c-32.208,20.961-58.312,46.016-73.504,70.55   c-17.48,28.244-16.755,47.434-15.551,79.227l0.007,0.118l0.66,259.076l58.732-0.041l-0.084-236.02   c0-8.128,2.31-15.439,6.69-21.205c-5.016-6.373-7.768-14.541-7.768-23.108c0-10.046,4.261-21.029,12.665-32.645   c6.668-9.21,16.056-18.923,27.149-28.087c22.155-18.305,48.529-32.474,68.828-36.977l3.435-0.764l3.409,0.902   c36.088,9.559,75.825,36.652,96.654,65.898c8.484,9.92,14.543,28.106,9.719,43.716c-1.25,4.052-3.15,7.686-5.655,10.817   c4.134,5.078,8.627,13.811,7.997,27.436L367.527,478.272z"></path>		<path style="fill-rule:evenodd;clip-rule:evenodd;fill:#8C5E25;" d="M222.889,179.063c7.033,1.231,18.638,7.921,29.446,14.571   c-3.3,2.109-6.633,4.179-9.984,6.022c-2.081-2.719-5.306-0.6-3.389,2.426c-2.612,1.647-6.188,4.486-7.288,1.069   c-2.89,3.119,0.044,6.235,2.85,5.018c2.044-1.154,4.09-2.307,6.135-3.46c1.329,3.444,5.649,1.338,3.582-1.864   c3.396-2.064,7.323-4.55,11.452-7.131c4.138,2.575,8.065,5.055,11.467,7.114c-2.059,3.205,2.26,5.305,3.586,1.859   c2.048,1.15,4.094,2.3,6.141,3.451c2.804,1.213,5.735-1.908,2.839-5.022c-1.095,3.418-4.673,0.584-7.291-1.059   c1.918-3.029-1.312-5.143-3.386-2.421c-3.356-1.838-6.693-3.903-9.994-6.007c10.798-6.667,22.392-13.373,29.428-14.615   c-9.711-2.348-20.974,4.853-32.792,12.464C243.867,183.885,232.598,176.7,222.889,179.063"></path>		<path style="fill-rule:evenodd;clip-rule:evenodd;" d="M224.833,179.107c3.263,0.883,7.235,2.636,11.529,4.862   c5.14,2.661,10.751,6.002,16.162,9.334l0.531,0.325l-0.526,0.338c-1.666,1.063-3.333,2.113-4.978,3.113   c-1.662,1.009-3.335,1.99-5.027,2.922l-0.271,0.149l-0.194-0.25c-0.657-0.862-1.427-1.175-2.062-1.098   c-0.25,0.031-0.479,0.12-0.67,0.261c-0.187,0.137-0.343,0.329-0.444,0.555c-0.246,0.552-0.187,1.347,0.389,2.254l0.208,0.325   l-0.319,0.212v0.002l-0.01,0.006c-0.319,0.202-0.592,0.379-0.87,0.561c-1.128,0.736-2.348,1.534-3.469,1.924   c-1.363,0.475-2.557,0.377-3.252-1.025c-0.513,0.7-0.724,1.371-0.703,1.969c0.014,0.437,0.149,0.835,0.375,1.169   c0.23,0.339,0.549,0.612,0.928,0.792c0.632,0.301,1.419,0.347,2.201,0.014l6.122-3.45l0.366-0.209l0.156,0.404   c0.397,1.027,1.079,1.481,1.732,1.523h0.002c0.304,0.021,0.6-0.047,0.859-0.186c0.258-0.135,0.476-0.341,0.621-0.603   c0.302-0.539,0.302-1.326-0.285-2.238l-0.219-0.339l0.336-0.209l0.003-0.004c2.436-1.477,5.117-3.16,7.95-4.935   c0.972-0.61,1.975-1.236,3.5-2.192l0.183-0.112l0.184,0.101l0.004,0.003l0.013,0.008c1.559,0.971,2.533,1.578,3.481,2.172   c2.845,1.778,5.539,3.459,7.982,4.939l0.342,0.207l-0.221,0.345c-0.586,0.913-0.59,1.699-0.284,2.238   c0.146,0.262,0.366,0.467,0.622,0.602c0.256,0.139,0.557,0.207,0.857,0.185c0.657-0.043,1.339-0.499,1.734-1.526l0.155-0.404   l0.367,0.209l6.125,3.44c0.778,0.332,1.569,0.285,2.202-0.016c0.375-0.18,0.695-0.454,0.92-0.794   c0.226-0.335,0.367-0.732,0.381-1.17c0.016-0.597-0.196-1.269-0.707-1.968c-0.699,1.4-1.89,1.502-3.254,1.029   c-1.12-0.388-2.343-1.184-3.471-1.919c-0.281-0.181-0.552-0.358-0.874-0.559l-0.331-0.208l0.215-0.336   c0.57-0.908,0.63-1.703,0.38-2.255c-0.096-0.227-0.252-0.417-0.437-0.555c-0.195-0.141-0.422-0.229-0.673-0.259   c-0.636-0.075-1.403,0.238-2.06,1.101l-0.195,0.25l-0.271-0.148c-1.691-0.93-3.371-1.909-5.032-2.915   c-1.646-0.997-3.31-2.045-4.981-3.106l-0.527-0.337l0.531-0.326c5.404-3.343,11.013-6.689,16.147-9.358   c4.291-2.232,8.265-3.991,11.525-4.879c-4.243-0.493-8.776,0.692-13.514,2.806c-5.485,2.449-11.239,6.143-17.133,9.939   l-0.198,0.126l-0.195-0.125c-5.897-3.787-11.659-7.473-17.144-9.914C233.61,179.786,229.075,178.608,224.833,179.107    M236.032,184.662L236.032,184.662c-5.102-2.641-9.727-4.607-13.202-5.218l-1.829-0.319l1.805-0.439   c4.941-1.204,10.258,0.015,15.836,2.495c5.47,2.432,11.192,6.082,17.051,9.844c5.854-3.77,11.569-7.428,17.037-9.869   c5.571-2.488,10.89-3.715,15.832-2.518l1.805,0.436l-1.825,0.322c-3.474,0.615-8.097,2.589-13.201,5.237   c-4.947,2.574-10.341,5.781-15.571,9.003c1.466,0.924,2.94,1.851,4.446,2.762c1.586,0.958,3.166,1.884,4.74,2.75   c0.797-0.907,1.73-1.236,2.528-1.139c0.372,0.044,0.723,0.181,1.013,0.394c0.292,0.219,0.532,0.511,0.688,0.862   c0.311,0.702,0.302,1.635-0.24,2.662c0.176,0.118,0.372,0.243,0.568,0.371c1.094,0.71,2.278,1.481,3.312,1.84   c1.133,0.393,2.1,0.262,2.55-1.144l0.196-0.604l0.427,0.458c0.948,1.023,1.32,2.063,1.292,2.98c-0.016,0.6-0.2,1.142-0.506,1.595   c-0.306,0.453-0.727,0.811-1.223,1.052c-0.812,0.391-1.825,0.453-2.818,0.022l-0.016-0.007l-0.015-0.012l-5.794-3.254   c-0.541,1.073-1.383,1.564-2.206,1.617c-0.436,0.029-0.867-0.067-1.243-0.268c-0.375-0.201-0.702-0.509-0.924-0.899   c-0.392-0.699-0.452-1.649,0.104-2.708c-2.337-1.42-4.931-3.041-7.666-4.751c-1.229-0.765-2.475-1.546-3.285-2.051   c-0.848,0.53-2.086,1.304-3.31,2.072c-2.721,1.705-5.305,3.326-7.632,4.746c0.559,1.059,0.498,2.009,0.102,2.709   c-0.218,0.389-0.541,0.698-0.919,0.9c-0.377,0.201-0.807,0.299-1.246,0.27c-0.821-0.053-1.662-0.542-2.203-1.614l-5.79,3.263   l-0.017,0.012l-0.014,0.006c-0.993,0.432-2.003,0.372-2.819-0.017c-0.495-0.24-0.919-0.598-1.222-1.051   c-0.309-0.452-0.493-0.994-0.514-1.594c-0.025-0.917,0.345-1.957,1.291-2.982l0.428-0.458l0.196,0.603   c0.451,1.405,1.419,1.535,2.551,1.14c1.036-0.361,2.219-1.133,3.308-1.845c0.198-0.128,0.392-0.253,0.569-0.371   c-0.545-1.026-0.558-1.959-0.245-2.662c0.155-0.351,0.396-0.643,0.689-0.863c0.291-0.214,0.636-0.351,1.013-0.396   c0.799-0.098,1.729,0.23,2.528,1.135c1.572-0.868,3.153-1.796,4.735-2.757c1.502-0.914,2.98-1.843,4.441-2.769   C246.384,190.43,240.989,187.229,236.032,184.662"></path>	</g>	<g>		<defs>			<path id="SVGID_1_" d="M253.925,144.386c-3.373-0.576-6.937-0.351-8.105,1.969c1.108-0.205,2.728,0.223,2.877,0.756    c-2.598,0.584-5.215,0.405-6.416,4.535c1.155-0.533,2.407-0.761,3.756-0.691c-1.754,1.869-2.972,4.829-2.357,9.427    c1.249-1.899,2.403-3.27,3.939-4.506c-0.157,1.97-0.669,5.09,0.051,7.323c1.096-2.349,1.937-4.096,2.874-5.078    c0.227,2.442,0.613,4.787,1.643,6.827c0.678-1.5,1.103-2.099,1.816-2.498l0.026,18.021l-0.974-0.017    c-0.33,5.358,5.518,5.253,5.103,0.028l-1.051,0.001c0.075-5.857,0.241-12.245-0.006-18.056c0.694,0.156,1.898,0.842,2.561,1.932    c0.689-2.093,0.929-4.329,0.822-6.506c1.53,1.315,2.59,3.164,3.514,4.549c0.634-2.422,0.197-4.744-0.442-7.22    c1.816,1.035,2.865,3.196,3.665,4.825c1.476-2.739,0.054-6.906-2.33-8.611c0.582-0.503,3.155-0.244,4.253,0.025    c-0.634-2.81-3.503-3.763-6.798-3.761c0.421-0.801,1.884-1.654,2.932-1.642c-2.342-2.595-5.28-1.53-7.407-1.27    c-0.171-1.41-0.696-2.752-1.953-4.229C254.856,141.707,254.031,142.795,253.925,144.386"></path>		</defs>		<clipPath id="SVGID_2_">			<use xlink:href="#SVGID_1_" style="overflow:visible;"></use>		</clipPath>					<linearGradient id="SVGID_3_" gradientUnits="userSpaceOnUse" x1="-594.2145" y1="822.5513" x2="-593.6696" y2="822.5513" gradientTransform="matrix(0 -57.2115 -57.2115 0 47315.0938 -33817.8359)">			<stop offset="0" style="stop-color:#FAF5B9"></stop>			<stop offset="1" style="stop-color:#DDE35B"></stop>		</linearGradient>		<rect x="242.281" y="140.519" style="clip-path:url(#SVGID_2_);fill:url(#SVGID_3_);" width="26.865" height="45.293"></rect>	</g>	<g>		<path style="fill-rule:evenodd;clip-rule:evenodd;" d="M269.506,151.327v0.003l0.136,0.605l-0.581-0.14   c-0.763-0.186-2.262-0.366-3.251-0.278c-0.05,0.008-0.1,0.014-0.145,0.019c1.506,1.397,2.529,3.734,2.527,5.917   c0.001,0.482-0.049,0.959-0.155,1.416c-0.111,0.466-0.27,0.913-0.49,1.324h-0.005l-0.336,0.644l-0.32-0.657l-0.006-0.01   c-0.643-1.327-1.461-3.007-2.715-4.089c0.21,0.906,0.376,1.797,0.457,2.694c0.116,1.233,0.068,2.466-0.262,3.724l-0.211,0.8   l-0.457-0.679c-0.125-0.191-0.311-0.475-0.501-0.767c-0.653-1.009-1.386-2.145-2.31-3.101c0.007,1.296-0.113,2.604-0.373,3.881   c-0.065,0.3-0.135,0.607-0.221,0.921c-0.08,0.311-0.17,0.616-0.264,0.911h-0.006l-0.004,0.019l-0.251,0.758l-0.411-0.677   c-0.437-0.711-1.129-1.237-1.726-1.532c-0.045-0.022-0.087-0.044-0.132-0.062c0.181,4.652,0.104,9.65,0.032,14.432   c-0.014,0.909-0.029,1.814-0.04,2.693l0.674-0.001l0.347-0.001l0.025,0.354c0.157,1.969-0.525,3.284-1.469,3.923   c-0.434,0.295-0.922,0.447-1.416,0.449c-0.492,0.006-0.984-0.137-1.424-0.426c-0.956-0.627-1.661-1.947-1.537-3.966l0.021-0.366   l0.355,0.004l0.594,0.01l-0.021-16.869c-0.088,0.092-0.171,0.191-0.253,0.309c-0.263,0.362-0.526,0.866-0.856,1.592l-0.319,0.707   l-0.347-0.69c-0.532-1.055-0.897-2.181-1.155-3.356c-0.195-0.877-0.332-1.785-0.436-2.711c-0.258,0.366-0.513,0.793-0.776,1.279   c-0.458,0.839-0.939,1.859-1.483,3.029l-0.4,0.852l-0.289-0.899c-0.621-1.925-0.37-4.422-0.176-6.366l0.02-0.194   c-0.476,0.432-0.919,0.886-1.343,1.378c-0.627,0.719-1.217,1.526-1.831,2.462l-0.544,0.829l-0.133-0.994   c-0.457-3.403,0.07-5.943,1.078-7.826c0.198-0.368,0.416-0.713,0.646-1.033c0.058-0.085,0.12-0.162,0.18-0.242   c-0.632,0.028-1.242,0.128-1.825,0.3c-0.173,0.053-0.333,0.107-0.479,0.161c-0.155,0.056-0.31,0.121-0.469,0.196l-0.014,0.008   l-0.738,0.333l0.233-0.799c1.096-3.765,3.272-4.163,5.591-4.587l0.294-0.051c-0.281-0.086-0.639-0.157-1.006-0.187   c-0.167-0.016-0.329-0.021-0.476-0.017c-0.149,0.004-0.294,0.02-0.437,0.044v0.003h-0.004l-0.745,0.135l0.35-0.695   c0.914-1.824,3.116-2.464,5.601-2.448c0.47,0.006,0.949,0.031,1.434,0.078c0.358,0.033,0.719,0.08,1.073,0.132   c0.1-0.681,0.328-1.277,0.643-1.833c0.371-0.649,0.855-1.238,1.404-1.851l0.278-0.311l0.274,0.315   c0.656,0.771,1.119,1.509,1.443,2.237c0.272,0.606,0.444,1.209,0.549,1.818c0.221-0.032,0.451-0.075,0.687-0.113   c2.065-0.355,4.567-0.785,6.676,1.547l0.596,0.663l-0.872-0.01c-0.647-0.007-1.489,0.368-2.071,0.846l-0.055,0.044   c2.141,0.106,4.053,0.66,5.237,1.91c0.271,0.283,0.501,0.599,0.688,0.953c0.191,0.354,0.337,0.743,0.432,1.17V151.327z    M268.604,150.916L268.604,150.916c-0.056-0.135-0.115-0.265-0.181-0.388c-0.156-0.292-0.341-0.553-0.562-0.784   c-1.174-1.237-3.235-1.697-5.512-1.695l-0.632,0.001l0.305-0.576c0,0,0.021-0.037,0.041-0.07V147.4   c0.074-0.13,0.18-0.266,0.3-0.399c0.115-0.124,0.241-0.247,0.387-0.362c0.471-0.386,1.097-0.718,1.708-0.888   c-1.73-1.427-3.761-1.078-5.466-0.785c-0.376,0.063-0.743,0.125-1.073,0.167l-0.368,0.045l-0.045-0.381   c-0.081-0.667-0.247-1.318-0.538-1.974c-0.251-0.563-0.592-1.132-1.057-1.72c-0.401,0.462-0.755,0.914-1.025,1.395   c-0.326,0.571-0.539,1.186-0.585,1.913l-0.031,0.426l-0.403-0.071l-0.013-0.003c-0.469-0.077-0.938-0.143-1.395-0.186   c-0.461-0.044-0.923-0.069-1.368-0.075c-1.894-0.011-3.588,0.373-4.52,1.416c0.1,0.003,0.201,0.011,0.299,0.018   c1.023,0.09,2.037,0.533,2.187,1.064l0.113,0.403l-0.394,0.087l-0.012,0.001c-0.387,0.087-0.755,0.155-1.119,0.22   c-1.912,0.351-3.716,0.681-4.743,3.275c0.098-0.034,0.192-0.065,0.285-0.092c0.906-0.27,1.863-0.378,2.87-0.326l0.805,0.04   l-0.551,0.612l-0.004,0.001l-0.003,0.007c-0.236,0.25-0.462,0.521-0.672,0.811c-0.209,0.29-0.407,0.607-0.587,0.946   c-0.837,1.562-1.315,3.626-1.099,6.342c0.435-0.621,0.871-1.184,1.322-1.707c0.649-0.748,1.339-1.416,2.126-2.051l0.669-0.538   l-0.069,0.876v0.012c-0.026,0.303-0.065,0.696-0.105,1.114c-0.156,1.534-0.346,3.427-0.098,5.032   c0.374-0.782,0.717-1.489,1.054-2.11c0.479-0.881,0.942-1.591,1.435-2.109l0.56-0.585l0.075,0.822   c0.111,1.203,0.265,2.381,0.515,3.513c0.188,0.856,0.435,1.685,0.763,2.467c0.206-0.412,0.398-0.742,0.594-1.01   c0.316-0.438,0.639-0.719,1.042-0.946l0.547-0.307l0.001,0.649l0.024,18.022v0.39l-0.375-0.004l-0.607-0.01   c-0.01,1.483,0.511,2.442,1.2,2.895c0.319,0.209,0.671,0.312,1.025,0.309c0.35-0.003,0.701-0.112,1.016-0.327   c0.681-0.46,1.182-1.412,1.151-2.857l-0.7,0.001h-0.375l0.003-0.39l0.001-0.068c0.013-1,0.028-2.003,0.045-3.017   c0.074-4.96,0.153-10.153-0.051-14.947l-0.022-0.501l0.469,0.104h0.004h0.003c0.107,0.022,0.228,0.062,0.365,0.114v-0.003   c0.125,0.047,0.257,0.104,0.396,0.172c0.517,0.254,1.1,0.663,1.576,1.205c0.021-0.062,0.035-0.124,0.051-0.187h0.004   c0.07-0.278,0.139-0.574,0.201-0.876c0.315-1.514,0.414-3.074,0.337-4.603l-0.045-0.857l0.646,0.537v0.002l0.006,0.003   c1.309,1.12,2.264,2.595,3.092,3.867l0.01,0.015c0.135-0.864,0.144-1.725,0.064-2.593c-0.107-1.162-0.373-2.342-0.685-3.565   l-0.23-0.894l0.772,0.461h0.005c1.646,0.94,2.675,2.719,3.447,4.264c0.051-0.139,0.086-0.278,0.12-0.421   c0.09-0.398,0.135-0.816,0.134-1.237c0.005-2.208-1.145-4.578-2.766-5.739l-0.402-0.284l0.371-0.329l0.006-0.006   c0.125-0.107,0.295-0.187,0.496-0.245c0.166-0.047,0.366-0.077,0.591-0.099C266.583,150.671,267.746,150.773,268.604,150.916"></path>		<polygon style="fill-rule:evenodd;clip-rule:evenodd;fill:#9C6D40;" points="324.451,305.814 273.327,359.035 271.847,357.498    322.977,304.282   "></polygon>		<polygon style="fill-rule:evenodd;clip-rule:evenodd;fill:#9C6D40;" points="316.659,269.432 268.626,355.352 266.82,354.269    314.857,268.35   "></polygon>		<polygon style="fill-rule:evenodd;clip-rule:evenodd;fill:#9C6D40;" points="304.536,191.595 262.972,353.205 260.955,352.642    302.519,191.037   "></polygon>		<polygon style="fill-rule:evenodd;clip-rule:evenodd;fill:#9C6D40;" points="255.042,351.469 254.318,225.24 256.395,225.23    257.121,351.463   "></polygon>		<polygon style="fill-rule:evenodd;clip-rule:evenodd;fill:#9C6D40;" points="187.065,305.915 238.265,359.06 239.74,357.522    188.541,304.381   "></polygon>		<polygon style="fill-rule:evenodd;clip-rule:evenodd;fill:#9C6D40;" points="194.807,269.522 242.962,355.371 244.761,354.286    196.61,268.436   "></polygon>		<polygon style="fill-rule:evenodd;clip-rule:evenodd;fill:#9C6D40;" points="206.827,191.667 248.614,353.215 250.626,352.649    208.842,191.106   "></polygon>		<path style="fill-rule:evenodd;clip-rule:evenodd;fill:#A0782B;" d="M222.673,365.921c17.661,4.219,15.842-8.139,33.929-0.29   l-0.467,54.063c-26.834-15.186-29.849,5.115-61.845-4.834L222.673,365.921z"></path>		<path style="fill-rule:evenodd;clip-rule:evenodd;fill:#A0782B;" d="M290.242,365.871c-17.655,4.245-15.853-8.115-33.928-0.239   l0.541,54.062c26.815-15.226,29.858,5.072,61.84-4.925L290.242,365.871z"></path>	</g>	<g>		<path style="fill-rule:evenodd;clip-rule:evenodd;fill:#FFCA11;" d="M286.209,372.568c-6.549,0.926-9.643-0.415-12.548-1.681   c-3.03-1.322-5.839-2.539-12.808-0.526l0.925,38.874c11.706-4.711,19.936-2.214,27.516,0.084   c5.914,1.793,11.41,3.463,17.834,1.268L286.209,372.568z M274.292,369.324L274.292,369.324c4.393,1.915,7.994,2.147,12.773,1.397   l22.43,40.762c-7.421,2.919-13.324,1.683-20.647-0.543c-10.407-3.156-18.287-3.691-28.633,0.788l-1.017-42.622   C264.873,367.37,268.904,366.98,274.292,369.324"></path>		<path style="fill-rule:evenodd;clip-rule:evenodd;fill:#FFCA11;" d="M205.945,410.586c6.424,2.195,11.92,0.525,17.834-1.268   c7.58-2.298,15.81-4.795,27.516-0.084l0.925-38.874c-6.969-2.013-9.778-0.796-12.808,0.526c-2.905,1.266-5.999,2.607-12.548,1.681   L205.945,410.586z M238.781,369.324c5.388-2.343,9.419-1.954,15.095-0.219l-1.017,42.622c-10.347-4.479-18.226-3.944-28.633-0.788   c-7.324,2.226-13.227,3.462-20.647,0.543l22.43-40.762C230.786,371.47,234.388,371.239,238.781,369.324L238.781,369.324"></path>		<polygon style="fill-rule:evenodd;clip-rule:evenodd;fill:#FFFFFF;" points="167.777,461.345 344.739,461.218 348.708,465.52    163.293,465.653   "></polygon>		<polygon style="fill-rule:evenodd;clip-rule:evenodd;fill:#FFFFFF;" points="174.674,453.616 344.127,453.495 347.919,457.797    170.391,457.925   "></polygon>		<polygon style="fill-rule:evenodd;clip-rule:evenodd;fill:#FFFFFF;" points="161.891,472.181 350.152,472.045 354.392,475.848    157.104,475.991   "></polygon>		<path style="fill-rule:evenodd;clip-rule:evenodd;" d="M191.076,423.318l6.943-0.005c-2.079-0.566-4.12-1.383-6.098-2.543   l1.852-5.694c33.455,9.144,39.154-11.058,62.769,5.135c25.183-16.225,30.704,4.371,62.542-5.212l1.664,5.582   c-3.168,1.139-6.382,2.027-9.707,2.649l10.195-0.007l0.003,3.935l-60.573,0.045c-3.275-3.735-4.909-3.64-8.108,0.005   l-61.479,0.045L191.076,423.318z M223.901,423.294L223.901,423.294l21.869-0.016C239.074,419.675,228.838,420.768,223.901,423.294    M266.56,423.262L266.56,423.262l22.155-0.016C279.747,419.656,272.251,420.834,266.56,423.262 M254.224,421.223L254.224,421.223   l-0.027-0.02l0.039-0.083c-9.355-7.953-17.866-6.322-27.814-4.411c-8.865,1.701-18.874,3.62-31.649-0.842l-0.065,0.486   c12.784,4.463,22.803,2.541,31.675,0.836c9.939-1.909,18.438-3.537,27.781,4.431l0.06-0.136l-0.026-0.02l0.039-0.089l-0.057-0.047   L254.224,421.223z M194.234,417.399L194.234,417.399c12.565,4.261,22.451,2.36,31.215,0.677   c10.073-1.932,18.67-3.585,28.164,4.763l0.063-0.135l-0.028-0.026l0.038-0.084l-0.056-0.047l0.045-0.105l-0.028-0.02l0.038-0.083   c-9.506-8.328-18.113-6.68-28.199-4.744c-8.758,1.68-18.633,3.578-31.188-0.681L194.234,417.399z M193.852,418.251   L193.852,418.251c12.537,4.233,22.405,2.339,31.154,0.659c10.094-1.937,18.701-3.589,28.213,4.805l0.062-0.136l-0.028-0.026   l0.041-0.083l-0.058-0.047l0.045-0.104l-0.027-0.02l0.04-0.086c-9.527-8.38-18.146-6.725-28.25-4.784   c-8.741,1.68-18.599,3.569-31.128-0.666L193.852,418.251z M193.464,419.11L193.464,419.11c12.537,4.233,22.405,2.339,31.157,0.659   c10.091-1.941,18.698-3.59,28.212,4.805l0.063-0.139l-0.028-0.021l0.038-0.085l-0.055-0.047l0.045-0.102l-0.027-0.021l0.038-0.083   c-9.524-8.38-18.146-6.727-28.247-4.786c-8.744,1.68-18.602,3.569-31.128-0.664L193.464,419.11z M193.108,419.903L193.108,419.903   c12.537,4.229,22.405,2.34,31.156,0.655c10.094-1.936,18.699-3.584,28.214,4.806l0.062-0.136l-0.027-0.021l0.038-0.088   l-0.056-0.047l0.045-0.099l-0.028-0.026l0.038-0.083c-9.526-8.38-18.144-6.727-28.249-4.785   c-8.743,1.679-18.601,3.572-31.128-0.665L193.108,419.903z M192.737,420.726L192.737,420.726   c12.537,4.233,22.405,2.34,31.156,0.66c10.09-1.935,18.699-3.589,28.213,4.806l0.061-0.136l-0.026-0.026l0.038-0.082l-0.058-0.047   l0.046-0.104l-0.026-0.022l0.038-0.083c-9.527-8.38-18.146-6.727-28.25-4.786c-8.741,1.68-18.599,3.569-31.127-0.664   L192.737,420.726z M258.736,421.409L258.736,421.409c0.084,0.186-0.021,0.297,0.076,0.506c9.332-8.129,17.833-6.598,27.769-4.822   c8.876,1.703,18.898,3.629,31.683-0.831c-0.076-0.157,0.019-0.298-0.065-0.485c-12.771,4.45-22.786,2.524-31.652,0.81   C276.595,414.822,268.083,413.29,258.736,421.409 M318.735,417.308L318.735,417.308c-0.075-0.156,0.02-0.292-0.065-0.484   c-12.549,4.277-22.43,2.393-31.186,0.726c-10.086-1.922-18.698-3.557-28.196,4.786l0.041,0.083l-0.031,0.02l0.05,0.105   l-0.059,0.047l0.04,0.085l-0.031,0.026l0.066,0.135c9.482-8.363,18.079-6.723,28.154-4.805   C296.29,419.702,306.174,421.587,318.735,417.308 M319.117,418.158L319.117,418.158l-0.066-0.486   c-12.519,4.254-22.379,2.379-31.126,0.712c-10.106-1.926-18.728-3.568-28.241,4.825l0.041,0.086l-0.03,0.02l0.045,0.104   l-0.056,0.047l0.041,0.083l-0.03,0.026l0.065,0.136c9.503-8.408,18.108-6.768,28.205-4.847   C296.717,420.53,306.588,422.41,319.117,418.158 M319.509,419.017L319.509,419.017c-0.08-0.256,0.01-0.197-0.066-0.484   c-12.523,4.252-22.384,2.377-31.125,0.71c-10.107-1.927-18.728-3.566-28.246,4.828l0.041,0.083l-0.025,0.021l0.045,0.102   l-0.061,0.047l0.041,0.086l-0.025,0.021l0.06,0.139c9.502-8.409,18.114-6.773,28.204-4.848   C297.104,421.39,306.975,423.269,319.509,419.017 M319.866,419.809L319.866,419.809c-0.071-0.162,0.014-0.302-0.066-0.49   c-12.524,4.256-22.385,2.376-31.132,0.712c-10.102-1.928-18.723-3.568-28.24,4.826l0.041,0.083l-0.031,0.026l0.05,0.1   l-0.059,0.047l0.041,0.088l-0.031,0.021l0.065,0.136c9.503-8.404,18.114-6.769,28.204-4.848   C297.461,422.182,307.331,424.057,319.866,419.809 M320.238,420.633L320.238,420.633c-0.071-0.156,0.025-0.292-0.066-0.485   c-12.52,4.253-22.384,2.378-31.127,0.71c-10.106-1.926-18.728-3.566-28.24,4.828l0.035,0.083l-0.025,0.021l0.045,0.104   l-0.056,0.047l0.035,0.083l-0.025,0.026l0.061,0.136c9.501-8.41,18.114-6.769,28.205-4.849   C297.837,423.005,307.707,424.884,320.238,420.633"></path>		<path style="fill-rule:evenodd;clip-rule:evenodd;" d="M238.474,364.402c6.636-2.674,11.38-2.051,17.982,0.748   c6.602-2.808,11.346-3.438,17.982-0.774c5.589,2.239,10.017,2.491,15.984,1.059l28.838,49.565   c-11.53,3.598-20.774,3.705-32.264,0.946c-11.788-2.827-19.534-1.837-30.496,4.391v0.004l-0.007,0.004l-0.006-0.004v-0.004   c-10.967-6.212-18.716-7.19-30.498-4.345c-11.486,2.776-20.73,2.683-32.265-0.899l28.771-49.608   C228.464,366.908,232.889,366.649,238.474,364.402 M256.973,365.765L256.973,365.765l-0.135,15.388l0.38,37.894   c13.863-7.714,21.37-5.911,29.943-3.859c7.649,1.84,16.166,3.883,30.961-0.647l-28.06-48.233   c-8.124,1.899-12.137,0.291-15.889-1.212C270,363.426,266.152,361.885,256.973,365.765 M256.096,381.164L256.096,381.164   l-0.153-15.394c-9.183-3.871-13.031-2.326-17.2-0.648c-3.751,1.508-7.765,3.123-15.889,1.235l-27.994,48.275   c14.804,4.508,23.315,2.454,30.962,0.602c8.568-2.066,16.075-3.879,29.946,3.815L256.096,381.164z"></path>		<path style="fill-rule:evenodd;clip-rule:evenodd;fill:#221F1F;" d="M119.06,207.412c-2.043,3.476-7.502,6.182-11.487,4.476   c-7.051-3.017-8.097-13.939-1.687-18.898c0.205-0.197,1.956-1.812,0.283,0.675c-1.194,3.339-1.563,10.765,1.613,16.471   c3.403-0.45,9.712-4.444,9.786-9.86c-0.298-2.923-1.824-9.9-2.65-13.675c1.082,0.607,2.328,1.714,3.389,2.452   c0.503,4.494,2.8,12.957,3.957,18.012c0.744,3.253,1.526,6.296,1.854,8.796c1.753,0.463,4.69,1.546,6.381,2.752   c4.63,3.979,10.451,12.615,11.788,19.748c1.104,5.891-3.176,10.888-8.903,11.134c-4.535,0.195-9.578-1.725-13.306-4.457   c-2.464-1.624-3.461-2.916-0.186-0.924c3.807,2.448,8.911,4.848,13.381,2.907c3.144-1.364,4.793-4.699,4.759-7.98   c-0.066-6.434-7.301-16.257-11.555-21.114c-1.339,0.258-1.543,0.473-2.091,0.727c0.21,3.408,0.07,6.109-0.848,7.641   c-1.816,3.028-5.606,1.978-7.917-0.002c-3.519-3.014-3.563-8.269,4.646-10.676C119.932,211.88,119.487,209.537,119.06,207.412    M120.179,219.992c-3.578,2.127-3.151,4.103-1.461,5.283C120.111,224.719,120.162,221.715,120.179,219.992"></path>		<path style="fill-rule:evenodd;clip-rule:evenodd;fill:#221F1F;" d="M121.128,373.427l4.96,1.537   c0.789-0.693,1.044-0.925,1.808-1.391c1.186,1.448,0.576,5.474-1.552,6.28c-0.49,0.235-1.227-0.034-1.878-0.281   c-2.089-0.867-1.497,0.058-0.402,0.641c1.458,0.7,2.445,1.149,3.527,2.092c3.001,2.283,2.641,6.98,0.452,8.052   c-0.531,0.266-1.723,0.182-2.499-0.124c-1.218-0.481-1.2,0.196-0.327,1.414c0.663,0.712,2.375,2.287,2.939,3.147   c3.431,4.702,4.289,10.386-0.275,13.119c-2.438,1.46-5.29,1.577-8.027,1.794c-8.754,0.691-21.67,0.988-29.195,4.066   c1.168,0.533,4.052,1.542,4.508,1.771c7.831-2.071,14.529-2.492,24.879-3.225c3.543-0.251,7.282-0.315,10.553-1.991   c6.868-3.519,5.362-12.178-0.181-16.937c-0.666-0.791-0.78-0.991-0.182-0.938c5.934-0.295,5.043-9.027-0.424-10.585   c-1.423-0.712-0.098-0.359,0.528-0.629c2.976-0.927,3.411-5.684,1.161-7.758C129.578,371.708,123.675,370.743,121.128,373.427"></path>		<path style="fill-rule:evenodd;clip-rule:evenodd;fill:#221F1F;" d="M113.895,147.345c1.969-0.137,1.623,0.517,0.973,0.81   c-0.396,0.254-0.989,0.398-1.384,0.652c-0.812,0.423-0.472,0.321,0.35,0.653c4.39,1.195,10.767,1.249,22.573,4.958   c1.48,0.506,5.479,2.434,6.377,4.046c1.812,3.25,2.057,10.089-3.477,11.613c-2.891,0.909-6.811,0.262-9.694-0.128   c-0.927-0.133-0.608-0.052,0.362,0.342c1.343,0.481,2.867,1.078,3.723,1.83c3.335,2.796,7.134,13.574,7.357,19.225   c0.174,3.526-1.67,5.02-4.046,5.491c-4.093,0.905-9.897-3.361-13.025-6.094c-1.039-0.908-0.879-1.19,0.131-0.612   c2.511,1.73,6.32,5.157,9.423,4.976c1.575-0.133,2.949-1.002,3.401-3.529c0.703-3.973-2.134-15.259-7.557-20.623   c-1.207-1.194-1.056-1.03-2.689-1.007c-5.739,0.081-13.527,0.877-18.187,1.553c-0.799-0.331-3.463-1.955-4.262-2.287   c4.503-2.177,14.578-2.421,20.537-1.95c2.899,0.229,4.859,0.768,7.807,0.75c5.067,0.284,9.728-2.556,6.706-10.439   c-13.02-2.777-17.53-3.092-31.007-6.255c-0.602-0.068-1.28,0.135-1.476,0.379c-0.253-0.208-2.291-2.405-3.436-3.43   C104.725,147.994,112.823,147.446,113.895,147.345"></path>		<path style="fill-rule:evenodd;clip-rule:evenodd;fill:#221F1F;" d="M232.515,48.664c0.522,0.246,1.161,0.712,1.466,0.953   c0.773,1.352,1.771,2.671,3.094,4.325c5.744,7.183,17.138,17.436,20.745,22.825c0.901,1.346,0.94,1.84,1.379,3.276   c0.647,2.12,0.753,0.527,0.742-1.206c-0.35-10.101-15.923-20.298-20.668-27.175c-0.275-0.493-0.306-0.613,0.071-0.612   c0.441,0.001,2.349,0.415,2.814,0.536c0.951,0.306,0.559-0.524-0.324-1.029c-0.66-0.585-8.497-6.066-9.263-6.388   C232.527,44.922,232.517,48.189,232.515,48.664"></path>		<path style="fill-rule:evenodd;clip-rule:evenodd;fill:#221F1F;" d="M338.995,78.921c0.299,0.508,0.535,1.223,0.657,1.6   c-0.5,13.857,4.842,28.761,3.501,40.32c-0.152,1.314-0.136,2.016-0.395,3.209c-0.453,1.395-0.08,0.907,0.538-0.178   c0.669-1.174,1.473-2.537,1.844-3.996c3.056-9.808-1.726-23.347-2.385-33.841c0.04-0.568,0.078-0.687,0.39-0.466   c0.365,0.258,1.392,1.413,1.712,1.784c0.439,0.68,0.628,0.086,0.456-0.528c-0.04-0.148-0.159-0.846-0.333-1.434   c-0.849-2.868-3.267-9.893-3.648-10.484C340.991,75.264,339.254,78.529,338.995,78.921"></path>		<path style="fill-rule:evenodd;clip-rule:evenodd;fill:#221F1F;" d="M94.097,347.378l2.618,0.096   c0.289-0.615,0.248-0.77,0.526-1.125c13.237-8.042,17.616-16.073,28.888-22.403c1.288-0.723,1.965-1.106,3.238-1.581   c1.582-0.403,0.896-0.478-0.497-0.433c-1.508,0.05-3.251,0.122-4.841,0.647c-1.808,0.596-3.34,1.55-4.672,2.285   c-6.551,3.613-11.962,10.333-19.76,16.264c-0.719,0.527-0.401-0.79-0.161-1.543c0.15-0.488,0.276-0.913,0.41-1.41   c0.363-0.862-0.308-0.685-0.775-0.135c-1.591,1.829-4.321,5.936-5.956,8.09C92.011,347.587,92.597,347.218,94.097,347.378"></path>		<path style="fill-rule:evenodd;clip-rule:evenodd;fill:#221F1F;" d="M367.556,95.057l-3.08,0.831   c-0.089,0.412-0.027,0.878-0.466,1.995c-6.25,7.964-10.921,17.221-17.589,25.382c-1.255,1.534-1.93,2.52-3.687,3.04   c-6.312,1.66-14.75-0.088-21.511-2.108c-1.935-0.505-1.407-0.075,1.2,1.296c6.379,3.878,12.531,6.701,18.685,4.135   c5.752-2.398,10.947-8.439,14.407-13.938c2.25-3.389,4.549-6.991,7.501-11.223c0.516-0.618,0.553-0.387,0.54,0.151   c-0.015,0.64-0.023,0.92-0.089,1.515c-0.177,1.6,0.575,1.267,1.274-0.395c1.039-2.442,2.548-7.648,3.376-9.85   C368.551,94.737,368.662,94.698,367.556,95.057"></path>		<path style="fill-rule:evenodd;clip-rule:evenodd;fill:#221F1F;" d="M92.09,319.374l2.533,1.504   c0.473-0.344,0.884-0.633,1.25-0.705c11.009-0.297,17.817-2.235,28.613-3.018c1.932-0.14,3.275-0.123,4.861,0.819   c5.554,3.532,8.154,10.203,11.489,16.641c1.005,1.79,0.931,1.099,0.053-1.798c-2.363-9.834-3.831-15.968-16.243-17.436   c-11.309-0.877-12.06,0.572-23.302,1.593c-0.786,0.048-0.846-0.046-0.466-0.412c0.451-0.436,0.649-0.627,1.104-0.993   c1.225-0.987,0.471-1.314-1.161-0.671c-2.407,0.934-6.455,2.553-8.548,3.476C91.174,318.858,91.069,318.802,92.09,319.374"></path>		<path style="fill-rule:evenodd;clip-rule:evenodd;fill:#221F1F;" d="M423.766,281.963c-1.167-0.658-2.706-1.2-3.873-1.859   c-0.617,0.521-0.574,0.579-1.185,0.813c-5.293,0.294-12.731,1.316-26.061,3.433c-1.454-2.479-0.836-6.694,2.628-7.374   c1.532,0.019,0.851-0.635-0.358-1.09c-0.931-0.342-1.95-0.602-2.536-0.941c-2.439-1.411-2.247-5.503-0.26-6.62   c0.726,0.132,1.529,0.683,2.26,0.914c1.009,0.348,1.237-0.146,0.119-0.852c-1.128-0.712-1.599-1.064-3.076-2.307   c-2.202-1.853-2.461-6.872,0.562-7.237c0.67,0.062,1.163,0.288,1.695,0.477c0.846,0.495,1.564,0.467,0.954-0.469   c-2.032-2.965-3.538-8.134-3.81-9.811c6.23-3.433,7.882-8.157,3.468-11.153c-2.071-1.406-5.21-2.286-7.446-0.247   c-1.554,1.469-2.122,5.202-0.726,9.08c-1.029,0.585-0.896,0.503-1.623,0.931c-3.393-2.47-8.344-9.194-11.205-14.849   c-2.321-4.589-2.621-9.51,1.698-12.016c4.481-2.6,7.745-1.076,12.22,0.487c2.822,1.275,3.993,0.992,0.029-0.813   c-4.672-2.211-10.405-3.733-15.313-1.411c-4.571,2.164-6.007,7.659-3.676,12.542c2.309,5.038,7.49,12.568,12.873,16.392   c2.171,0.924,3.733,1.387,5.504,1.378c1.038,3.197,1.882,5.116,2.739,6.801c0.834,1.352-0.366,0.851-0.95,0.936   c-0.862,0.136-1.3,0.399-1.811,0.814c-2.646,2.149-0.85,7.213,2.692,8.717c0.83,0.272,0.079,0.398-0.493,0.559   c-4.333,1.623-2.481,7.437,1.416,8.047c0.839,0.305,0.787,0.411-0.039,0.763c-3.8,2.304-3.87,8.453,0.816,9.811   c1.678,0.487,3.639,0.545,5.408,0.554c6.177,0.033,10.702-1.384,16.924-2.08c1.261-0.141,1.326,0.026,0.671,0.582   c-0.718,0.61-0.952,0.926-1.619,1.607c-0.439,0.405-0.434,0.736,0.503,0.511C415.894,285.88,420.772,283.354,423.766,281.963    M390.281,244.466c-0.535-1.795-0.355-4.435,0.503-5.427C393.307,240.21,392.461,242.799,390.281,244.466"></path>		<path style="fill-rule:evenodd;clip-rule:evenodd;fill:#221F1F;" d="M228.927,52.298c-11.876,10.416-30.776,25.742-41.355,37.497   c-0.254,1.096-0.697,3.568-0.946,4.6c4.094-5.446,35.539-33.326,41.507-37.869L228.927,52.298z"></path>		<path style="fill-rule:evenodd;clip-rule:evenodd;fill:#221F1F;" d="M334.033,94.928c1.746,3.135,0.367,7.314-2.229,10.381   c-1.892,1.906-7.166,1.186-8.019-2.925c-0.22-1.209,0.116-2.147-0.57-0.985c-3.711,5.628-11.775,3.04-10.564-2.112   c0.214-0.688-0.046-0.999-0.965-0.599c-16.334,4.002-37.361,1.29-44.583-10.089c-1.887-2.974-2.79-6.518-3.11-9.802   c-0.08-1.999-0.014-1.945-0.748,0.607c-1.988,6.909-4.658,9.911-8.418,12.111c-2.991,1.751-7.18,2.945-11.896,4.149   c-3.254,0.858-2.354,0.117,0.037-1.045c3.144-1.932,7.369-4.069,11.138-7.271c4.266-3.622,7.949-7.384,8.827-13.411   c0.561-7.619,0.077-22.813,0.033-27.453c0.423-1.287,1.484-3.506,2.182-4.874c1.04,9.491,0.815,20.732,0.93,30.748   c0.055,4.746,1.282,10.069,3.45,13.009c9.046,12.267,32.017,13.483,45.781,8.699c1-0.218,1.675-0.252,0.883,0.659   c-0.477,0.363-1.477,1.795-1.215,2.518c0.476,2.262,4.786,3.809,7.569,2.208c1.383-0.796,2.364-2.089,3.766-3.861   c0.566-0.833,1.715-1.347,0.96,0.026c-0.38,0.775-1.112,1.541-1.126,2.066c0.052,3.548,5.172,5.251,6.249,4.297   c-0.257-0.673-0.678-2.203-0.88-2.732C332.173,98.071,333.275,96.358,334.033,94.928"></path>		<path style="fill-rule:evenodd;clip-rule:evenodd;fill:#221F1F;" d="M231.488,73.935c1.503-10.134,7.078-6.472,9.836-2.451   c0.706,1.029,0.786,1.439,0.898,2.685c-0.01,1.825-0.255,2.863-0.494,3.542c-0.214,0.492-0.53,0.608-1.203,0.722   c-3.712,0.461-6.7,0.763-7.776-0.319c-0.28-0.43-0.493-0.407-0.39,0.816c0.256,8.295-4.735,12.453-9.133,11.485   c-1.276-0.281-2.453-1.146-3.335-2.162c-0.429-0.494-0.851-0.621-1.497,1.198c-3.368,11.214-13.078,19.786-21.582,19.486   c-4.589-0.117-5.998-1.783-9.429-3.857c-3.253-2.384-4.787,4.427-4.553,7.202c0.184,2.175,0.809,4.851,1.147,7.144   c1.334,8.25-2.179,9.605-7.484,6.611c-3.466-2.445-5.78-5.654-7.808-9.577c-1.259-2.521-1.431-4.679,0.033-1.593   c1.968,3.384,3.08,5.648,6.466,7.991c2.255,1.697,7.107,2.147,6.77-3.26c-0.089-3.863-2.181-8.592-1.455-14.251   c1.01-6.939,4.455-6.483,6.656-4.724c3,2.198,6.368,4.332,10.195,3.829c8.907-0.812,16.527-11.047,19.393-19.123   c0.292-0.824,0.554-1.611,0.806-2.435c0.415-1.357,0.802-1.849,1.369-0.341c3.582,6.216,11.512,2.965,11.951-4.473   c-0.001-1.544,0.052-2.513,0.197-3.798C231.152,73.499,231.364,74.34,231.488,73.935 M233.576,74.196   c1.836,0.375,3.122,0.163,5.099-0.083c0.591-0.265-0.047-0.553-0.298-0.809C235.666,71.075,234.438,71.165,233.576,74.196"></path>		<path style="fill-rule:evenodd;clip-rule:evenodd;fill:#221F1F;" d="M328.146,111.324l-1.197,0.9   c0.029,0.337,0.017,0.718-0.086,1.009c-0.579-0.021-1.909-0.902-1.525-1.73c0.18-0.177,0.338-0.355,0.451-0.506   c0.393-0.381,0.293-0.596-0.358-0.134c-0.37,0.333-0.671,0.546-0.997,0.724c-1.713,1.098-2.687-0.105-3.14-1.443   c-0.094-0.279-0.322-0.423-0.55-0.574c-2.61-1.728-10.044,2.772-16.677,2.466c-2.048-0.136-1.785,0.319-0.057,0.523   c5.034,0.544,7.81-0.307,12.324-1.729c1.345-0.236,3.412-0.529,3.772,0.891c0.378,1.851,2.712,2.274,4.009,0.916   c-0.215,1.873,1.874,2.419,3.125,1C327.991,112.894,328.159,112.148,328.146,111.324"></path>		<path style="fill-rule:evenodd;clip-rule:evenodd;fill:#221F1F;" d="M406.522,179.419l-3.774-0.308   c-0.168,0.37-0.404,0.767-0.686,1.06c-3.523,1.448-6.924,5.356-9.815,7.847c-4.006-2.289-11.782-8.448-15.855-14.674   c-6.547-10.011-1.035-21.302,11.588-19.911c2.403,0.168,3.149-0.144-0.18-0.755c-13.519-2.282-24.016,9.378-15.684,21.579   c3.923,5.744,11.282,11.447,15.244,13.933c2.274,1.341,5.62,1.408,8.078,0.212c3.27-1.285,4.271-3.519,6.567-5.111   c0.365-0.253,0.54-0.417,0.404,0.158c-0.074,0.309-0.15,0.694-0.183,0.817c-0.461,1.54,0.601,0.736,1.182-0.015   c1.056-1.345,2.31-2.973,3.25-4.304C406.994,179.472,407.069,179.507,406.522,179.419"></path>		<path style="fill-rule:evenodd;clip-rule:evenodd;fill:#221F1F;" d="M403.027,322.937l-4.219-0.648   c-0.207,0.608-0.306,0.703-0.749,1.11c-1.898,1.04-3.571,2.327-5.074,3.893c-2.29-2.148-7.488-4.352-10.949-3.452   c-3.476,0.918-1.586,5.469,0.448,8.219c0.843,1.14,3.544,1.812,4.864,1.963c4.001,0.549,5.502-1.641,7.032-3.313   c1.292,0.888,3.543,2.43,5.246,3.517c1.738,1.11,3.789,1.408,5.784,1.596c-2.924-1.199-7.226-4.463-9.803-6.398   c0.635-0.668,1.74-1.809,2.502-2.369c0.245-0.18,0.415-0.284,0.523-0.305c0.176-0.08,0.028,0.337-0.145,1.387   c-0.509,1.764,0.544,0.915,1.072-0.01C400.491,326.761,402.079,324.47,403.027,322.937 M391.834,328.563   c-1.744,1.705-2.704,3.096-4.559,4.409c-1.056-1.122-3.836-6.29-2.23-7.514c0.297-0.226,0.746-0.23,1.259-0.114   C388.589,325.975,390.91,327.543,391.834,328.563"></path>		<path style="fill-rule:evenodd;clip-rule:evenodd;fill:#221F1F;" d="M101.151,254.128l4.234,0.535   c0.192-0.613,0.288-0.711,0.721-1.129c1.871-1.09,3.512-2.422,4.976-4.028c2.342,2.086,7.593,4.149,11.031,3.157   c3.453-1.011,1.449-5.51-0.652-8.204c-0.872-1.118-3.589-1.717-4.911-1.832c-4.014-0.441-5.46,1.788-6.948,3.5   c-1.314-0.854-3.602-2.334-5.332-3.375c-1.765-1.063-3.823-1.305-5.822-1.441c2.953,1.12,7.335,4.267,9.959,6.132   c-0.618,0.686-1.695,1.855-2.442,2.436c-0.24,0.186-0.408,0.295-0.515,0.319c-0.174,0.084-0.036-0.336,0.111-1.391   c0.465-1.777-0.567-0.9-1.071,0.038C103.592,250.237,102.061,252.569,101.151,254.128 M112.201,248.203   c1.701-1.752,2.626-3.168,4.448-4.529c1.084,1.094,3.991,6.185,2.415,7.452c-0.291,0.234-0.74,0.25-1.255,0.148   C115.509,250.704,113.15,249.198,112.201,248.203"></path>		<path style="fill-rule:evenodd;clip-rule:evenodd;fill:#221F1F;" d="M394.964,222.478c0.816-0.338,1.829-1.303,2.256-2.399   c0.837-2.365-0.793-6.025,0.706-8.075c2.019-2.761,6.459-1.554,8.618,0.777c2.074,2.02,1.748,4.428-0.014,6.44   c-2.995,3.238-7.197,4.456-11.072,4.101c-1.711-0.156-3.892-0.669-5.134-1.526c-4.525-3.465-10.58-13.256-13.978-18.85   c-2.416-5.743-4.447-12.835-5.937-18.778c-0.441-1.761,0.025-1.212,0.676,0.371c2.334,5.35,5.249,11.092,8.57,16.664   C384.413,209.186,389.054,216.849,394.964,222.478 M401.634,218.262c1.162-1.121,2.597-2.794,1.863-4.098   c-0.268-0.472-0.767-0.998-1.337-1.127C401.015,213.923,401.799,217.013,401.634,218.262"></path>		<path style="fill-rule:evenodd;clip-rule:evenodd;fill:#221F1F;" d="M415.287,416.54l-4.53-1.358   c-0.329,0.512-0.406,0.663-0.626,0.699c-5.073,0.837-7.707,3.141-12.009,4.628c-8.125-9.037-16.867-25.308-21.293-36.795   c-1.774-4.536-1.685-4.033-0.799,0.024c0.991,4.127,2.094,9.564,3.48,14.467c2.856,6.401,9.869,17.636,15.15,22.416   c1.441,1.079,5.134,1.904,6.925,1.552c3.432-0.673,4.406-2.117,7.597-3.11c0.42-0.154,0.66-0.154,0.473,0.193   c-0.028,0.052-0.066,0.113-0.116,0.181c-0.185,0.406-0.477,0.803-0.639,1.075c-0.554,0.89,0.295,0.599,1.155,0.081   C412.118,419.148,413.34,418.089,415.287,416.54"></path>		<path style="fill-rule:evenodd;clip-rule:evenodd;fill:#221F1F;" d="M415.259,363.36l-4.53-1.357   c-0.329,0.511-0.408,0.663-0.626,0.698c-5.073,0.837-7.707,3.141-12.009,4.627c-8.125-9.036-16.867-25.307-21.293-36.794   c-1.774-4.536-1.686-4.033-0.799,0.024c0.992,4.126,2.095,9.564,3.481,14.467c2.856,6.4,9.869,17.636,15.149,22.415   c1.441,1.079,5.134,1.904,6.926,1.553c3.43-0.673,4.406-2.118,7.597-3.111c0.419-0.153,0.66-0.154,0.473,0.193   c-0.029,0.052-0.066,0.113-0.116,0.181c-0.186,0.406-0.478,0.803-0.64,1.075c-0.553,0.89,0.295,0.6,1.155,0.082   C412.09,365.968,413.312,364.91,415.259,363.36"></path>		<path style="fill-rule:evenodd;clip-rule:evenodd;fill:#221F1F;" d="M102.241,350.12l4.524,1.376   c0.331-0.511,0.409-0.661,0.629-0.696c5.076-0.817,7.719-3.11,12.026-4.579c5.043,5.652,9.247,12.664,13.564,21.024   c2.61,5.054,4.872,10.07,6.523,14.405c1.757,4.543,1.67,4.04,0.799-0.021c-0.975-4.131-2.059-9.572-3.426-14.482   c-2.832-6.412-8.735-16.223-13.998-21.025c-1.437-1.085-5.127-1.924-6.92-1.58c-3.434,0.659-4.415,2.099-7.609,3.08   c-0.421,0.152-0.661,0.151-0.472-0.195c0.028-0.052,0.067-0.112,0.116-0.18c0.187-0.406,0.481-0.801,0.643-1.073   c0.557-0.888-0.292-0.601-1.155-0.087C105.42,347.525,104.194,348.578,102.241,350.12"></path>		<path style="fill-rule:evenodd;clip-rule:evenodd;fill:#221F1F;" d="M96.81,441.302l4.648,0.42   c0.171-0.586,0.301-1.021,0.824-1.372c7.423-4.466,9.038-11.813,13.524-16.742c0.714-0.748,1.45-1.259,2.201-1.31   c3.168,5.172,9.089,15.767,11.212,21.658c0.813,2.837,0.189,5.668-2.626,5.936c-3.055,0.21-7.324-1.476-10.145-2.861   c-0.737,0.084-1.675-0.178,0.349,0.896c2.465,1.588,8.098,3.283,11.106,3.211c3.7-0.088,7.537-2.986,5.68-7.373   c-0.544-2.468-7.892-15.821-10.739-20.098c-0.757-1.011-1.353-1.364-2.725-1.778c-3.495-1.125-7.43-1.121-9.77,2.334   c-2.389,2.982-6.085,10.922-8.753,12.622c-0.217,0.133-0.175-0.211-0.117-0.653c0.049-0.375,0.115-0.711,0.172-1.072   c0.253-1.596-0.588-0.879-0.942-0.187C99.494,437.018,97.816,439.488,96.81,441.302"></path>		<path style="fill-rule:evenodd;clip-rule:evenodd;fill:#221F1F;" d="M395.954,448.101c0.92-0.709,1.259-1.649,1.443-2.557   c0.337-1.991-0.526-4.303,0.156-6.521c0.857-2.873,4.438-3.282,7.19-1.767c3.219,1.665,4.653,5.188,1.785,8.358   c-3.701,4.167-11.617,4.965-15.382,1.73c-3.12-2.378-8.758-8.571-11.223-13.792c-7.279-14.066,7.027-18.518,17.62-13.16   c2.36,1.042,1.823,1.386,0.295,0.774c-0.696-0.272-1.504-0.588-2.376-0.887c-9.427-3.335-16.317,3.119-11.744,12.516   C386.5,438.515,392.994,445.882,395.954,448.101 M401.743,444.344c1.401-1.193,2.449-2.482,2.136-3.701   c-0.162-0.9-1.065-1.484-1.623-1.641c-0.915,0.639-0.388,4.417-0.471,5.332L401.743,444.344z"></path>		<path style="fill-rule:evenodd;clip-rule:evenodd;fill:#221F1F;" d="M118.06,264.171c-0.919,0.713-1.253,1.653-1.436,2.561   c-0.33,1.993,0.538,4.302-0.137,6.52c-0.849,2.877-4.429,3.297-7.185,1.789c-3.224-1.655-4.667-5.172-1.808-8.351   c3.689-4.179,11.602-5.001,15.378-1.776c4.693,3.556,11.128,11.54,12.797,17.551c3.486,11.821-9.533,14.234-19.12,9.42   c-2.362-1.035-1.826-1.381-0.297-0.773c0.698,0.27,1.505,0.584,2.378,0.88c8.728,3.426,15.265-1.865,12.546-10.513   C129.544,276.286,122.237,267.285,118.06,264.171 M112.281,267.947c-1.398,1.197-2.442,2.488-2.127,3.708   c0.166,0.899,1.07,1.48,1.628,1.636c0.913-0.642,0.376-4.418,0.457-5.333L112.281,267.947z"></path>		<path style="fill-rule:evenodd;clip-rule:evenodd;fill:#221F1F;" d="M161.889,120.932c-1.157,0.025-1.963,0.592-2.626,1.227   c-1.396,1.434-1.987,3.86-3.794,5.27c-2.322,1.843-5.498,0.004-6.909-2.915c-1.713-3.325-0.911-7.095,3.231-7.96   c5.388-1.18,12.349,2.973,13.628,7.923c1.229,3.852,2.385,12.372,1.477,18.164c-1.923,15.995-16.196,10.967-21.898,0.12   c-1.355-2.291-0.72-2.248,0.193-0.816c0.421,0.647,0.906,1.397,1.456,2.173c5.88,8.472,15.177,7.348,16.7-3.161   C164.274,134.564,163.075,124.556,161.889,120.932 M155.012,120.506c-1.824,0.13-3.41,0.554-3.84,1.747   c-0.372,0.839,0.043,1.868,0.412,2.336c1.113,0.03,2.803-3.398,3.386-4.1L155.012,120.506z"></path>		<path style="fill-rule:evenodd;clip-rule:evenodd;fill:#221F1F;" d="M411.595,302.194c-1.51,0.492-1.941,0.218-1.101-0.482   c0.347-0.303,0.934-0.878,1.282-1.182c0.782-0.608,0.503-0.638-0.138-0.602c-10.465,1.073-13.792,2.802-24.38,3.028   c-2.383,0.051-4.635-0.303-7.201-0.913c-0.922-0.219-1.778-0.466-2.413-0.699c-1.067-0.392-1.56-0.819-0.789-0.8   c1.934,0.047,2.97,0.189,5.093,0.081c17.041-1.033,17.246-2.614,34.563-3.763c0.415-0.118,1.209-0.285,1.711-0.758   c0.355,0.182,3.06,1.485,3.855,1.885C420.688,298.689,412.46,301.922,411.595,302.194"></path>		<path style="fill-rule:evenodd;clip-rule:evenodd;fill:#221F1F;" d="M380.722,122.189c-0.691,1.48-1.177,1.619-1.092,0.503   c0.024-0.471,0.025-1.309,0.05-1.78c0.11-1.009-0.103-0.818-0.515-0.308c-6.422,8.656-10.784,16.072-17.883,24.242   c-1.596,1.838-3.388,3.3-5.575,4.824c-0.786,0.548-1.545,1.026-2.143,1.347c-1.006,0.54-1.643,0.621-1.101,0.049   c1.357-1.431,2.167-2.118,3.547-3.799c10.956-13.607,13.283-18.558,24.346-32.452c0.203-0.394,0.629-1.11,0.643-1.814   c0.371-0.145,3.137-1.299,3.962-1.626C384.499,112.903,381.124,121.347,380.722,122.189"></path>		<path style="fill-rule:evenodd;clip-rule:evenodd;fill:#221F1F;" d="M413.74,388.139c-1.492,0.546-1.933,0.288-1.116-0.442   c0.336-0.316,0.905-0.91,1.241-1.227c0.762-0.635,0.482-0.657-0.158-0.596c-10.423,1.446-11.829,2.995-22.403,3.6   c-2.379,0.136-4.642-0.137-7.226-0.655c-0.93-0.186-1.793-0.401-2.435-0.612c-1.08-0.353-1.588-0.762-0.815-0.771   c1.934-0.023,2.974,0.083,5.092-0.101c16.998-1.642,15.289-2.93,32.556-4.698c0.411-0.132,1.199-0.328,1.685-0.819   c0.362,0.169,3.108,1.374,3.915,1.746C422.712,384.31,414.595,387.835,413.74,388.139"></path>		<path style="fill-rule:evenodd;clip-rule:evenodd;fill:#221F1F;" d="M129.573,127.129c1.576,0.144,1.874,0.568,0.84,0.882   c-0.432,0.144-1.186,0.441-1.618,0.585c-0.946,0.252-0.699,0.391-0.093,0.61c10.068,3.159,13.778,2.881,23.648,6.87   c2.221,0.898,4.173,2.118,6.32,3.7c0.772,0.568,1.472,1.135,1.974,1.602c0.843,0.786,1.143,1.376,0.436,1.053   c-1.77-0.81-2.676-1.353-4.678-2.095c-16.132-5.803-16.902-4.424-33.33-10.229c-0.427-0.056-1.222-0.216-1.86,0.022   c-0.262-0.309-2.284-2.586-2.872-3.271C119.88,126.763,128.673,127.038,129.573,127.129"></path>		<path style="fill-rule:evenodd;clip-rule:evenodd;fill:#221F1F;" d="M102.206,297.304c1.524-0.443,1.947-0.155,1.085,0.518   c-0.355,0.292-0.96,0.847-1.315,1.14c-0.8,0.581-0.522,0.621,0.119,0.605c10.493-0.731,13.87-2.351,24.46-2.233   c2.383,0.026,4.623,0.453,7.169,1.147c0.915,0.25,1.763,0.524,2.39,0.777c1.056,0.427,1.536,0.869,0.764,0.825   c-1.93-0.11-2.962-0.286-5.087-0.247c-17.065,0.478-17.317,2.051-34.659,2.636c-0.418,0.104-1.217,0.246-1.734,0.701   c-0.35-0.192-3.014-1.582-3.797-2.008C93.01,300.512,101.333,297.548,102.206,297.304"></path>		<path style="fill-rule:evenodd;clip-rule:evenodd;fill:#221F1F;" d="M355.458,142.32c-7.329-3.049-8.741-3.896-16.259-6.885   l-1.482,0.537c2.303,1.162,12.056,5.31,15.814,6.925L355.458,142.32z"></path>		<path style="fill-rule:evenodd;clip-rule:evenodd;fill:#221F1F;" d="M370.015,160.356c-7.329-3.049-8.741-3.897-16.26-6.885   l-1.481,0.537c2.303,1.162,12.055,5.31,15.815,6.925L370.015,160.356z"></path>		<path style="fill-rule:evenodd;clip-rule:evenodd;fill:#221F1F;" d="M385.322,452.258c-4.835-6.487-5.64-7.961-10.666-14.496   l-1.539-0.316c1.419,2.214,7.81,10.924,10.263,14.295L385.322,452.258z"></path>		<path style="fill-rule:evenodd;clip-rule:evenodd;fill:#221F1F;" d="M134.682,303.013c3.86,7.158,2.012,4.11,6.055,11.345   l1.477,0.549c-1.089-2.408-3.736-7.374-5.684-11.085L134.682,303.013z"></path>		<path style="fill-rule:evenodd;clip-rule:evenodd;fill:#221F1F;" d="M132.695,255.87c2.995,7.592,3.392,9.236,6.56,16.928   l1.403,0.732c-0.8-2.528-4.723-12.694-6.222-16.623L132.695,255.87z"></path>		<path style="fill-rule:evenodd;clip-rule:evenodd;fill:#221F1F;" d="M251.337,78.844c-8.876,7.147-10.894,8.052-19.835,15.483   l-0.433,2.561c3.03-2.098,14.948-11.545,19.562-15.172L251.337,78.844z"></path>		<path style="fill-rule:evenodd;clip-rule:evenodd;fill:#221F1F;" d="M195.468,110.942c-3.72,7.237-4.685,8.603-8.369,16.043   l0.351,1.589c1.364-2.251,6.4-11.873,8.358-15.579L195.468,110.942z"></path>		<path style="fill-rule:evenodd;clip-rule:evenodd;fill:#221F1F;" d="M151.968,95.897c-3.696,7.065-8.689,18.133-12.347,26.244   l0.58,3.149c1.225-2.74,10.322-23.173,12.267-26.6L151.968,95.897z"></path>		<path style="fill-rule:evenodd;clip-rule:evenodd;fill:#221F1F;" d="M100.864,209.046c2.006,7.767,5.727,19.364,8.454,27.861   l2.508,1.867c-0.929-2.862-7.884-24.184-8.747-28.061L100.864,209.046z"></path>		<path style="fill-rule:evenodd;clip-rule:evenodd;fill:#221F1F;" d="M96.763,264.917c2.649,7.556,7.326,18.772,10.754,26.991   l2.655,1.632c-1.165-2.767-9.88-23.38-11.064-27.163L96.763,264.917z"></path>		<path style="fill-rule:evenodd;clip-rule:evenodd;fill:#221F1F;" d="M127.342,417.407c3.198,7.569,6.522,13.234,10.499,21.464   l2.655,1.633c-1.165-2.768-9.349-17.847-10.533-21.632L127.342,417.407z"></path>		<path style="fill-rule:evenodd;clip-rule:evenodd;fill:#221F1F;" d="M92.817,368.414c2.649,7.556,12.031,28.699,15.459,36.917   l2.655,1.632c-1.165-2.767-14.584-33.306-15.768-37.089L92.817,368.414z"></path>		<path style="fill-rule:evenodd;clip-rule:evenodd;fill:#221F1F;" d="M262.739,40.259c-7.355,2.982-10.08,4.148-17.533,7.307   l-0.823,1.914c2.445-0.788,13.531-5.707,17.337-7.198L262.739,40.259z"></path>		<path style="fill-rule:evenodd;clip-rule:evenodd;fill:#221F1F;" d="M312.805,77.298l3.617-3.144   c1.458,0.2,5.992,2.102,6.934,2.945c0.493,0.441,0.562,1.053,0.042,1.49c-1.537,1.66-4.362,3.78-5.64,4.197   c-1.918,0.05-3.65-0.588-5.533-1.07c-1.35-0.344-0.606-0.46,0.871-0.589c3.002-0.259,4.872-0.12,6.709-1.012   C317.713,79.133,315.902,78.052,312.805,77.298"></path>		<path style="fill-rule:evenodd;clip-rule:evenodd;fill:#221F1F;" d="M414.362,206.217l4.338,1.919   c0.492,1.442,0.922,6.504,0.628,7.759c-0.154,0.655-0.646,1-1.257,0.716c-2.122-0.669-5.223-2.321-6.16-3.314   c-0.915-1.753-1.155-3.647-1.599-5.609c-0.318-1.406,0.119-0.77,0.901,0.539c1.587,2.662,2.317,4.456,3.918,5.752   C415.02,211.594,415.123,209.426,414.362,206.217"></path>		<path style="fill-rule:evenodd;clip-rule:evenodd;fill:#221F1F;" d="M110.007,368.986l-4.146-2.334   c-0.359-1.483-0.33-6.565,0.077-7.786c0.213-0.638,0.733-0.932,1.316-0.59c2.051,0.872,4.989,2.821,5.833,3.901   c0.752,1.835,0.82,3.744,1.084,5.741c0.19,1.43-0.188,0.755-0.848-0.625c-1.339-2.805-1.904-4.662-3.38-6.109   C109.838,363.568,109.539,365.716,110.007,368.986"></path>		<path style="fill-rule:evenodd;clip-rule:evenodd;fill:#221F1F;" d="M96.473,335.74l-4.145-2.335   c-0.36-1.483-0.33-6.565,0.076-7.785c0.213-0.639,0.734-0.933,1.316-0.59c2.051,0.872,4.989,2.82,5.833,3.901   c0.752,1.835,0.82,3.744,1.084,5.741c0.19,1.43-0.188,0.755-0.848-0.624c-1.339-2.806-1.904-4.664-3.38-6.109   C96.304,330.322,96.005,332.47,96.473,335.74"></path>		<path style="fill-rule:evenodd;clip-rule:evenodd;fill:#221F1F;" d="M96.521,195.476l-3.696-3.043   c-0.108-1.526,0.765-6.526,1.368-7.655c0.315-0.591,0.877-0.787,1.394-0.345c1.877,1.228,4.447,3.674,5.098,4.89   c0.436,1.942,0.186,3.835,0.115,5.849c-0.051,1.443-0.311,0.709-0.732-0.768c-0.853-3.002-1.101-4.934-2.315-6.623   C97.253,190.109,96.602,192.172,96.521,195.476"></path>		<path style="fill-rule:evenodd;clip-rule:evenodd;fill:#221F1F;" d="M193.104,73.404c-0.657-0.11-2.55,0.171-2.943,0.378   c-0.064-0.157-0.895-1.453-1.062-2.211c-0.177-0.806,0.215-0.993,1.126-1.079c2.153-0.147,4.38,0.957,6.448,2.596   c0.761,0.639,0.5,0.402-0.008-0.447c-1.048-1.751-2.167-3.604-2.373-5.706c-0.15-1.943,1.2-2.716,2.929-1.802l0.542,1.922   c-0.481-0.28-1.345-0.29-1.773-0.14c-1.588,0.756,0.519,4.051,1.027,4.949c0.704,1.246,1.428,2.443,1.625,3.896   c0.038,0.295-0.184,0.39-0.522,0.135c-2.12-1.686-3.678-2.849-5.036-3.083C192.998,72.995,193.067,72.983,193.104,73.404"></path>		<path style="fill-rule:evenodd;clip-rule:evenodd;fill:#221F1F;" d="M96.721,428.6c-0.438,0.52-1.214,2.337-1.254,2.793   c-0.162-0.027-1.66,0.018-2.365-0.238c-0.752-0.271-0.696-0.715-0.283-1.564c1.023-1.975,3.104-3.351,5.539-4.303   c0.925-0.332,0.593-0.228-0.369-0.231c-1.984-0.005-4.089-0.003-5.912-0.937c-1.665-0.898-1.578-2.499,0.084-3.537l1.855,0.543   c-0.483,0.275-0.95,1.031-1.054,1.488c-0.226,1.8,3.578,1.692,4.58,1.721c1.39,0.04,2.749,0.038,4.039,0.636   c0.261,0.124,0.221,0.369-0.166,0.531c-2.5,0.973-4.276,1.729-5.187,2.801C96.332,428.476,96.358,428.41,96.721,428.6"></path>		<path style="fill-rule:evenodd;clip-rule:evenodd;fill:#221F1F;" d="M100.335,365.83c-0.438,0.52-1.214,2.337-1.254,2.793   c-0.162-0.027-1.66,0.018-2.365-0.237c-0.752-0.272-0.696-0.716-0.283-1.565c1.023-1.975,3.104-3.351,5.539-4.303   c0.925-0.331,0.593-0.228-0.369-0.231c-1.984-0.005-4.09-0.003-5.912-0.937c-1.665-0.898-1.578-2.499,0.084-3.537l1.855,0.543   c-0.483,0.275-0.95,1.031-1.055,1.488c-0.226,1.8,3.579,1.692,4.581,1.721c1.39,0.041,2.749,0.038,4.039,0.636   c0.261,0.124,0.221,0.369-0.166,0.531c-2.5,0.973-4.276,1.729-5.187,2.801C99.946,365.706,99.972,365.639,100.335,365.83"></path>		<path style="fill-rule:evenodd;clip-rule:evenodd;fill:#221F1F;" d="M123.56,143.326c-0.635,0.204-2.214,1.326-2.478,1.693   c-0.124-0.112-1.421-0.891-1.893-1.493c-0.502-0.642-0.23-0.989,0.55-1.486c1.868-1.122,4.334-1.157,6.887-0.639   c0.954,0.223,0.619,0.13-0.197-0.398c-1.686-1.088-3.479-2.234-4.559-4.024c-0.962-1.673-0.081-2.988,1.859-2.964l1.304,1.473   c-0.55-0.029-1.329,0.359-1.649,0.691c-1.102,1.409,2.191,3.393,3.028,3.964c1.162,0.793,2.321,1.533,3.116,2.746   c0.159,0.247,0.002,0.434-0.41,0.361c-2.619-0.537-4.512-0.862-5.829-0.447C123.292,143.008,123.349,142.966,123.56,143.326"></path>		<path style="fill-rule:evenodd;clip-rule:evenodd;fill:#221F1F;" d="M98.136,232.115c-0.402,0.551-1.054,2.42-1.063,2.877   c-0.163-0.016-1.654,0.138-2.376-0.065c-0.768-0.216-0.743-0.663-0.387-1.54c0.887-2.044,2.871-3.568,5.235-4.695   c0.901-0.397,0.576-0.27-0.383-0.203c-1.98,0.139-4.079,0.294-5.961-0.505c-1.721-0.775-1.742-2.378-0.153-3.534l1.886,0.406   c-0.464,0.309-0.878,1.098-0.952,1.561c-0.105,1.812,3.683,1.428,4.685,1.384c1.389-0.06,2.745-0.162,4.072,0.341   c0.268,0.105,0.245,0.352-0.131,0.543c-2.428,1.151-4.149,2.035-4.985,3.171C97.74,232.019,97.762,231.951,98.136,232.115"></path>		<path style="fill-rule:evenodd;clip-rule:evenodd;fill:#221F1F;" d="M133.077,341.7c-0.402,0.551-1.055,2.42-1.063,2.877   c-0.163-0.015-1.654,0.138-2.376-0.065c-0.768-0.216-0.742-0.663-0.387-1.539c0.887-2.044,2.871-3.569,5.235-4.695   c0.901-0.398,0.576-0.27-0.383-0.203c-1.98,0.139-4.079,0.294-5.961-0.505c-1.721-0.775-1.742-2.378-0.153-3.534l1.886,0.406   c-0.464,0.309-0.878,1.097-0.952,1.561c-0.105,1.812,3.683,1.427,4.685,1.384c1.389-0.06,2.745-0.162,4.072,0.341   c0.268,0.104,0.245,0.352-0.131,0.542c-2.428,1.151-4.149,2.035-4.985,3.171C132.68,341.604,132.702,341.536,133.077,341.7"></path>		<path style="fill-rule:evenodd;clip-rule:evenodd;fill:#221F1F;" d="M303.426,63.317c-0.292-0.552-1.546-1.81-1.909-1.987   c0.073-0.136,0.503-1.483,0.934-2.031c0.458-0.584,0.806-0.396,1.377,0.237c1.307,1.526,1.79,3.808,1.814,6.271   c-0.016,0.926,0.003,0.599,0.305-0.256c0.623-1.764,1.279-3.638,2.618-4.968c1.259-1.2,2.551-0.623,2.886,1.18l-1.026,1.48   c-0.076-0.516-0.552-1.167-0.896-1.403c-1.412-0.763-2.511,2.656-2.847,3.538c-0.468,1.224-0.89,2.434-1.785,3.395   c-0.183,0.193-0.373,0.081-0.386-0.314c-0.02-2.528-0.089-4.344-0.688-5.49C303.649,63.01,303.696,63.054,303.426,63.317"></path>		<path style="fill-rule:evenodd;clip-rule:evenodd;fill:#221F1F;" d="M319.014,69.886c-0.292-0.552-1.546-1.81-1.909-1.988   c0.073-0.135,0.503-1.482,0.934-2.03c0.458-0.584,0.806-0.396,1.376,0.236c1.307,1.527,1.79,3.808,1.814,6.271   c-0.016,0.926,0.003,0.599,0.306-0.256c0.623-1.764,1.279-3.638,2.618-4.968c1.26-1.2,2.55-0.623,2.886,1.18l-1.026,1.48   c-0.076-0.516-0.552-1.167-0.896-1.403c-1.412-0.763-2.51,2.656-2.847,3.538c-0.468,1.224-0.89,2.434-1.785,3.395   c-0.184,0.193-0.373,0.081-0.386-0.314c-0.02-2.528-0.088-4.344-0.687-5.489C319.238,69.579,319.285,69.623,319.014,69.886"></path>		<path style="fill-rule:evenodd;clip-rule:evenodd;fill:#221F1F;" d="M277.642,51.246c-0.292-0.552-1.546-1.81-1.909-1.988   c0.073-0.135,0.503-1.482,0.934-2.031c0.458-0.584,0.806-0.396,1.377,0.236c1.307,1.527,1.79,3.809,1.814,6.271   c-0.016,0.926,0.003,0.599,0.305-0.256c0.624-1.764,1.28-3.638,2.618-4.968c1.26-1.2,2.551-0.624,2.886,1.18l-1.026,1.481   c-0.076-0.516-0.552-1.167-0.896-1.403c-1.412-0.763-2.511,2.656-2.847,3.538c-0.468,1.224-0.89,2.434-1.785,3.395   c-0.183,0.193-0.373,0.081-0.386-0.314c-0.02-2.528-0.089-4.343-0.687-5.488C277.865,50.938,277.912,50.983,277.642,51.246"></path>		<path style="fill-rule:evenodd;clip-rule:evenodd;fill:#221F1F;" d="M402.457,151.869c0.233-0.581,0.396-2.385,0.303-2.791   c0.148-0.025,1.429-0.515,2.11-0.508c0.725,0.008,0.8,0.408,0.682,1.266c-0.333,2.014-1.746,3.83-3.583,5.387   c-0.707,0.565-0.449,0.376,0.383,0.088c1.715-0.594,3.533-1.231,5.368-0.974c1.689,0.274,2.06,1.683,0.914,3.08l-1.754,0.091   c0.341-0.384,0.533-1.177,0.496-1.604c-0.307-1.623-3.563-0.382-4.436-0.105c-1.211,0.384-2.385,0.796-3.666,0.669   c-0.259-0.028-0.294-0.252-0.004-0.509c1.887-1.594,3.211-2.783,3.699-3.983C402.828,151.859,402.824,151.925,402.457,151.869"></path>		<path style="fill-rule:evenodd;clip-rule:evenodd;fill:#221F1F;" d="M405.971,164.963c0.269-0.564,0.548-2.352,0.481-2.764   c0.149-0.015,1.459-0.416,2.138-0.361c0.723,0.058,0.773,0.463,0.599,1.31c-0.46,1.987-1.987,3.701-3.919,5.127   c-0.741,0.515-0.472,0.344,0.376,0.114c1.75-0.474,3.604-0.984,5.419-0.601c1.667,0.39,1.948,1.821,0.715,3.136l-1.755-0.03   c0.365-0.359,0.607-1.138,0.597-1.566c-0.203-1.641-3.531-0.627-4.42-0.411c-1.234,0.3-2.431,0.63-3.701,0.414   c-0.257-0.046-0.277-0.272,0.028-0.509c1.985-1.46,3.38-2.554,3.944-3.719C406.341,164.978,406.333,165.044,405.971,164.963"></path>		<path style="fill-rule:evenodd;clip-rule:evenodd;fill:#221F1F;" d="M412.858,193.167c0.494-0.53,1.419-2.422,1.486-2.906   c0.171,0.039,1.771,0.077,2.51,0.39c0.787,0.333,0.704,0.804,0.218,1.685c-1.196,2.047-3.489,3.395-6.136,4.269   c-1.004,0.3-0.645,0.209,0.381,0.268c2.116,0.12,4.361,0.239,6.255,1.34c1.727,1.054,1.55,2.757-0.279,3.767l-1.949-0.685   c0.53-0.266,1.067-1.045,1.204-1.527c0.338-1.906-3.725-2.011-4.792-2.1c-1.48-0.124-2.93-0.199-4.274-0.912   c-0.271-0.147-0.216-0.406,0.207-0.557c2.718-0.892,4.652-1.597,5.681-2.687C413.266,193.322,413.233,193.392,412.858,193.167"></path>		<path style="fill-rule:evenodd;clip-rule:evenodd;fill:#221F1F;" d="M380.493,287.996c0.421-0.452,1.212-2.067,1.267-2.48   c0.147,0.033,1.511,0.065,2.142,0.334c0.671,0.283,0.6,0.684,0.186,1.436c-1.021,1.746-2.978,2.897-5.236,3.643   c-0.857,0.256-0.55,0.178,0.325,0.228c1.805,0.102,3.721,0.204,5.338,1.143c1.473,0.9,1.322,2.352-0.239,3.215l-1.662-0.585   c0.452-0.227,0.91-0.892,1.027-1.302c0.288-1.627-3.179-1.715-4.089-1.792c-1.263-0.105-2.5-0.171-3.646-0.778   c-0.232-0.125-0.184-0.347,0.176-0.476c2.319-0.761,3.968-1.363,4.847-2.293C380.841,288.128,380.814,288.188,380.493,287.996"></path>		<path style="fill-rule:evenodd;clip-rule:evenodd;fill:#221F1F;" d="M380.493,287.996c0.421-0.452,1.212-2.067,1.267-2.48   c0.147,0.033,1.511,0.065,2.142,0.334c0.671,0.283,0.6,0.684,0.186,1.436c-1.021,1.746-2.978,2.897-5.236,3.643   c-0.857,0.256-0.55,0.178,0.325,0.228c1.805,0.102,3.721,0.204,5.338,1.143c1.473,0.9,1.322,2.352-0.239,3.215l-1.662-0.585   c0.452-0.227,0.91-0.892,1.027-1.302c0.288-1.627-3.179-1.715-4.089-1.792c-1.263-0.105-2.5-0.171-3.646-0.778   c-0.232-0.125-0.184-0.347,0.176-0.476c2.319-0.761,3.968-1.363,4.847-2.293C380.841,288.128,380.814,288.188,380.493,287.996"></path>		<path style="fill-rule:evenodd;clip-rule:evenodd;fill:#221F1F;" d="M377.85,255.068c0.421-0.452,1.212-2.067,1.268-2.48   c0.147,0.033,1.512,0.065,2.142,0.332c0.671,0.284,0.6,0.686,0.186,1.438c-1.021,1.746-2.978,2.896-5.236,3.642   c-0.857,0.256-0.551,0.178,0.325,0.228c1.805,0.103,3.72,0.204,5.337,1.144c1.473,0.9,1.322,2.352-0.239,3.214l-1.662-0.585   c0.452-0.227,0.911-0.892,1.027-1.302c0.288-1.627-3.179-1.716-4.09-1.792c-1.262-0.105-2.499-0.17-3.646-0.778   c-0.232-0.125-0.184-0.347,0.176-0.476c2.319-0.762,3.969-1.362,4.847-2.293C378.198,255.2,378.171,255.26,377.85,255.068"></path>		<path style="fill-rule:evenodd;clip-rule:evenodd;fill:#221F1F;" d="M416.491,430.721c0.421-0.452,1.211-2.067,1.268-2.48   c0.147,0.033,1.511,0.065,2.142,0.332c0.672,0.284,0.6,0.685,0.187,1.438c-1.021,1.746-2.978,2.896-5.236,3.642   c-0.857,0.256-0.551,0.178,0.325,0.228c1.805,0.103,3.721,0.204,5.337,1.143c1.473,0.9,1.323,2.352-0.239,3.215l-1.662-0.585   c0.452-0.227,0.911-0.892,1.027-1.302c0.288-1.627-3.179-1.716-4.09-1.792c-1.262-0.105-2.499-0.17-3.646-0.778   c-0.232-0.125-0.184-0.347,0.176-0.476c2.319-0.762,3.969-1.362,4.847-2.293C416.839,430.853,416.811,430.913,416.491,430.721"></path>		<path style="fill-rule:evenodd;clip-rule:evenodd;fill:#221F1F;" d="M398.714,347.916c0.421-0.452,1.211-2.067,1.267-2.48   c0.147,0.034,1.512,0.065,2.142,0.333c0.671,0.284,0.6,0.685,0.186,1.437c-1.021,1.746-2.978,2.897-5.236,3.643   c-0.857,0.256-0.55,0.178,0.325,0.228c1.805,0.102,3.721,0.204,5.338,1.143c1.473,0.9,1.322,2.352-0.239,3.214l-1.662-0.584   c0.452-0.227,0.91-0.892,1.027-1.303c0.288-1.626-3.179-1.715-4.089-1.792c-1.263-0.105-2.5-0.17-3.646-0.778   c-0.232-0.125-0.184-0.347,0.176-0.476c2.319-0.761,3.968-1.362,4.847-2.293C399.062,348.048,399.035,348.109,398.714,347.916"></path>		<path style="fill-rule:evenodd;clip-rule:evenodd;fill:#221F1F;" d="M383.278,370.708c0.421-0.452,1.211-2.067,1.268-2.48   c0.146,0.033,1.511,0.065,2.142,0.332c0.672,0.284,0.6,0.685,0.186,1.438c-1.021,1.746-2.978,2.896-5.236,3.642   c-0.857,0.256-0.551,0.178,0.325,0.228c1.805,0.102,3.721,0.204,5.337,1.143c1.473,0.9,1.322,2.352-0.239,3.215l-1.662-0.585   c0.452-0.227,0.912-0.892,1.028-1.302c0.288-1.627-3.179-1.715-4.09-1.792c-1.262-0.105-2.5-0.17-3.646-0.778   c-0.232-0.125-0.184-0.348,0.176-0.476c2.319-0.762,3.969-1.363,4.847-2.293C383.626,370.84,383.599,370.901,383.278,370.708"></path>		<path style="fill-rule:evenodd;clip-rule:evenodd;fill:#221F1F;" d="M415.431,371.379c0.421-0.451,1.211-2.067,1.267-2.48   c0.147,0.034,1.511,0.065,2.142,0.333c0.671,0.283,0.599,0.685,0.186,1.437c-1.021,1.746-2.978,2.897-5.236,3.643   c-0.856,0.256-0.551,0.178,0.325,0.228c1.805,0.102,3.72,0.204,5.337,1.143c1.474,0.9,1.322,2.352-0.239,3.215l-1.662-0.585   c0.452-0.227,0.911-0.892,1.027-1.302c0.288-1.627-3.179-1.716-4.09-1.792c-1.262-0.106-2.499-0.171-3.646-0.778   c-0.232-0.125-0.184-0.347,0.176-0.476c2.319-0.761,3.969-1.362,4.848-2.293C415.779,371.511,415.752,371.572,415.431,371.379"></path>		<path style="fill-rule:evenodd;clip-rule:evenodd;fill:#221F1F;" d="M286.021,81.282c-0.344-0.651-1.825-2.137-2.253-2.346   c0.086-0.16,0.594-1.75,1.103-2.397c0.541-0.689,0.952-0.468,1.625,0.279c1.543,1.802,2.113,4.496,2.141,7.403   c-0.02,1.093,0.003,0.707,0.36-0.302c0.736-2.082,1.509-4.294,3.09-5.864c1.486-1.417,3.01-0.736,3.407,1.393l-1.211,1.748   c-0.089-0.609-0.652-1.378-1.058-1.656c-1.666-0.901-2.964,3.135-3.361,4.176c-0.552,1.445-1.051,2.874-2.107,4.007   c-0.216,0.228-0.44,0.096-0.456-0.371c-0.024-2.984-0.105-5.127-0.811-6.479C286.284,80.919,286.339,80.972,286.021,81.282"></path>		<path style="fill-rule:evenodd;clip-rule:evenodd;fill:#221F1F;" d="M199.263,94.953c-0.657-0.11-2.551,0.171-2.943,0.378   c-0.064-0.157-0.895-1.453-1.062-2.21c-0.177-0.807,0.215-0.993,1.126-1.08c2.153-0.147,4.38,0.957,6.448,2.596   c0.761,0.64,0.5,0.402-0.008-0.447c-1.048-1.751-2.167-3.604-2.373-5.706c-0.15-1.943,1.2-2.716,2.929-1.802l0.542,1.922   c-0.481-0.28-1.345-0.29-1.773-0.14c-1.588,0.756,0.519,4.051,1.027,4.949c0.704,1.246,1.428,2.443,1.624,3.896   c0.038,0.295-0.184,0.391-0.522,0.135c-2.12-1.686-3.678-2.849-5.036-3.083C199.158,94.544,199.227,94.533,199.263,94.953"></path>		<path style="fill-rule:evenodd;clip-rule:evenodd;fill:#221F1F;" d="M302.618,70.845c0.672-1.183,1.697-2.393,2.762-1.585   c0.679,0.515,1.8,2.402,1.808,3.509c-0.041,0.502-0.319,0.808-0.817,1.511c-0.982-0.415-2.88-0.358-4.368,0.195   c-0.764,0.355-0.749,0.232-0.753,1.495c0.361,5.291,0.876,8.672-1.041,14.158c-0.303,0.865-0.595,1.036-0.343-0.077   c1.074-4.742,0.678-7.959,0.508-13.071c-0.051-1.541,0.51-2.978,1.778-3.829c0.872-0.585,2.007-0.761,3.355-0.739   c-0.615-1.784-1.913-2.055-2.822-1.113C302.139,71.881,302.059,71.729,302.618,70.845"></path>		<path style="fill-rule:evenodd;clip-rule:evenodd;fill:#221F1F;" d="M276.834,58.641c0.673-1.183,1.698-2.393,2.763-1.585   c0.679,0.515,1.799,2.402,1.808,3.509c-0.041,0.502-0.319,0.808-0.817,1.511c-0.982-0.415-2.879-0.359-4.368,0.195   c-0.764,0.355-0.749,0.232-0.752,1.495c0.361,5.291,0.876,8.672-1.042,14.158c-0.302,0.865-0.594,1.036-0.342-0.077   c1.073-4.742,0.678-7.959,0.508-13.071c-0.051-1.541,0.511-2.978,1.779-3.829c0.871-0.585,2.007-0.761,3.355-0.739   c-0.615-1.784-1.912-2.055-2.822-1.113C276.355,59.677,276.275,59.526,276.834,58.641"></path>		<path style="fill-rule:evenodd;clip-rule:evenodd;fill:#221F1F;" d="M396.294,155.91c1.31-0.192,2.858-0.114,2.916,1.255   c0.036,0.873-0.684,2.96-1.51,3.658c-0.404,0.28-0.806,0.246-1.646,0.28c-0.301-1.057-1.527-2.562-2.872-3.426   c-0.744-0.399-0.641-0.464-1.593,0.321c-3.752,3.595-5.973,6.122-11.295,7.989c-0.839,0.294-1.15,0.164-0.155-0.326   c4.234-2.087,6.406-4.416,10.143-7.744c1.127-1.003,2.558-1.444,3.988-0.944c0.983,0.343,1.824,1.155,2.649,2.263   c0.958-1.613,0.351-2.836-0.924-2.986C395.216,156.168,395.28,156.008,396.294,155.91"></path>		<polygon style="fill-rule:evenodd;clip-rule:evenodd;fill:#221F1F;" points="219.21,96.82 219.366,101.758 225.034,101.869    224.979,96.934   "></polygon>		<polygon style="fill-rule:evenodd;clip-rule:evenodd;fill:#221F1F;" points="171.049,89.945 171.206,94.883 176.873,94.994    176.818,90.059   "></polygon>		<polygon style="fill-rule:evenodd;clip-rule:evenodd;fill:#221F1F;" points="91.534,247.457 95.712,249.815 98.671,244.789    94.547,242.342   "></polygon>		<polygon style="fill-rule:evenodd;clip-rule:evenodd;fill:#221F1F;" points="213.464,101.846 213.621,106.784 219.288,106.895    219.233,101.96   "></polygon>		<polygon style="fill-rule:evenodd;clip-rule:evenodd;fill:#221F1F;" points="165.303,94.971 165.46,99.909 171.128,100.02    171.073,95.085   "></polygon>		<polygon style="fill-rule:evenodd;clip-rule:evenodd;fill:#221F1F;" points="92.798,255.151 96.976,257.509 99.935,252.484    95.811,250.037   "></polygon>		<polygon style="fill-rule:evenodd;clip-rule:evenodd;fill:#221F1F;" points="110.798,383.066 115.066,385.241 117.822,380.092    113.604,377.825   "></polygon>		<polygon style="fill-rule:evenodd;clip-rule:evenodd;fill:#221F1F;" points="112.277,390.628 116.545,392.803 119.301,387.654    115.083,385.387   "></polygon>		<polygon style="fill-rule:evenodd;clip-rule:evenodd;fill:#221F1F;" points="105.696,389.104 109.964,391.279 112.719,386.131    108.502,383.863   "></polygon>		<polygon style="fill-rule:evenodd;clip-rule:evenodd;fill:#221F1F;" points="405.377,270.911 401.687,268.844 399.091,273.285    402.733,275.431   "></polygon>		<polygon style="fill-rule:evenodd;clip-rule:evenodd;fill:#221F1F;" points="404.201,264.413 400.51,262.346 397.914,266.787    401.557,268.933   "></polygon>		<polygon style="fill-rule:evenodd;clip-rule:evenodd;fill:#221F1F;" points="409.88,265.788 406.189,263.721 403.594,268.162    407.236,270.308   "></polygon>		<polygon style="fill-rule:evenodd;clip-rule:evenodd;fill:#221F1F;" points="413.205,331.192 409.02,328.848 406.077,333.884    410.208,336.317   "></polygon>		<polygon style="fill-rule:evenodd;clip-rule:evenodd;fill:#221F1F;" points="412.018,323.452 407.833,321.108 404.89,326.143    409.021,328.577   "></polygon>		<polygon style="fill-rule:evenodd;clip-rule:evenodd;fill:#221F1F;" points="421.179,409.147 416.995,406.804 414.051,411.84    418.183,414.273   "></polygon>		<polygon style="fill-rule:evenodd;clip-rule:evenodd;fill:#221F1F;" points="394.049,165.966 389.37,165.088 388.076,170.824    392.729,171.805   "></polygon>		<path style="fill-rule:evenodd;clip-rule:evenodd;fill:#221F1F;" d="M419.526,265.047c-0.506-0.28-1.24-0.404-1.863-0.608   c-1.211,0.333-2.274,0.73-3.415,1.193c-0.64-0.322-0.673-1.83,0.507-2.61c0.975-0.644,2.999-0.214,4.569-1.049l-1.592-0.628   c-0.966,0.375-1.852,0.501-2.894,0.307c-2.052-0.384-1.934-3.171,0.289-3.187c1.123-0.008,2.487,0.57,3.592-0.21l-1.672-0.632   c-0.212,0.39-2.062,0.16-3.199,0.117c-2.675-0.101-2.753,3.079-0.622,3.848c0.472,0.179,1.03,0.35,1.589,0.413   c-0.888,0.117-1.422,0.236-2.08,0.904c-1.293,1.313-0.259,2.83,1.785,3.279C416.042,266.521,417.705,265.262,419.526,265.047"></path>		<path style="fill-rule:evenodd;clip-rule:evenodd;fill:#221F1F;" d="M217.098,70.541c-0.005,0.62,0.238,1.383,0.356,2.079   c0.877,1,1.74,1.831,2.699,2.701c0.022,0.769-1.3,1.526-2.56,0.769c-1.041-0.626-1.631-2.773-3.127-3.878l0.208,1.829   c0.797,0.746,1.335,1.535,1.662,2.627c0.646,2.152-1.885,3.378-2.967,1.254c-0.547-1.073-0.689-2.658-1.912-3.344l0.244,1.906   c0.447,0.015,1.132,1.901,1.641,3.012c1.196,2.614,4.055,1.16,3.714-1.253c-0.068-0.538-0.184-1.155-0.397-1.722   c0.531,0.796,0.893,1.251,1.802,1.562c1.787,0.609,2.637-1.111,2.053-3.288C220.079,73.172,218.163,72.184,217.098,70.541"></path>		<path style="fill-rule:evenodd;clip-rule:evenodd;fill:#221F1F;" d="M98.548,175.155c0.505,0.329,1.258,0.514,1.89,0.773   c1.279-0.253,2.412-0.582,3.627-0.976c0.642,0.384,0.57,1.951-0.71,2.669c-1.058,0.594-3.127-0.008-4.816,0.739l1.608,0.773   c1.029-0.315,1.957-0.378,3.024-0.096c2.102,0.555,1.782,3.438-0.526,3.284c-1.167-0.078-2.54-0.782-3.742-0.058l1.69,0.783   c0.246-0.388,2.151-0.008,3.328,0.124c2.768,0.309,3.074-2.984,0.918-3.945c-0.477-0.222-1.043-0.442-1.619-0.55   c0.93-0.053,1.492-0.136,2.224-0.779c1.435-1.263,0.47-2.916-1.62-3.539C102.266,173.893,100.452,175.072,98.548,175.155"></path>		<path style="fill-rule:evenodd;clip-rule:evenodd;fill:#221F1F;" d="M416.881,245.056c0.809-0.954,1.872-2.541,3.214-2.545   c1.115-0.003,2.196,0.835,2.82,1.818c1.519,2.391,0.381,3.81-1.976,3.538c-0.99-0.159-2.044-0.53-2.948-1.089   c-0.53,0.62-1.237,1.317-1.812,1.637c-0.233,0.213-1.285-0.451-1.711-0.604c0.814-0.769,1.376-1.278,2.029-2.151   c-5.772-3.79-10.403-13.775-12.983-18.777c-1.557-3.035,0.243-0.588,0.632,0.02C407.681,232.561,411.76,240.445,416.881,245.056    M418.524,246.322c0.629,0.1,1.415,0.283,2.046,0.211c1.282-0.186,1.862-1.3,0.806-2.609   C420.652,243.455,419.047,245.766,418.524,246.322"></path>		<path style="fill-rule:evenodd;clip-rule:evenodd;fill:#221F1F;" d="M415.576,323.759c0.809-0.954,1.872-2.541,3.214-2.545   c1.115-0.003,2.196,0.835,2.82,1.817c1.519,2.392,0.381,3.81-1.976,3.538c-0.991-0.159-2.044-0.53-2.949-1.089   c-0.529,0.62-1.236,1.317-1.811,1.637c-0.233,0.213-1.285-0.451-1.71-0.604c0.813-0.769,1.376-1.278,2.029-2.151   c-5.771-3.79-10.404-13.775-12.983-18.777c-1.557-3.035,0.243-0.588,0.632,0.02C406.376,311.264,410.454,319.147,415.576,323.759    M417.218,325.024c0.629,0.101,1.415,0.284,2.047,0.211c1.282-0.186,1.862-1.3,0.806-2.609   C419.347,322.158,417.742,324.468,417.218,325.024"></path>		<path style="fill-rule:evenodd;clip-rule:evenodd;fill:#221F1F;" d="M292.343,67.13c-1.219-0.069-2.05-1.853-1.788-3.141   c0.465-2.293,2.217-5.32,3.086-7.393c0.508-1.215,0.808-2.491-0.508-0.121c-0.878,1.637-2.794,4.606-3.757,7.183   c-0.464,1.239-0.658,2.471-0.557,3.561c0.174,1.859,1.749,3.718,3.444,1.877c0.877-0.952,1.431-2.432,1.736-3.508   c0.293-1.092,0.235-0.983-0.441-0.341C293.175,65.885,292.853,66.625,292.343,67.13"></path>		<path style="fill-rule:evenodd;clip-rule:evenodd;fill:#221F1F;" d="M330.547,85.943c-0.986-0.276-1.367-1.884-0.938-2.889   c0.764-1.79,2.699-3.948,3.756-5.486c0.618-0.902,1.076-1.89-0.396-0.19c-0.99,1.18-3.05,3.261-4.268,5.194   c-0.585,0.929-0.95,1.901-1.048,2.81c-0.169,1.551,0.808,3.354,2.5,2.155c0.876-0.62,1.576-1.729,2.005-2.555   c0.422-0.84,0.356-0.761-0.305-0.357C331.434,85.076,331.047,85.622,330.547,85.943"></path>		<path style="fill-rule:evenodd;clip-rule:evenodd;fill:#221F1F;" d="M334.696,118.011c-0.985-0.276-1.367-1.884-0.938-2.889   c0.763-1.79,2.699-3.948,3.755-5.486c0.618-0.901,1.076-1.89-0.396-0.19c-0.991,1.18-3.051,3.261-4.268,5.194   c-0.585,0.929-0.95,1.901-1.048,2.81c-0.169,1.551,0.809,3.354,2.5,2.155c0.876-0.62,1.575-1.729,2.005-2.555   c0.422-0.839,0.356-0.761-0.305-0.357C335.584,117.144,335.197,117.69,334.696,118.011"></path>		<path style="fill-rule:evenodd;clip-rule:evenodd;fill:#221F1F;" d="M257.254,59.743c-1.012,0.132-1.95-1.207-1.919-2.306   c0.056-1.957,1.063-4.716,1.481-6.555c0.245-1.078,0.309-2.173-0.435-0.021c-0.488,1.481-1.639,4.218-2.063,6.486   c-0.204,1.09-0.188,2.133,0.051,3.014c0.408,1.502,1.969,2.787,3.099,1.012c0.585-0.919,0.829-2.22,0.927-3.153   c0.085-0.943,0.053-0.845-0.412-0.211C257.76,58.592,257.601,59.249,257.254,59.743"></path>		<path style="fill-rule:evenodd;clip-rule:evenodd;fill:#221F1F;" d="M360.274,123.848c-0.758-0.71-0.397-2.323,0.424-3.017   c1.461-1.236,4.128-2.248,5.739-3.122c0.944-0.512,1.783-1.179-0.27-0.356c-1.397,0.585-4.142,1.47-6.069,2.619   c-0.927,0.552-1.675,1.248-2.16,2.011c-0.826,1.303-0.741,3.371,1.29,3.099c1.051-0.141,2.158-0.8,2.9-1.333   c0.742-0.55,0.649-0.511-0.115-0.462C361.444,123.493,360.861,123.798,360.274,123.848"></path>		<path style="fill-rule:evenodd;clip-rule:evenodd;fill:#221F1F;" d="M375.739,143.009c-0.684-0.787-0.165-2.353,0.72-2.956   c1.576-1.073,4.329-1.794,6.018-2.491c0.991-0.408,1.891-0.981-0.233-0.383c-1.448,0.433-4.265,1.019-6.297,1.956   c-0.976,0.45-1.79,1.061-2.348,1.769c-0.951,1.207-1.071,3.273,0.976,3.22c1.06-0.027,2.226-0.564,3.017-1.016   c0.792-0.467,0.697-0.438-0.069-0.472C376.937,142.781,376.327,143.022,375.739,143.009"></path>		<path style="fill-rule:evenodd;clip-rule:evenodd;fill:#221F1F;" d="M413.312,232.017c-0.146-1.05,1.125-2.049,2.184-2.036   c1.884,0.022,4.556,1.018,6.332,1.419c1.041,0.235,2.096,0.281,0.011-0.453c-1.432-0.48-4.086-1.626-6.275-2.025   c-1.053-0.192-2.056-0.156-2.898,0.108c-1.436,0.451-2.645,2.097-0.918,3.239c0.894,0.591,2.151,0.822,3.051,0.906   c0.908,0.071,0.813,0.039,0.196-0.432C414.429,232.522,413.793,232.368,413.312,232.017"></path>		<path style="fill-rule:evenodd;clip-rule:evenodd;fill:#221F1F;" d="M391.659,177.907c-0.453-0.704,0.131-1.879,0.897-2.25   c1.365-0.659,3.622-0.899,5.035-1.247c0.828-0.204,1.603-0.549-0.142-0.331c-1.192,0.168-3.485,0.294-5.194,0.79   c-0.822,0.239-1.533,0.624-2.052,1.116c-0.886,0.84-1.211,2.458,0.414,2.663c0.84,0.106,1.822-0.179,2.498-0.441   c0.678-0.274,0.599-0.263-0.002-0.381C392.631,177.87,392.122,177.988,391.659,177.907"></path>		<path style="fill-rule:evenodd;clip-rule:evenodd;fill:#221F1F;" d="M411.673,179.979c-0.242-0.809,0.638-1.764,1.474-1.893   c1.489-0.23,3.718,0.204,5.168,0.287c0.849,0.048,1.687-0.053-0.046-0.359c-1.189-0.19-3.422-0.745-5.197-0.773   c-0.853-0.014-1.64,0.147-2.273,0.466c-1.078,0.545-1.831,2.001-0.329,2.675c0.778,0.349,1.797,0.365,2.516,0.313   c0.725-0.063,0.647-0.075,0.102-0.366C412.615,180.23,412.095,180.193,411.673,179.979"></path>		<path style="fill-rule:evenodd;clip-rule:evenodd;fill:#221F1F;" d="M397.082,200.119c-0.461-1.209,0.78-2.776,2.045-3.075   c2.253-0.531,5.712-0.134,7.94-0.183c1.306-0.028,2.576-0.286-0.109-0.543c-1.842-0.148-5.32-0.728-8.04-0.556   c-1.307,0.082-2.494,0.422-3.426,0.987c-1.59,0.964-2.579,3.283-0.206,4.134c1.228,0.44,2.79,0.342,3.885,0.177   c1.103-0.184,0.98-0.194,0.116-0.573C398.552,200.39,397.752,200.396,397.082,200.119"></path>		<path style="fill-rule:evenodd;clip-rule:evenodd;fill:#221F1F;" d="M389.995,152.619c-0.759-1.035,0.029-2.892,1.169-3.535   c2.031-1.144,5.466-1.733,7.598-2.406c1.25-0.394,2.406-0.998-0.247-0.492c-1.812,0.374-5.311,0.792-7.885,1.722   c-1.237,0.446-2.291,1.107-3.042,1.912c-1.281,1.374-1.63,3.885,0.876,4.038c1.297,0.079,2.776-0.454,3.787-0.921   c1.014-0.487,0.894-0.462-0.038-0.584C391.482,152.468,390.711,152.698,389.995,152.619"></path>		<path style="fill-rule:evenodd;clip-rule:evenodd;fill:#221F1F;" d="M377.842,273.899c-0.163-0.83,0.805-1.689,1.65-1.73   c1.503-0.075,3.678,0.591,5.113,0.824c0.841,0.137,1.684,0.123-0.01-0.361c-1.165-0.313-3.333-1.098-5.096-1.31   c-0.848-0.102-1.646-0.025-2.306,0.227c-1.125,0.429-2.014,1.8-0.586,2.627c0.739,0.428,1.752,0.551,2.473,0.575   c0.727,0.012,0.65-0.009,0.136-0.354C378.755,274.248,378.241,274.157,377.842,273.899"></path>		<path style="fill-rule:evenodd;clip-rule:evenodd;fill:#221F1F;" d="M408.573,292.963c-0.163-0.83,0.806-1.689,1.65-1.73   c1.503-0.075,3.678,0.591,5.113,0.824c0.841,0.137,1.684,0.122-0.01-0.361c-1.165-0.313-3.334-1.098-5.096-1.311   c-0.848-0.102-1.646-0.025-2.305,0.227c-1.126,0.43-2.016,1.8-0.587,2.627c0.74,0.428,1.752,0.551,2.473,0.574   c0.727,0.013,0.65-0.008,0.136-0.354C409.486,293.311,408.972,293.22,408.573,292.963"></path>		<path style="fill-rule:evenodd;clip-rule:evenodd;fill:#221F1F;" d="M414.358,310.533c-0.163-0.83,0.805-1.689,1.649-1.73   c1.503-0.074,3.678,0.591,5.113,0.824c0.841,0.137,1.684,0.122-0.01-0.361c-1.165-0.313-3.334-1.098-5.097-1.31   c-0.848-0.103-1.646-0.025-2.305,0.227c-1.126,0.43-2.017,1.8-0.587,2.628c0.74,0.427,1.753,0.55,2.474,0.574   c0.727,0.012,0.65-0.008,0.136-0.354C415.271,310.881,414.757,310.79,414.358,310.533"></path>		<path style="fill-rule:evenodd;clip-rule:evenodd;fill:#221F1F;" d="M414.411,340.564c-0.163-0.83,0.805-1.689,1.65-1.73   c1.503-0.075,3.678,0.591,5.113,0.824c0.841,0.137,1.684,0.122-0.01-0.361c-1.165-0.313-3.333-1.098-5.096-1.31   c-0.848-0.102-1.646-0.025-2.306,0.227c-1.126,0.43-2.015,1.8-0.587,2.628c0.74,0.428,1.753,0.55,2.474,0.574   c0.727,0.013,0.65-0.008,0.137-0.354C415.324,340.912,414.81,340.821,414.411,340.564"></path>		<path style="fill-rule:evenodd;clip-rule:evenodd;fill:#221F1F;" d="M382.319,230.217c-0.192-0.823,0.746-1.717,1.589-1.791   c1.499-0.13,3.696,0.453,5.139,0.632c0.844,0.105,1.686,0.059-0.023-0.361c-1.176-0.27-3.369-0.973-5.139-1.119   c-0.85-0.07-1.646,0.037-2.297,0.314c-1.11,0.471-1.951,1.875-0.494,2.648c0.754,0.4,1.77,0.484,2.491,0.481   c0.728-0.014,0.65-0.032,0.125-0.358C383.244,230.531,382.727,230.459,382.319,230.217"></path>		<path style="fill-rule:evenodd;clip-rule:evenodd;fill:#221F1F;" d="M413.13,399.366c-0.012-1.061,1.375-1.876,2.424-1.719   c1.864,0.28,4.386,1.636,6.096,2.276c1.002,0.376,2.041,0.567,0.069-0.447c-1.36-0.672-3.845-2.172-5.963-2.87   c-1.019-0.336-2.018-0.438-2.887-0.292c-1.482,0.25-2.888,1.715-1.321,3.085c0.811,0.708,2.027,1.11,2.907,1.316   c0.891,0.196,0.801,0.151,0.25-0.401C414.173,400.02,413.562,399.781,413.13,399.366"></path>		<path style="fill-rule:evenodd;clip-rule:evenodd;fill:#221F1F;" d="M394.182,430.46c-0.009-0.818,1.061-1.447,1.869-1.326   c1.438,0.216,3.384,1.262,4.703,1.757c0.772,0.29,1.574,0.438,0.053-0.345c-1.049-0.519-2.966-1.677-4.6-2.214   c-0.787-0.258-1.557-0.337-2.227-0.224c-1.143,0.193-2.228,1.323-1.019,2.38c0.625,0.547,1.564,0.856,2.243,1.016   c0.688,0.151,0.618,0.117,0.192-0.309C394.986,430.964,394.515,430.779,394.182,430.46"></path>		<path style="fill-rule:evenodd;clip-rule:evenodd;fill:#221F1F;" d="M377.647,412.445c-0.008-0.818,1.061-1.447,1.869-1.326   c1.438,0.217,3.384,1.262,4.703,1.757c0.773,0.289,1.575,0.438,0.053-0.345c-1.049-0.519-2.966-1.676-4.601-2.214   c-0.786-0.258-1.556-0.337-2.226-0.224c-1.143,0.193-2.229,1.322-1.019,2.38c0.626,0.546,1.564,0.856,2.243,1.016   c0.688,0.15,0.618,0.117,0.192-0.309C378.452,412.949,377.98,412.765,377.647,412.445"></path>		<path style="fill-rule:evenodd;clip-rule:evenodd;fill:#221F1F;" d="M384.02,313.851c-0.011-1.061,1.376-1.876,2.424-1.719   c1.864,0.281,4.386,1.636,6.096,2.277c1.002,0.376,2.041,0.567,0.069-0.447c-1.36-0.673-3.845-2.173-5.964-2.87   c-1.019-0.335-2.018-0.438-2.887-0.291c-1.482,0.25-2.888,1.715-1.32,3.085c0.81,0.709,2.027,1.109,2.907,1.316   c0.891,0.196,0.8,0.151,0.25-0.401C385.063,314.505,384.452,314.266,384.02,313.851"></path>		<path style="fill-rule:evenodd;clip-rule:evenodd;fill:#221F1F;" d="M139.452,209.81c-0.074,1.058-1.519,1.752-2.551,1.506   c-1.836-0.439-4.243-2.004-5.896-2.789c-0.969-0.46-1.99-0.739-0.105,0.439c1.303,0.787,3.66,2.494,5.717,3.369   c0.989,0.421,1.977,0.608,2.854,0.536c1.496-0.123,3.014-1.463,1.56-2.962c-0.752-0.775-1.933-1.279-2.795-1.56   c-0.873-0.271-0.786-0.218-0.28,0.378C138.464,209.07,139.054,209.36,139.452,209.81"></path>		<path style="fill-rule:evenodd;clip-rule:evenodd;fill:#221F1F;" d="M127.69,236.033c-0.073,1.058-1.519,1.752-2.551,1.506   c-1.836-0.439-4.242-2.004-5.896-2.789c-0.969-0.46-1.99-0.739-0.105,0.439c1.303,0.787,3.66,2.494,5.717,3.369   c0.988,0.421,1.976,0.608,2.853,0.536c1.496-0.123,3.014-1.463,1.56-2.962c-0.752-0.775-1.933-1.279-2.795-1.56   c-0.873-0.271-0.786-0.218-0.28,0.378C126.702,235.292,127.293,235.583,127.69,236.033"></path>		<path style="fill-rule:evenodd;clip-rule:evenodd;fill:#221F1F;" d="M136.164,122.188c-0.323,0.679-1.46,0.733-2.079,0.281   c-1.101-0.806-2.287-2.517-3.177-3.5c-0.522-0.576-1.125-1.048-0.184,0.262c0.658,0.886,1.775,2.677,2.908,3.834   c0.545,0.556,1.15,0.957,1.749,1.155c1.022,0.339,2.375-0.122,1.802-1.522c-0.296-0.724-0.948-1.388-1.444-1.816   c-0.508-0.424-0.464-0.366-0.284,0.172C135.703,121.42,136.018,121.778,136.164,122.188"></path>		<path style="fill-rule:evenodd;clip-rule:evenodd;fill:#221F1F;" d="M126.821,181.096c-0.162,0.739-1.256,1.066-1.959,0.775   c-1.251-0.517-2.787-1.895-3.873-2.637c-0.636-0.435-1.328-0.747-0.12,0.299c0.838,0.703,2.324,2.175,3.685,3.026   c0.654,0.409,1.333,0.653,1.96,0.701c1.07,0.083,2.282-0.693,1.412-1.916c-0.45-0.633-1.231-1.122-1.81-1.418   c-0.588-0.29-0.533-0.244-0.238,0.235C126.201,180.461,126.587,180.733,126.821,181.096"></path>		<path style="fill-rule:evenodd;clip-rule:evenodd;fill:#221F1F;" d="M98.673,214.996c-0.162,0.739-1.256,1.066-1.959,0.775   c-1.251-0.518-2.787-1.896-3.873-2.637c-0.636-0.434-1.328-0.746-0.12,0.299c0.837,0.703,2.324,2.176,3.686,3.027   c0.654,0.409,1.332,0.653,1.959,0.701c1.07,0.082,2.282-0.693,1.412-1.916c-0.45-0.633-1.231-1.122-1.81-1.418   c-0.588-0.29-0.533-0.244-0.238,0.235C98.053,214.361,98.439,214.633,98.673,214.996"></path>		<path style="fill-rule:evenodd;clip-rule:evenodd;fill:#221F1F;" d="M147.497,157.599c0.442-0.603,1.569-0.429,2.093,0.138   c0.932,1.009,1.781,2.925,2.474,4.067c0.406,0.67,0.911,1.252,0.228-0.22c-0.482-1-1.249-2.98-2.149-4.341   c-0.433-0.654-0.952-1.168-1.504-1.482c-0.941-0.536-2.353-0.352-2.049,1.136c0.157,0.769,0.674,1.551,1.083,2.07   c0.42,0.517,0.388,0.451,0.31-0.112C147.809,158.443,147.566,158.03,147.497,157.599"></path>		<path style="fill-rule:evenodd;clip-rule:evenodd;fill:#221F1F;" d="M174.547,135.066c-0.534,0.517-1.616,0.148-2.04-0.503   c-0.755-1.159-1.281-3.196-1.778-4.443c-0.291-0.731-0.695-1.393-0.26,0.177c0.313,1.071,0.747,3.158,1.413,4.656   c0.32,0.721,0.749,1.319,1.242,1.725c0.84,0.693,2.262,0.76,2.203-0.761c-0.031-0.786-0.412-1.647-0.731-2.23   c-0.33-0.584-0.309-0.512-0.324,0.056C174.377,134.179,174.55,134.629,174.547,135.066"></path>		<path style="fill-rule:evenodd;clip-rule:evenodd;fill:#221F1F;" d="M167.155,88.708c-0.534,0.517-1.616,0.148-2.04-0.503   c-0.755-1.158-1.281-3.196-1.778-4.443c-0.291-0.731-0.695-1.394-0.26,0.177c0.313,1.071,0.747,3.158,1.413,4.656   c0.32,0.72,0.749,1.318,1.242,1.724c0.84,0.693,2.262,0.76,2.203-0.76c-0.03-0.786-0.412-1.648-0.731-2.231   c-0.33-0.583-0.309-0.512-0.324,0.057C166.985,87.821,167.158,88.272,167.155,88.708"></path>		<path style="fill-rule:evenodd;clip-rule:evenodd;fill:#221F1F;" d="M235.126,61.625c-0.697,0.224-1.517-0.597-1.627-1.375   c-0.196-1.385,0.183-3.457,0.257-4.805c0.044-0.79-0.042-1.569-0.308,0.042c-0.166,1.106-0.648,3.181-0.675,4.831   c-0.013,0.794,0.123,1.526,0.397,2.115c0.467,1.004,1.72,1.707,2.303,0.311c0.301-0.722,0.318-1.67,0.274-2.339   c-0.053-0.675-0.064-0.601-0.315-0.095C235.344,60.749,235.311,61.232,235.126,61.625"></path>		<path style="fill-rule:evenodd;clip-rule:evenodd;fill:#221F1F;" d="M214.259,59.035c-0.697,0.224-1.517-0.597-1.627-1.375   c-0.196-1.385,0.183-3.457,0.257-4.805c0.044-0.79-0.043-1.569-0.308,0.041c-0.166,1.106-0.648,3.181-0.675,4.831   c-0.013,0.794,0.123,1.526,0.397,2.115c0.467,1.004,1.72,1.707,2.303,0.311c0.301-0.722,0.318-1.67,0.274-2.339   c-0.053-0.675-0.064-0.601-0.315-0.095C214.477,58.159,214.445,58.643,214.259,59.035"></path>		<path style="fill-rule:evenodd;clip-rule:evenodd;fill:#221F1F;" d="M137.974,145.741c-0.238,1.031-1.774,1.472-2.753,1.054   c-1.742-0.744-3.872-2.696-5.38-3.75c-0.884-0.618-1.847-1.066-0.172,0.416c1.162,0.997,3.221,3.08,5.112,4.292   c0.909,0.582,1.855,0.934,2.731,1.012c1.496,0.132,3.203-0.933,2.003-2.658c-0.621-0.892-1.707-1.589-2.512-2.012   c-0.819-0.415-0.742-0.349-0.336,0.326C137.115,144.843,137.652,145.229,137.974,145.741"></path>		<path style="fill-rule:evenodd;clip-rule:evenodd;fill:#221F1F;" d="M112.193,160.365c-0.238,1.031-1.774,1.472-2.753,1.054   c-1.742-0.744-3.872-2.696-5.38-3.75c-0.884-0.618-1.847-1.066-0.172,0.416c1.162,0.997,3.221,3.08,5.112,4.292   c0.909,0.582,1.855,0.934,2.731,1.012c1.496,0.132,3.203-0.933,2.003-2.658c-0.621-0.892-1.707-1.589-2.512-2.012   c-0.819-0.415-0.742-0.349-0.335,0.326C111.335,159.467,111.871,159.854,112.193,160.365"></path>		<path style="fill-rule:evenodd;clip-rule:evenodd;fill:#221F1F;" d="M122.019,281.099c0.126,0.868-0.919,1.702-1.794,1.698   c-1.558-0.005-3.775-0.812-5.248-1.133c-0.863-0.187-1.735-0.218-0.007,0.375c1.189,0.388,3.392,1.319,5.205,1.635   c0.872,0.152,1.702,0.116,2.397-0.109c1.186-0.383,2.175-1.751,0.739-2.686c-0.743-0.483-1.784-0.665-2.529-0.729   c-0.752-0.053-0.673-0.028-0.16,0.359C121.092,280.688,121.619,280.812,122.019,281.099"></path>		<path style="fill-rule:evenodd;clip-rule:evenodd;fill:#221F1F;" d="M99.206,286.863c0.126,0.868-0.919,1.702-1.794,1.699   c-1.558-0.007-3.775-0.813-5.248-1.133c-0.863-0.189-1.735-0.22-0.007,0.375c1.189,0.387,3.391,1.317,5.205,1.634   c0.871,0.152,1.701,0.116,2.397-0.108c1.186-0.383,2.175-1.752,0.739-2.686c-0.743-0.483-1.784-0.665-2.529-0.729   c-0.752-0.053-0.673-0.027-0.16,0.359C98.278,286.453,98.805,286.576,99.206,286.863"></path>		<path style="fill-rule:evenodd;clip-rule:evenodd;fill:#221F1F;" d="M100.211,398.173c0.124,0.945-1.025,1.836-1.977,1.818   c-1.695-0.032-4.093-0.946-5.688-1.319c-0.936-0.218-1.884-0.266-0.014,0.408c1.287,0.441,3.667,1.49,5.634,1.863   c0.946,0.18,1.849,0.155,2.608-0.078c1.296-0.397,2.393-1.869,0.845-2.908c-0.801-0.538-1.93-0.753-2.739-0.835   c-0.817-0.07-0.731-0.041-0.179,0.387C99.209,397.712,99.781,397.854,100.211,398.173"></path>		<path style="fill-rule:evenodd;clip-rule:evenodd;fill:#221F1F;" d="M115.29,447.158c0.077,1.179-1.413,2.178-2.587,2.073   c-2.09-0.186-4.977-1.523-6.918-2.122c-1.137-0.35-2.304-0.493-0.05,0.501c1.554,0.657,4.409,2.158,6.808,2.79   c1.153,0.304,2.27,0.351,3.227,0.13c1.631-0.377,3.104-2.1,1.277-3.518c-0.945-0.733-2.323-1.097-3.314-1.268   c-1.004-0.157-0.9-0.114-0.252,0.463C114.09,446.501,114.784,446.726,115.29,447.158"></path>		<path style="fill-rule:evenodd;clip-rule:evenodd;fill:#221F1F;" d="M186.835,82.777c-1.004,0.572-2.513-0.421-2.918-1.581   c-0.72-2.065-0.767-5.375-1.062-7.472c-0.173-1.229-0.542-2.398-0.462,0.166c0.08,1.754-0.032,5.103,0.428,7.649   c0.221,1.224,0.652,2.306,1.252,3.121c1.022,1.391,3.161,2.061,3.634-0.276c0.245-1.209-0.018-2.671-0.287-3.686   c-0.287-1.02-0.281-0.903-0.513-0.044C186.905,81.359,187,82.114,186.835,82.777"></path>		<path style="fill-rule:evenodd;clip-rule:evenodd;fill:#221F1F;" d="M167.377,110.14c-1.049,1.188-3.129,0.594-4.133-0.713   c-1.788-2.326-3.23-6.555-4.485-9.114c-0.736-1.5-1.698-2.835-0.524,0.421c0.836,2.217,2.092,6.566,3.745,9.629   c0.795,1.473,1.801,2.666,2.911,3.442c1.893,1.325,4.645,1.219,4.277-1.994c-0.191-1.663-1.14-3.422-1.909-4.603   c-0.793-1.18-0.738-1.033-0.677,0.175C166.874,108.287,167.312,109.213,167.377,110.14"></path>		<path style="fill-rule:evenodd;clip-rule:evenodd;fill:#221F1F;" d="M407.127,413.414c-4.034-7.88-5.312-10.355-11.103-20.206   c-1.137-0.542-1.915-0.424-2.255-0.599c-0.191-0.075-0.204-0.068-0.131,0.075c1.902,2.613,9.096,15.666,10.967,19.584   L407.127,413.414z"></path>		<path style="fill-rule:evenodd;clip-rule:evenodd;fill:#221F1F;" d="M418.015,360.948c-4.034-7.881-5.312-10.356-11.103-20.206   c-1.137-0.542-1.916-0.424-2.255-0.6c-0.191-0.074-0.205-0.068-0.131,0.076c1.902,2.613,9.095,15.667,10.967,19.584   L418.015,360.948z"></path>		<path style="fill-rule:evenodd;clip-rule:evenodd;fill:#221F1F;" d="M353.434,132.739l-1.143,0.325   c0.234-0.326,0.537-1.01,0.555-1.473c-0.218-0.864-1.505-0.855-2.623-0.848c-0.324,1.152,0.532,3.566,1.686,4.015   c1.487,0.579,2.463,0.794,3.364,1.069l-2.054,0.972c-3.093-1.004-5.424-1.73-8.863-2.661l1.777-1.035l2.646,0.753   c-0.233-0.688-0.682-1.696-0.471-2.991c0.336-1.164,6.385-2.169,6.369-0.165C354.671,131.492,354.041,132.403,353.434,132.739"></path>		<path style="fill-rule:evenodd;clip-rule:evenodd;fill:#221F1F;" d="M130.513,308.176l1.021,0.626   c-0.389,0.053-1.072,0.303-1.404,0.611c-0.445,0.764,0.456,1.719,1.24,2.548c1.021-0.56,2.093-2.879,1.6-4.053   c-0.635-1.512-1.166-2.39-1.603-3.255l2.1,0.856c1.46,3.009,2.58,5.253,4.33,8.468l-1.952-0.606l-1.321-2.499   c-0.313,0.653-0.696,1.69-1.738,2.434c-1.038,0.559-5.942-3.256-4.547-4.639C128.79,308.12,129.859,307.956,130.513,308.176"></path>		<path style="fill-rule:evenodd;clip-rule:evenodd;fill:#221F1F;" d="M408.977,248.017l-1.071-0.784   c0.433-0.022,1.206-0.234,1.599-0.544c0.555-0.8-0.357-1.935-1.15-2.921c-1.171,0.523-2.549,2.979-2.106,4.318   c0.571,1.723,1.081,2.74,1.489,3.732l-2.242-1.137c-1.351-3.447-2.395-6.022-4.049-9.724l2.098,0.847l1.243,2.874   c0.401-0.69,0.91-1.797,2.122-2.521c1.191-0.521,6.268,4.132,4.614,5.527C410.87,248.236,409.679,248.319,408.977,248.017"></path>		<path style="fill-rule:evenodd;clip-rule:evenodd;fill:#221F1F;" d="M386.497,132.188c0.197-0.596,0.251-2.406,0.134-2.805   c0.145-0.034,1.394-0.608,2.074-0.645c0.725-0.04,0.824,0.355,0.756,1.219c-0.209,2.032-1.511,3.937-3.25,5.61   c-0.671,0.61-0.425,0.404,0.387,0.063c1.676-0.704,3.451-1.459,5.299-1.322c1.701,0.163,2.158,1.545,1.098,3.015l-1.744,0.205   c0.317-0.405,0.46-1.21,0.398-1.632c-0.405-1.6-3.579-0.149-4.434,0.185c-1.186,0.462-2.333,0.95-3.618,0.907   c-0.261-0.011-0.308-0.233-0.035-0.508c1.788-1.714,3.036-2.986,3.45-4.217C386.866,132.154,386.866,132.22,386.497,132.188"></path>		<path style="fill-rule:evenodd;clip-rule:evenodd;fill:#221F1F;" d="M350.334,95.129c-0.159-0.608-1.091-2.138-1.404-2.4   c0.101-0.113,0.826-1.317,1.369-1.744c0.578-0.455,0.873-0.187,1.284,0.567c0.924,1.804,0.876,4.14,0.34,6.54   c-0.226,0.896-0.132,0.582,0.355-0.174c1.006-1.561,2.068-3.221,3.672-4.186c1.496-0.858,2.619,0.019,2.536,1.854l-1.332,1.188   c0.044-0.52-0.272-1.27-0.553-1.583c-1.198-1.088-3.042,1.965-3.57,2.74c-0.732,1.074-1.417,2.147-2.504,2.862   c-0.222,0.143-0.381-0.013-0.304-0.4c0.554-2.462,0.9-4.243,0.578-5.503C350.621,94.885,350.656,94.94,350.334,95.129"></path>		<path style="fill-rule:evenodd;clip-rule:evenodd;fill:#221F1F;" d="M369.976,110.765c0.001-0.63-0.513-2.361-0.748-2.699   c0.126-0.082,1.13-1.045,1.761-1.309c0.673-0.282,0.891,0.058,1.096,0.898c0.435,1.993-0.202,4.234-1.326,6.402   c-0.444,0.803-0.275,0.526,0.386-0.071c1.367-1.231,2.81-2.543,4.601-3.037c1.66-0.419,2.523,0.734,1.979,2.481l-1.586,0.782   c0.173-0.49,0.058-1.3-0.133-1.678c-0.882-1.377-3.432,1.065-4.137,1.668c-0.978,0.837-1.91,1.685-3.14,2.078   c-0.25,0.077-0.364-0.117-0.192-0.469c1.157-2.224,1.941-3.848,1.949-5.152C370.314,110.608,370.335,110.671,369.976,110.765"></path>		<path style="fill-rule:evenodd;clip-rule:evenodd;fill:#CBDD67;" d="M161.132,197.383c0,9.565,5.769,15.299,15.007,15.616v13.697   c-2.431-0.101-14.454-0.132-14.454,14.602l0.827,224.768l3.56-3.65l-0.495-218.337c0-11.483,6.346-13.363,15.282-13.278   l-0.056-21.958c-8.805,0.042-15.227-3.387-15.227-12.017c5.406-31.463,55.606-66.784,89.295-76.261   c31.326,8.868,61.441,28.41,83.437,59.18c8.502,13.527,10.801,29.928-8.746,28.201v23.6c15.124-0.066,15.209,3.566,15.008,14.756   l0.556,214.846l5.117,5.514l-0.498-219.803c0.408-10.82-2.155-20.08-15.198-20.011l-0.021-14.231   c21.444-1.756,15.95-25.229,7.343-36.595c-18.414-26.235-52.508-51.965-86.512-60.003   C224.216,119.622,161.132,167.839,161.132,197.383"></path>		<path style="fill-rule:evenodd;clip-rule:evenodd;fill:#A77744;" d="M165.86,196.27c0,9.562,5.904,12.732,15.278,12.102v22.744   c-2.428-0.1-15.127-1.888-15.127,12.849l0.188,212.262l4.84-4.323l0.484-206.374c0-10.537,5.939-8.503,14.878-8.418l0.08-35.19   c-8.805-0.225-14.822,1.875-14.822-6.076c4.595-22.819,52.971-64.117,83.016-69.676c31.323,8.867,58.398,27.096,80.393,57.863   c4.318,9.681,9.583,19.185-10.574,17.595v34.95c13.323,0.201,14.764-2.109,14.404,9.148l1.097,205.683l5.112,5.515l-0.36-210.641   c0.815-12.168-2.496-15.62-15.262-14.878l0.117-23.351c20.892,0.807,16.755-17.794,8.147-29.16   c-18.408-26.235-48.858-50.249-82.859-58.287C223.745,124.212,170.318,166.994,165.86,196.27"></path>		<path style="fill-rule:evenodd;clip-rule:evenodd;" d="M162.4,471.065l-0.007-5.697l3.631-3.474l-0.017-5.594l4.656-4.685   l169.878-0.122l4.497,5.071l0.003,4.283l4.803,5.541l-0.005,4.498l5.89,5.439l0.003,4.53L155.766,481l-0.003-4.52L162.4,471.065z    M167.388,461.344L167.388,461.344l-4.484,4.309l185.415-0.134l-3.97-4.302L167.388,461.344z M170.87,452.174L170.87,452.174   l-4.282,4.308l177.529-0.128l-3.793-4.302L170.87,452.174z M161.895,472.181L161.895,472.181l-4.788,3.81l197.288-0.143   l-4.24-3.803L161.895,472.181z"></path>		<path style="fill-rule:evenodd;clip-rule:evenodd;fill:#A77744;" d="M165.86,196.27c0,9.562,5.904,12.732,15.278,12.102v22.744   c-2.428-0.1-15.127-1.888-15.127,12.849l0.188,212.262l4.84-4.323l0.484-206.374c0-10.537,5.939-8.503,14.878-8.418l0.08-35.19   c-8.805-0.225-14.822,1.875-14.822-6.076c4.595-22.819,52.971-64.117,83.016-69.676c31.323,8.867,58.398,27.096,80.393,57.863   c4.318,9.681,9.583,19.185-10.574,17.595v34.95c13.323,0.201,14.764-2.109,14.404,9.148l1.097,205.683l5.112,5.515l-0.36-210.641   c0.815-12.168-2.496-15.62-15.262-14.878l0.117-23.351c20.892,0.807,16.755-17.794,8.147-29.16   c-18.408-26.235-48.858-50.249-82.859-58.287C223.745,124.212,170.318,166.994,165.86,196.27"></path>	</g></g></svg>