<svg xmlns="http://www.w3.org/2000/svg" xmlns:xlink="http://www.w3.org/1999/xlink" id="Layer_1" x="0px" y="0px" viewBox="0 0 512 512" style="enable-background:new 0 0 512 512;" xml:space="preserve"><g>	<g>		<path style="fill:#306782;" d="M300.889,441.834c-10.7,0-19.359,7.068-19.359,19.567c0,12.533,8.659,19.599,19.359,19.599   c10.688,0,19.358-7.539,19.358-19.599C320.247,448.901,311.577,441.834,300.889,441.834 M300.955,473.187   c-5.268,0-9.536-4.466-9.536-11.863c0-7.308,4.269-11.874,9.536-11.874c5.268,0,9.536,4.565,9.536,11.874   C310.491,468.797,306.222,473.187,300.955,473.187"></path>		<path style="fill:#306782;" d="M217.693,441.834c-10.689,0-19.359,7.068-19.359,19.567c0,12.533,8.67,19.599,19.359,19.599   c10.688,0,19.358-7.539,19.358-19.599C237.051,448.901,228.381,441.834,217.693,441.834 M217.759,473.187   c-5.268,0-9.536-4.466-9.536-11.863c0-7.308,4.269-11.874,9.536-11.874c5.267,0,9.536,4.565,9.536,11.874   C227.295,468.797,223.026,473.187,217.759,473.187"></path>		<path style="fill:#306782;" d="M186.734,441.909l-13.191,15.057h-0.011l-13.202-15.057l-6.332,0.066   c0,0,0.077,27.446,0.077,38.036v0.911h8.801v-22.508l10.634,11.523v0.044l0.022-0.011l0.022,0.011v-0.044l10.656-11.523v22.508   H193v-0.911c0-10.59,0.076-38.036,0.076-38.036L186.734,441.909z"></path>		<polygon style="fill:#306782;" points="357.554,441.976 348.764,441.976 348.786,464.571 331.085,441.976 324.741,441.976    324.818,480.922 333.619,480.922 333.619,458.415 351.134,480.922 357.63,480.922   "></polygon>		<path style="fill:#306782;" d="M268.165,445.151c-3.446-2.173-7.286-3.105-11.303-3.182c-2.787-0.066-5.586,0.153-8.362,0.417   c-1.965,0.208-3.907,0.691-5.838,1.064v36.039c2.809,0.406,5.585,0.889,8.373,1.196c4.455,0.472,8.889,0.417,13.202-1.021   c5.311-1.745,9.054-5.169,10.875-10.502c1.526-4.411,1.548-8.911,0.472-13.432C274.508,451.219,272.105,447.642,268.165,445.151    M265.488,466.528c-1.492,4.324-5.059,6.804-9.635,6.661c-1.141-0.033-2.732-0.186-3.852-0.351v-23.012v-0.22   c2.524-0.066,5.048-0.011,7.429,0.845c3.237,1.174,5.322,3.457,6.233,6.771C266.508,460.328,266.541,463.455,265.488,466.528"></path>		<polygon style="fill:#54B0D9;" points="207.173,113.495 207.173,210.845 154.388,236.854 154.388,139.427   "></polygon>		<polygon style="fill:#54B0D9;" points="343.578,147.14 343.578,224.726 357.866,217.779 357.866,154.163   "></polygon>		<polygon style="fill:#2D6780;" points="255.574,31 216.858,56.888 216.858,109.42 243.843,122.655 243.843,278.387    255.574,281.921   "></polygon>		<polygon style="fill:#8DC341;" points="332.11,108.508 332.11,141.364 318.041,134.473 318.041,224.931 281.673,207.362    281.673,139.609 305.136,128.097 305.136,95.307   "></polygon>		<polygon style="fill:#2D6780;" points="261.007,314.648 313.166,336.914 391.751,336.914 287.235,303.455   "></polygon>		<polygon style="fill:#54B0D9;" points="171.256,268.943 153.95,268.943 224.842,299.199 248.908,292.044   "></polygon>		<polygon style="fill:#8DC341;" points="340.53,268.943 264.206,291.649 255.888,294.129 230.571,301.657 228.178,302.381    120.249,336.916 198.626,336.916 252.266,314.014 255.888,312.466 281.205,301.657 288.338,298.617 357.836,268.943   "></polygon>		<path style="fill:#306782;" d="M342.95,417.018c6.441-2.272,10.798-6.727,13.081-13.136c1.877-5.224,2.041-10.601,0.845-15.967   c-1.394-6.277-4.785-11.161-10.513-14.277c-3.907-2.129-8.132-2.898-12.466-2.963c-3.238,0.044-6.354,0.461-9.35,1.548   c-6.398,2.304-10.809,6.639-13.026,13.059c-0.658,1.931-1.097,3.863-1.35,5.805c0,0.033-0.022,0.055-0.022,0.066   c-0.252,1.844-0.209,3.193-0.626,4.445c-0.428,1.24-0.966,2.25-1.613,2.996c-0.626,0.735-1.35,1.273-2.129,1.591   c-0.79,0.307-1.569,0.603-2.349,0.603H276.36c-0.176,0-0.329-0.022-0.505,0h-16.187v-8.307c0-3.325-0.34-6.398-1.042-9.218   c-0.702-2.82-1.91-5.147-3.632-6.968c-2.041-2.151-4.423-3.687-7.177-4.631c-2.732-0.944-6.486-1.405-10.14-1.405h-14.014v11.271   h15.704c1.449,0,2.776,0.285,3.995,0.845c1.207,0.571,2.162,1.306,2.853,2.217c0.747,0.922,1.306,1.975,1.657,3.183   c0.34,1.207,0.516,2.612,0.516,4.235v8.779h-5.882h-29.399v11.281h46.859v-0.054h15.759c0.209,0.022,0.417,0.054,0.637,0.054   h24.154c0.987,0,2.052-0.076,3.193-0.208c1.152-0.153,2.25-0.417,3.325-0.812c1.076-0.406,2.107-0.966,3.117-1.679   c0.977-0.702,1.8-1.613,2.513-2.721c2.403,4.927,6.354,8.428,11.72,10.337C330.538,419.169,336.782,419.201,342.95,417.018    M323.745,402.554c-1.273-2.568-1.69-5.333-1.679-8.943c0.033-2.722,0.626-6.091,2.743-8.999   c4.587-6.343,14.387-5.904,18.436,0.812c1.986,3.292,2.502,6.903,2.26,10.645c-0.164,2.425-0.669,4.784-1.822,6.968   c-2.107,3.995-5.421,6.102-9.942,6.069C329.079,409.062,325.797,406.691,323.745,402.554"></path>		<rect x="173.227" y="359.133" style="fill:#306782;" width="11.117" height="11.117"></rect>		<path style="fill:#306782;" d="M192.624,370.337v19.83v3.819c0,2.414-0.252,4.477-0.769,6.167   c-0.516,1.679-1.382,3.073-2.623,4.148c-1.394,1.174-3.138,1.975-5.224,2.414c-1.591,0.329-3.292,0.56-5.059,0.56   c-1.767,0-3.479-0.231-5.048-0.56c-2.107-0.439-3.852-1.24-5.246-2.414c-1.229-1.076-2.107-2.469-2.623-4.148   c-0.505-1.69-0.757-3.753-0.757-6.167v-3.819v-19.83h-11.292v25.032c0,3.259,0.406,6.387,1.218,9.372   c0.801,2.985,2.195,5.41,4.192,7.287c1.229,1.185,2.535,2.184,3.906,3.029c1.372,0.834,2.886,1.514,4.554,2.052   c1.668,0.537,3.479,0.922,5.432,1.163c1.437,0.187,3.04,0.275,4.719,0.318c0,0,0.625,0.011,0.944,0.011   c0.307,0,0.944-0.011,0.944-0.011c1.679-0.044,3.271-0.131,4.719-0.318c1.953-0.241,3.764-0.625,5.432-1.163   c1.668-0.538,3.182-1.219,4.554-2.052c1.372-0.845,2.667-1.844,3.907-3.029c1.986-1.876,3.38-4.302,4.192-7.287   c0.801-2.985,1.207-6.112,1.207-9.372v-25.032H192.624z"></path>	</g></g></svg>